ISO-10303-21;
HEADER;
FILE_DESCRIPTION(('FreeCAD Model'),'2;1');
FILE_NAME('Open CASCADE Shape Model','2026-05-04T11:43:08',(''),(''),
  'Open CASCADE STEP processor 7.8','FreeCAD','Unknown');
FILE_SCHEMA(('AUTOMOTIVE_DESIGN { 1 0 10303 214 1 1 1 1 }'));
ENDSEC;
DATA;
#1 = APPLICATION_PROTOCOL_DEFINITION('international standard',
  'automotive_design',2000,#2);
#2 = APPLICATION_CONTEXT(
  'core data for automotive mechanical design processes');
#3 = SHAPE_DEFINITION_REPRESENTATION(#4,#10);
#4 = PRODUCT_DEFINITION_SHAPE('','',#5);
#5 = PRODUCT_DEFINITION('design','',#6,#9);
#6 = PRODUCT_DEFINITION_FORMATION('','',#7);
#7 = PRODUCT('Al20L100','Al20L100','',(#8));
#8 = PRODUCT_CONTEXT('',#2,'mechanical');
#9 = PRODUCT_DEFINITION_CONTEXT('part definition',#2,'design');
#10 = ADVANCED_BREP_SHAPE_REPRESENTATION('',(#11,#15),#1928);
#11 = AXIS2_PLACEMENT_3D('',#12,#13,#14);
#12 = CARTESIAN_POINT('',(0.,0.,0.));
#13 = DIRECTION('',(0.,0.,1.));
#14 = DIRECTION('',(1.,0.,-0.));
#15 = MANIFOLD_SOLID_BREP('',#16);
#16 = CLOSED_SHELL('',(#17,#57,#519,#544,#568,#1015,#1032,#1049,#1066,
    #1083,#1100,#1117,#1134,#1151,#1168,#1185,#1202,#1219,#1236,#1253,
    #1270,#1287,#1304,#1321,#1338,#1355,#1372,#1389,#1406,#1423,#1440,
    #1457,#1474,#1491,#1508,#1525,#1542,#1559,#1576,#1593,#1610,#1627,
    #1644,#1661,#1678,#1695,#1712,#1729,#1746,#1763,#1780,#1797,#1814,
    #1831,#1848,#1865,#1882,#1899,#1911));
#17 = ADVANCED_FACE('',(#18),#52,.F.);
#18 = FACE_BOUND('',#19,.F.);
#19 = EDGE_LOOP('',(#20,#30,#38,#46));
#20 = ORIENTED_EDGE('',*,*,#21,.F.);
#21 = EDGE_CURVE('',#22,#24,#26,.T.);
#22 = VERTEX_POINT('',#23);
#23 = CARTESIAN_POINT('',(-8.5,-2.E-15,-10.));
#24 = VERTEX_POINT('',#25);
#25 = CARTESIAN_POINT('',(-3.6,-2.E-15,-10.));
#26 = LINE('',#27,#28);
#27 = CARTESIAN_POINT('',(-10.,0.,-10.));
#28 = VECTOR('',#29,1.);
#29 = DIRECTION('',(1.,0.,0.));
#30 = ORIENTED_EDGE('',*,*,#31,.T.);
#31 = EDGE_CURVE('',#22,#32,#34,.T.);
#32 = VERTEX_POINT('',#33);
#33 = CARTESIAN_POINT('',(-8.5,-100.,-10.));
#34 = LINE('',#35,#36);
#35 = CARTESIAN_POINT('',(-8.5,-2.22E-15,-10.));
#36 = VECTOR('',#37,1.);
#37 = DIRECTION('',(0.,-1.,2.2E-16));
#38 = ORIENTED_EDGE('',*,*,#39,.T.);
#39 = EDGE_CURVE('',#32,#40,#42,.T.);
#40 = VERTEX_POINT('',#41);
#41 = CARTESIAN_POINT('',(-3.6,-100.,-10.));
#42 = LINE('',#43,#44);
#43 = CARTESIAN_POINT('',(-10.,-100.,-10.));
#44 = VECTOR('',#45,1.);
#45 = DIRECTION('',(1.,0.,0.));
#46 = ORIENTED_EDGE('',*,*,#47,.F.);
#47 = EDGE_CURVE('',#24,#40,#48,.T.);
#48 = LINE('',#49,#50);
#49 = CARTESIAN_POINT('',(-3.6,2.22E-15,-10.));
#50 = VECTOR('',#51,1.);
#51 = DIRECTION('',(0.,-1.,-2.2E-16));
#52 = PLANE('',#53);
#53 = AXIS2_PLACEMENT_3D('',#54,#55,#56);
#54 = CARTESIAN_POINT('',(-10.,-2.22E-15,-10.));
#55 = DIRECTION('',(0.,2.2E-16,1.));
#56 = DIRECTION('',(1.,0.,0.));
#57 = ADVANCED_FACE('',(#58,#503),#514,.T.);
#58 = FACE_BOUND('',#59,.T.);
#59 = EDGE_LOOP('',(#60,#61,#70,#78,#86,#94,#102,#110,#118,#126,#134,
    #142,#150,#158,#166,#174,#183,#191,#199,#207,#215,#223,#231,#239,
    #247,#255,#263,#271,#279,#287,#296,#304,#312,#320,#328,#336,#344,
    #352,#360,#368,#376,#384,#392,#400,#409,#417,#425,#433,#441,#449,
    #457,#465,#473,#481,#489,#497));
#60 = ORIENTED_EDGE('',*,*,#21,.F.);
#61 = ORIENTED_EDGE('',*,*,#62,.T.);
#62 = EDGE_CURVE('',#22,#63,#65,.T.);
#63 = VERTEX_POINT('',#64);
#64 = CARTESIAN_POINT('',(-10.,-2.E-15,-8.5));
#65 = CIRCLE('',#66,1.5);
#66 = AXIS2_PLACEMENT_3D('',#67,#68,#69);
#67 = CARTESIAN_POINT('',(-8.5,0.,-8.5));
#68 = DIRECTION('',(0.,1.,-2.2E-16));
#69 = DIRECTION('',(0.,-2.2E-16,-1.));
#70 = ORIENTED_EDGE('',*,*,#71,.F.);
#71 = EDGE_CURVE('',#72,#63,#74,.T.);
#72 = VERTEX_POINT('',#73);
#73 = CARTESIAN_POINT('',(-10.,-1.E-15,-3.6));
#74 = LINE('',#75,#76);
#75 = CARTESIAN_POINT('',(-10.,0.,10.));
#76 = VECTOR('',#77,1.);
#77 = DIRECTION('',(0.,0.,-1.));
#78 = ORIENTED_EDGE('',*,*,#79,.F.);
#79 = EDGE_CURVE('',#80,#72,#82,.T.);
#80 = VERTEX_POINT('',#81);
#81 = CARTESIAN_POINT('',(-8.7,-1.E-15,-3.1));
#82 = LINE('',#83,#84);
#83 = CARTESIAN_POINT('',(-8.7,0.,-3.1));
#84 = VECTOR('',#85,1.);
#85 = DIRECTION('',(-0.933345606203,0.,-0.358979079309));
#86 = ORIENTED_EDGE('',*,*,#87,.F.);
#87 = EDGE_CURVE('',#88,#80,#90,.T.);
#88 = VERTEX_POINT('',#89);
#89 = CARTESIAN_POINT('',(-8.2,-1.E-15,-3.1));
#90 = LINE('',#91,#92);
#91 = CARTESIAN_POINT('',(-8.2,0.,-3.1));
#92 = VECTOR('',#93,1.);
#93 = DIRECTION('',(-1.,0.,0.));
#94 = ORIENTED_EDGE('',*,*,#95,.F.);
#95 = EDGE_CURVE('',#96,#88,#98,.T.);
#96 = VERTEX_POINT('',#97);
#97 = CARTESIAN_POINT('',(-8.2,-1.E-15,-5.5));
#98 = LINE('',#99,#100);
#99 = CARTESIAN_POINT('',(-8.2,0.,-5.5));
#100 = VECTOR('',#101,1.);
#101 = DIRECTION('',(0.,0.,1.));
#102 = ORIENTED_EDGE('',*,*,#103,.F.);
#103 = EDGE_CURVE('',#104,#96,#106,.T.);
#104 = VERTEX_POINT('',#105);
#105 = CARTESIAN_POINT('',(-6.3,-1.E-15,-5.5));
#106 = LINE('',#107,#108);
#107 = CARTESIAN_POINT('',(-6.3,0.,-5.5));
#108 = VECTOR('',#109,1.);
#109 = DIRECTION('',(-1.,0.,0.));
#110 = ORIENTED_EDGE('',*,*,#111,.F.);
#111 = EDGE_CURVE('',#112,#104,#114,.T.);
#112 = VERTEX_POINT('',#113);
#113 = CARTESIAN_POINT('',(-3.9,-1.E-15,-3.1));
#114 = LINE('',#115,#116);
#115 = CARTESIAN_POINT('',(-3.9,0.,-3.1));
#116 = VECTOR('',#117,1.);
#117 = DIRECTION('',(-0.707106781187,0.,-0.707106781187));
#118 = ORIENTED_EDGE('',*,*,#119,.F.);
#119 = EDGE_CURVE('',#120,#112,#122,.T.);
#120 = VERTEX_POINT('',#121);
#121 = CARTESIAN_POINT('',(-3.9,1.E-15,3.1));
#122 = LINE('',#123,#124);
#123 = CARTESIAN_POINT('',(-3.9,0.,3.1));
#124 = VECTOR('',#125,1.);
#125 = DIRECTION('',(0.,0.,-1.));
#126 = ORIENTED_EDGE('',*,*,#127,.F.);
#127 = EDGE_CURVE('',#128,#120,#130,.T.);
#128 = VERTEX_POINT('',#129);
#129 = CARTESIAN_POINT('',(-6.3,1.E-15,5.5));
#130 = LINE('',#131,#132);
#131 = CARTESIAN_POINT('',(-6.3,0.,5.5));
#132 = VECTOR('',#133,1.);
#133 = DIRECTION('',(0.707106781187,-0.,-0.707106781187));
#134 = ORIENTED_EDGE('',*,*,#135,.F.);
#135 = EDGE_CURVE('',#136,#128,#138,.T.);
#136 = VERTEX_POINT('',#137);
#137 = CARTESIAN_POINT('',(-8.2,1.E-15,5.5));
#138 = LINE('',#139,#140);
#139 = CARTESIAN_POINT('',(-8.2,0.,5.5));
#140 = VECTOR('',#141,1.);
#141 = DIRECTION('',(1.,0.,0.));
#142 = ORIENTED_EDGE('',*,*,#143,.F.);
#143 = EDGE_CURVE('',#144,#136,#146,.T.);
#144 = VERTEX_POINT('',#145);
#145 = CARTESIAN_POINT('',(-8.2,1.E-15,3.1));
#146 = LINE('',#147,#148);
#147 = CARTESIAN_POINT('',(-8.2,0.,3.1));
#148 = VECTOR('',#149,1.);
#149 = DIRECTION('',(0.,0.,1.));
#150 = ORIENTED_EDGE('',*,*,#151,.F.);
#151 = EDGE_CURVE('',#152,#144,#154,.T.);
#152 = VERTEX_POINT('',#153);
#153 = CARTESIAN_POINT('',(-8.7,1.E-15,3.1));
#154 = LINE('',#155,#156);
#155 = CARTESIAN_POINT('',(-8.7,0.,3.1));
#156 = VECTOR('',#157,1.);
#157 = DIRECTION('',(1.,0.,0.));
#158 = ORIENTED_EDGE('',*,*,#159,.F.);
#159 = EDGE_CURVE('',#160,#152,#162,.T.);
#160 = VERTEX_POINT('',#161);
#161 = CARTESIAN_POINT('',(-10.,1.E-15,3.6));
#162 = LINE('',#163,#164);
#163 = CARTESIAN_POINT('',(-10.,0.,3.6));
#164 = VECTOR('',#165,1.);
#165 = DIRECTION('',(0.933345606203,-0.,-0.358979079309));
#166 = ORIENTED_EDGE('',*,*,#167,.F.);
#167 = EDGE_CURVE('',#168,#160,#170,.T.);
#168 = VERTEX_POINT('',#169);
#169 = CARTESIAN_POINT('',(-10.,2.E-15,8.5));
#170 = LINE('',#171,#172);
#171 = CARTESIAN_POINT('',(-10.,0.,10.));
#172 = VECTOR('',#173,1.);
#173 = DIRECTION('',(0.,0.,-1.));
#174 = ORIENTED_EDGE('',*,*,#175,.F.);
#175 = EDGE_CURVE('',#176,#168,#178,.T.);
#176 = VERTEX_POINT('',#177);
#177 = CARTESIAN_POINT('',(-8.5,2.E-15,10.));
#178 = CIRCLE('',#179,1.5);
#179 = AXIS2_PLACEMENT_3D('',#180,#181,#182);
#180 = CARTESIAN_POINT('',(-8.5,0.,8.5));
#181 = DIRECTION('',(0.,-1.,2.2E-16));
#182 = DIRECTION('',(0.,-2.2E-16,-1.));
#183 = ORIENTED_EDGE('',*,*,#184,.F.);
#184 = EDGE_CURVE('',#185,#176,#187,.T.);
#185 = VERTEX_POINT('',#186);
#186 = CARTESIAN_POINT('',(-3.6,2.E-15,10.));
#187 = LINE('',#188,#189);
#188 = CARTESIAN_POINT('',(10.,0.,10.));
#189 = VECTOR('',#190,1.);
#190 = DIRECTION('',(-1.,0.,0.));
#191 = ORIENTED_EDGE('',*,*,#192,.F.);
#192 = EDGE_CURVE('',#193,#185,#195,.T.);
#193 = VERTEX_POINT('',#194);
#194 = CARTESIAN_POINT('',(-3.1,2.E-15,8.7));
#195 = LINE('',#196,#197);
#196 = CARTESIAN_POINT('',(-3.1,0.,8.7));
#197 = VECTOR('',#198,1.);
#198 = DIRECTION('',(-0.358979079309,0.,0.933345606203));
#199 = ORIENTED_EDGE('',*,*,#200,.F.);
#200 = EDGE_CURVE('',#201,#193,#203,.T.);
#201 = VERTEX_POINT('',#202);
#202 = CARTESIAN_POINT('',(-3.1,2.E-15,8.2));
#203 = LINE('',#204,#205);
#204 = CARTESIAN_POINT('',(-3.1,0.,8.2));
#205 = VECTOR('',#206,1.);
#206 = DIRECTION('',(0.,0.,1.));
#207 = ORIENTED_EDGE('',*,*,#208,.F.);
#208 = EDGE_CURVE('',#209,#201,#211,.T.);
#209 = VERTEX_POINT('',#210);
#210 = CARTESIAN_POINT('',(-5.5,2.E-15,8.2));
#211 = LINE('',#212,#213);
#212 = CARTESIAN_POINT('',(-5.5,0.,8.2));
#213 = VECTOR('',#214,1.);
#214 = DIRECTION('',(1.,0.,0.));
#215 = ORIENTED_EDGE('',*,*,#216,.F.);
#216 = EDGE_CURVE('',#217,#209,#219,.T.);
#217 = VERTEX_POINT('',#218);
#218 = CARTESIAN_POINT('',(-5.5,1.E-15,6.3));
#219 = LINE('',#220,#221);
#220 = CARTESIAN_POINT('',(-5.5,0.,6.3));
#221 = VECTOR('',#222,1.);
#222 = DIRECTION('',(0.,0.,1.));
#223 = ORIENTED_EDGE('',*,*,#224,.F.);
#224 = EDGE_CURVE('',#225,#217,#227,.T.);
#225 = VERTEX_POINT('',#226);
#226 = CARTESIAN_POINT('',(-3.1,1.E-15,3.9));
#227 = LINE('',#228,#229);
#228 = CARTESIAN_POINT('',(-3.1,0.,3.9));
#229 = VECTOR('',#230,1.);
#230 = DIRECTION('',(-0.707106781187,0.,0.707106781187));
#231 = ORIENTED_EDGE('',*,*,#232,.F.);
#232 = EDGE_CURVE('',#233,#225,#235,.T.);
#233 = VERTEX_POINT('',#234);
#234 = CARTESIAN_POINT('',(3.1,1.E-15,3.9));
#235 = LINE('',#236,#237);
#236 = CARTESIAN_POINT('',(3.1,0.,3.9));
#237 = VECTOR('',#238,1.);
#238 = DIRECTION('',(-1.,0.,0.));
#239 = ORIENTED_EDGE('',*,*,#240,.F.);
#240 = EDGE_CURVE('',#241,#233,#243,.T.);
#241 = VERTEX_POINT('',#242);
#242 = CARTESIAN_POINT('',(5.5,1.E-15,6.3));
#243 = LINE('',#244,#245);
#244 = CARTESIAN_POINT('',(5.5,0.,6.3));
#245 = VECTOR('',#246,1.);
#246 = DIRECTION('',(-0.707106781187,-0.,-0.707106781187));
#247 = ORIENTED_EDGE('',*,*,#248,.F.);
#248 = EDGE_CURVE('',#249,#241,#251,.T.);
#249 = VERTEX_POINT('',#250);
#250 = CARTESIAN_POINT('',(5.5,2.E-15,8.2));
#251 = LINE('',#252,#253);
#252 = CARTESIAN_POINT('',(5.5,0.,8.2));
#253 = VECTOR('',#254,1.);
#254 = DIRECTION('',(0.,0.,-1.));
#255 = ORIENTED_EDGE('',*,*,#256,.F.);
#256 = EDGE_CURVE('',#257,#249,#259,.T.);
#257 = VERTEX_POINT('',#258);
#258 = CARTESIAN_POINT('',(3.1,2.E-15,8.2));
#259 = LINE('',#260,#261);
#260 = CARTESIAN_POINT('',(3.1,0.,8.2));
#261 = VECTOR('',#262,1.);
#262 = DIRECTION('',(1.,0.,0.));
#263 = ORIENTED_EDGE('',*,*,#264,.F.);
#264 = EDGE_CURVE('',#265,#257,#267,.T.);
#265 = VERTEX_POINT('',#266);
#266 = CARTESIAN_POINT('',(3.1,2.E-15,8.7));
#267 = LINE('',#268,#269);
#268 = CARTESIAN_POINT('',(3.1,0.,8.7));
#269 = VECTOR('',#270,1.);
#270 = DIRECTION('',(0.,0.,-1.));
#271 = ORIENTED_EDGE('',*,*,#272,.F.);
#272 = EDGE_CURVE('',#273,#265,#275,.T.);
#273 = VERTEX_POINT('',#274);
#274 = CARTESIAN_POINT('',(3.6,2.E-15,10.));
#275 = LINE('',#276,#277);
#276 = CARTESIAN_POINT('',(3.6,0.,10.));
#277 = VECTOR('',#278,1.);
#278 = DIRECTION('',(-0.358979079309,-0.,-0.933345606203));
#279 = ORIENTED_EDGE('',*,*,#280,.F.);
#280 = EDGE_CURVE('',#281,#273,#283,.T.);
#281 = VERTEX_POINT('',#282);
#282 = CARTESIAN_POINT('',(8.5,2.E-15,10.));
#283 = LINE('',#284,#285);
#284 = CARTESIAN_POINT('',(10.,0.,10.));
#285 = VECTOR('',#286,1.);
#286 = DIRECTION('',(-1.,0.,0.));
#287 = ORIENTED_EDGE('',*,*,#288,.F.);
#288 = EDGE_CURVE('',#289,#281,#291,.T.);
#289 = VERTEX_POINT('',#290);
#290 = CARTESIAN_POINT('',(10.,2.E-15,8.5));
#291 = CIRCLE('',#292,1.5);
#292 = AXIS2_PLACEMENT_3D('',#293,#294,#295);
#293 = CARTESIAN_POINT('',(8.5,0.,8.5));
#294 = DIRECTION('',(0.,-1.,2.2E-16));
#295 = DIRECTION('',(0.,-2.2E-16,-1.));
#296 = ORIENTED_EDGE('',*,*,#297,.F.);
#297 = EDGE_CURVE('',#298,#289,#300,.T.);
#298 = VERTEX_POINT('',#299);
#299 = CARTESIAN_POINT('',(10.,1.E-15,3.6));
#300 = LINE('',#301,#302);
#301 = CARTESIAN_POINT('',(10.,0.,-10.));
#302 = VECTOR('',#303,1.);
#303 = DIRECTION('',(0.,0.,1.));
#304 = ORIENTED_EDGE('',*,*,#305,.F.);
#305 = EDGE_CURVE('',#306,#298,#308,.T.);
#306 = VERTEX_POINT('',#307);
#307 = CARTESIAN_POINT('',(8.7,1.E-15,3.1));
#308 = LINE('',#309,#310);
#309 = CARTESIAN_POINT('',(8.7,0.,3.1));
#310 = VECTOR('',#311,1.);
#311 = DIRECTION('',(0.933345606203,0.,0.358979079309));
#312 = ORIENTED_EDGE('',*,*,#313,.F.);
#313 = EDGE_CURVE('',#314,#306,#316,.T.);
#314 = VERTEX_POINT('',#315);
#315 = CARTESIAN_POINT('',(8.2,1.E-15,3.1));
#316 = LINE('',#317,#318);
#317 = CARTESIAN_POINT('',(8.2,0.,3.1));
#318 = VECTOR('',#319,1.);
#319 = DIRECTION('',(1.,0.,0.));
#320 = ORIENTED_EDGE('',*,*,#321,.F.);
#321 = EDGE_CURVE('',#322,#314,#324,.T.);
#322 = VERTEX_POINT('',#323);
#323 = CARTESIAN_POINT('',(8.2,1.E-15,5.5));
#324 = LINE('',#325,#326);
#325 = CARTESIAN_POINT('',(8.2,0.,5.5));
#326 = VECTOR('',#327,1.);
#327 = DIRECTION('',(0.,0.,-1.));
#328 = ORIENTED_EDGE('',*,*,#329,.F.);
#329 = EDGE_CURVE('',#330,#322,#332,.T.);
#330 = VERTEX_POINT('',#331);
#331 = CARTESIAN_POINT('',(6.3,1.E-15,5.5));
#332 = LINE('',#333,#334);
#333 = CARTESIAN_POINT('',(6.3,0.,5.5));
#334 = VECTOR('',#335,1.);
#335 = DIRECTION('',(1.,0.,0.));
#336 = ORIENTED_EDGE('',*,*,#337,.F.);
#337 = EDGE_CURVE('',#338,#330,#340,.T.);
#338 = VERTEX_POINT('',#339);
#339 = CARTESIAN_POINT('',(3.9,1.E-15,3.1));
#340 = LINE('',#341,#342);
#341 = CARTESIAN_POINT('',(3.9,0.,3.1));
#342 = VECTOR('',#343,1.);
#343 = DIRECTION('',(0.707106781187,0.,0.707106781187));
#344 = ORIENTED_EDGE('',*,*,#345,.F.);
#345 = EDGE_CURVE('',#346,#338,#348,.T.);
#346 = VERTEX_POINT('',#347);
#347 = CARTESIAN_POINT('',(3.9,-1.E-15,-3.1));
#348 = LINE('',#349,#350);
#349 = CARTESIAN_POINT('',(3.9,0.,-3.1));
#350 = VECTOR('',#351,1.);
#351 = DIRECTION('',(0.,-0.,1.));
#352 = ORIENTED_EDGE('',*,*,#353,.F.);
#353 = EDGE_CURVE('',#354,#346,#356,.T.);
#354 = VERTEX_POINT('',#355);
#355 = CARTESIAN_POINT('',(6.3,-1.E-15,-5.5));
#356 = LINE('',#357,#358);
#357 = CARTESIAN_POINT('',(6.3,0.,-5.5));
#358 = VECTOR('',#359,1.);
#359 = DIRECTION('',(-0.707106781187,-0.,0.707106781187));
#360 = ORIENTED_EDGE('',*,*,#361,.F.);
#361 = EDGE_CURVE('',#362,#354,#364,.T.);
#362 = VERTEX_POINT('',#363);
#363 = CARTESIAN_POINT('',(8.2,-1.E-15,-5.5));
#364 = LINE('',#365,#366);
#365 = CARTESIAN_POINT('',(8.2,0.,-5.5));
#366 = VECTOR('',#367,1.);
#367 = DIRECTION('',(-1.,-0.,0.));
#368 = ORIENTED_EDGE('',*,*,#369,.F.);
#369 = EDGE_CURVE('',#370,#362,#372,.T.);
#370 = VERTEX_POINT('',#371);
#371 = CARTESIAN_POINT('',(8.2,-1.E-15,-3.1));
#372 = LINE('',#373,#374);
#373 = CARTESIAN_POINT('',(8.2,0.,-3.1));
#374 = VECTOR('',#375,1.);
#375 = DIRECTION('',(0.,0.,-1.));
#376 = ORIENTED_EDGE('',*,*,#377,.F.);
#377 = EDGE_CURVE('',#378,#370,#380,.T.);
#378 = VERTEX_POINT('',#379);
#379 = CARTESIAN_POINT('',(8.7,-1.E-15,-3.1));
#380 = LINE('',#381,#382);
#381 = CARTESIAN_POINT('',(8.7,0.,-3.1));
#382 = VECTOR('',#383,1.);
#383 = DIRECTION('',(-1.,-0.,0.));
#384 = ORIENTED_EDGE('',*,*,#385,.F.);
#385 = EDGE_CURVE('',#386,#378,#388,.T.);
#386 = VERTEX_POINT('',#387);
#387 = CARTESIAN_POINT('',(10.,-1.E-15,-3.6));
#388 = LINE('',#389,#390);
#389 = CARTESIAN_POINT('',(10.,0.,-3.6));
#390 = VECTOR('',#391,1.);
#391 = DIRECTION('',(-0.933345606203,-0.,0.358979079309));
#392 = ORIENTED_EDGE('',*,*,#393,.F.);
#393 = EDGE_CURVE('',#394,#386,#396,.T.);
#394 = VERTEX_POINT('',#395);
#395 = CARTESIAN_POINT('',(10.,-2.E-15,-8.5));
#396 = LINE('',#397,#398);
#397 = CARTESIAN_POINT('',(10.,0.,-10.));
#398 = VECTOR('',#399,1.);
#399 = DIRECTION('',(0.,0.,1.));
#400 = ORIENTED_EDGE('',*,*,#401,.F.);
#401 = EDGE_CURVE('',#402,#394,#404,.T.);
#402 = VERTEX_POINT('',#403);
#403 = CARTESIAN_POINT('',(8.5,-2.E-15,-10.));
#404 = CIRCLE('',#405,1.5);
#405 = AXIS2_PLACEMENT_3D('',#406,#407,#408);
#406 = CARTESIAN_POINT('',(8.5,0.,-8.5));
#407 = DIRECTION('',(0.,-1.,2.2E-16));
#408 = DIRECTION('',(0.,-2.2E-16,-1.));
#409 = ORIENTED_EDGE('',*,*,#410,.F.);
#410 = EDGE_CURVE('',#411,#402,#413,.T.);
#411 = VERTEX_POINT('',#412);
#412 = CARTESIAN_POINT('',(3.6,-2.E-15,-10.));
#413 = LINE('',#414,#415);
#414 = CARTESIAN_POINT('',(-10.,0.,-10.));
#415 = VECTOR('',#416,1.);
#416 = DIRECTION('',(1.,0.,0.));
#417 = ORIENTED_EDGE('',*,*,#418,.F.);
#418 = EDGE_CURVE('',#419,#411,#421,.T.);
#419 = VERTEX_POINT('',#420);
#420 = CARTESIAN_POINT('',(3.1,-2.E-15,-8.7));
#421 = LINE('',#422,#423);
#422 = CARTESIAN_POINT('',(3.1,0.,-8.7));
#423 = VECTOR('',#424,1.);
#424 = DIRECTION('',(0.358979079309,0.,-0.933345606203));
#425 = ORIENTED_EDGE('',*,*,#426,.F.);
#426 = EDGE_CURVE('',#427,#419,#429,.T.);
#427 = VERTEX_POINT('',#428);
#428 = CARTESIAN_POINT('',(3.1,-2.E-15,-8.2));
#429 = LINE('',#430,#431);
#430 = CARTESIAN_POINT('',(3.1,0.,-8.2));
#431 = VECTOR('',#432,1.);
#432 = DIRECTION('',(0.,0.,-1.));
#433 = ORIENTED_EDGE('',*,*,#434,.F.);
#434 = EDGE_CURVE('',#435,#427,#437,.T.);
#435 = VERTEX_POINT('',#436);
#436 = CARTESIAN_POINT('',(5.5,-2.E-15,-8.2));
#437 = LINE('',#438,#439);
#438 = CARTESIAN_POINT('',(5.5,0.,-8.2));
#439 = VECTOR('',#440,1.);
#440 = DIRECTION('',(-1.,0.,0.));
#441 = ORIENTED_EDGE('',*,*,#442,.F.);
#442 = EDGE_CURVE('',#443,#435,#445,.T.);
#443 = VERTEX_POINT('',#444);
#444 = CARTESIAN_POINT('',(5.5,-1.E-15,-6.3));
#445 = LINE('',#446,#447);
#446 = CARTESIAN_POINT('',(5.5,0.,-6.3));
#447 = VECTOR('',#448,1.);
#448 = DIRECTION('',(0.,0.,-1.));
#449 = ORIENTED_EDGE('',*,*,#450,.F.);
#450 = EDGE_CURVE('',#451,#443,#453,.T.);
#451 = VERTEX_POINT('',#452);
#452 = CARTESIAN_POINT('',(3.1,-1.E-15,-3.9));
#453 = LINE('',#454,#455);
#454 = CARTESIAN_POINT('',(3.1,0.,-3.9));
#455 = VECTOR('',#456,1.);
#456 = DIRECTION('',(0.707106781187,0.,-0.707106781187));
#457 = ORIENTED_EDGE('',*,*,#458,.F.);
#458 = EDGE_CURVE('',#459,#451,#461,.T.);
#459 = VERTEX_POINT('',#460);
#460 = CARTESIAN_POINT('',(-3.1,-1.E-15,-3.9));
#461 = LINE('',#462,#463);
#462 = CARTESIAN_POINT('',(-3.1,0.,-3.9));
#463 = VECTOR('',#464,1.);
#464 = DIRECTION('',(1.,0.,0.));
#465 = ORIENTED_EDGE('',*,*,#466,.F.);
#466 = EDGE_CURVE('',#467,#459,#469,.T.);
#467 = VERTEX_POINT('',#468);
#468 = CARTESIAN_POINT('',(-5.5,-1.E-15,-6.3));
#469 = LINE('',#470,#471);
#470 = CARTESIAN_POINT('',(-5.5,0.,-6.3));
#471 = VECTOR('',#472,1.);
#472 = DIRECTION('',(0.707106781187,-0.,0.707106781187));
#473 = ORIENTED_EDGE('',*,*,#474,.F.);
#474 = EDGE_CURVE('',#475,#467,#477,.T.);
#475 = VERTEX_POINT('',#476);
#476 = CARTESIAN_POINT('',(-5.5,-2.E-15,-8.2));
#477 = LINE('',#478,#479);
#478 = CARTESIAN_POINT('',(-5.5,0.,-8.2));
#479 = VECTOR('',#480,1.);
#480 = DIRECTION('',(0.,0.,1.));
#481 = ORIENTED_EDGE('',*,*,#482,.F.);
#482 = EDGE_CURVE('',#483,#475,#485,.T.);
#483 = VERTEX_POINT('',#484);
#484 = CARTESIAN_POINT('',(-3.1,-2.E-15,-8.2));
#485 = LINE('',#486,#487);
#486 = CARTESIAN_POINT('',(-3.1,0.,-8.2));
#487 = VECTOR('',#488,1.);
#488 = DIRECTION('',(-1.,0.,0.));
#489 = ORIENTED_EDGE('',*,*,#490,.F.);
#490 = EDGE_CURVE('',#491,#483,#493,.T.);
#491 = VERTEX_POINT('',#492);
#492 = CARTESIAN_POINT('',(-3.1,-2.E-15,-8.7));
#493 = LINE('',#494,#495);
#494 = CARTESIAN_POINT('',(-3.1,0.,-8.7));
#495 = VECTOR('',#496,1.);
#496 = DIRECTION('',(0.,0.,1.));
#497 = ORIENTED_EDGE('',*,*,#498,.F.);
#498 = EDGE_CURVE('',#24,#491,#499,.T.);
#499 = LINE('',#500,#501);
#500 = CARTESIAN_POINT('',(-3.6,0.,-10.));
#501 = VECTOR('',#502,1.);
#502 = DIRECTION('',(0.358979079309,-0.,0.933345606203));
#503 = FACE_BOUND('',#504,.T.);
#504 = EDGE_LOOP('',(#505));
#505 = ORIENTED_EDGE('',*,*,#506,.T.);
#506 = EDGE_CURVE('',#507,#507,#509,.T.);
#507 = VERTEX_POINT('',#508);
#508 = CARTESIAN_POINT('',(2.5,0.,0.));
#509 = CIRCLE('',#510,2.5);
#510 = AXIS2_PLACEMENT_3D('',#511,#512,#513);
#511 = CARTESIAN_POINT('',(0.,0.,-2.E-16));
#512 = DIRECTION('',(0.,-1.,0.));
#513 = DIRECTION('',(1.,0.,0.));
#514 = PLANE('',#515);
#515 = AXIS2_PLACEMENT_3D('',#516,#517,#518);
#516 = CARTESIAN_POINT('',(0.,0.,0.));
#517 = DIRECTION('',(0.,1.,0.));
#518 = DIRECTION('',(0.,0.,1.));
#519 = ADVANCED_FACE('',(#520),#539,.T.);
#520 = FACE_BOUND('',#521,.F.);
#521 = EDGE_LOOP('',(#522,#523,#531,#538));
#522 = ORIENTED_EDGE('',*,*,#62,.T.);
#523 = ORIENTED_EDGE('',*,*,#524,.T.);
#524 = EDGE_CURVE('',#63,#525,#527,.T.);
#525 = VERTEX_POINT('',#526);
#526 = CARTESIAN_POINT('',(-10.,-100.,-8.5));
#527 = LINE('',#528,#529);
#528 = CARTESIAN_POINT('',(-10.,-1.89E-15,-8.5));
#529 = VECTOR('',#530,1.);
#530 = DIRECTION('',(0.,-1.,2.2E-16));
#531 = ORIENTED_EDGE('',*,*,#532,.F.);
#532 = EDGE_CURVE('',#32,#525,#533,.T.);
#533 = CIRCLE('',#534,1.5);
#534 = AXIS2_PLACEMENT_3D('',#535,#536,#537);
#535 = CARTESIAN_POINT('',(-8.5,-100.,-8.5));
#536 = DIRECTION('',(0.,1.,-2.2E-16));
#537 = DIRECTION('',(0.,-2.2E-16,-1.));
#538 = ORIENTED_EDGE('',*,*,#31,.F.);
#539 = CYLINDRICAL_SURFACE('',#540,1.5);
#540 = AXIS2_PLACEMENT_3D('',#541,#542,#543);
#541 = CARTESIAN_POINT('',(-8.5,-1.89E-15,-8.5));
#542 = DIRECTION('',(0.,-1.,2.2E-16));
#543 = DIRECTION('',(0.,-2.2E-16,-1.));
#544 = ADVANCED_FACE('',(#545),#563,.F.);
#545 = FACE_BOUND('',#546,.F.);
#546 = EDGE_LOOP('',(#547,#548,#549,#557));
#547 = ORIENTED_EDGE('',*,*,#498,.F.);
#548 = ORIENTED_EDGE('',*,*,#47,.T.);
#549 = ORIENTED_EDGE('',*,*,#550,.T.);
#550 = EDGE_CURVE('',#40,#551,#553,.T.);
#551 = VERTEX_POINT('',#552);
#552 = CARTESIAN_POINT('',(-3.1,-100.,-8.7));
#553 = LINE('',#554,#555);
#554 = CARTESIAN_POINT('',(-1.692783505155,-100.,-5.041237113402));
#555 = VECTOR('',#556,1.);
#556 = DIRECTION('',(0.358979079309,0.,0.933345606203));
#557 = ORIENTED_EDGE('',*,*,#558,.F.);
#558 = EDGE_CURVE('',#491,#551,#559,.T.);
#559 = LINE('',#560,#561);
#560 = CARTESIAN_POINT('',(-3.1,1.93E-15,-8.7));
#561 = VECTOR('',#562,1.);
#562 = DIRECTION('',(0.,-1.,-2.2E-16));
#563 = PLANE('',#564);
#564 = AXIS2_PLACEMENT_3D('',#565,#566,#567);
#565 = CARTESIAN_POINT('',(-3.6,2.22E-15,-10.));
#566 = DIRECTION('',(-0.933345606203,-8.E-17,0.358979079309));
#567 = DIRECTION('',(0.358979079309,-2.1E-16,0.933345606203));
#568 = ADVANCED_FACE('',(#569,#999),#1010,.F.);
#569 = FACE_BOUND('',#570,.F.);
#570 = EDGE_LOOP('',(#571,#572,#573,#581,#589,#597,#605,#613,#621,#629,
    #637,#645,#653,#661,#669,#677,#686,#694,#702,#710,#718,#726,#734,
    #742,#750,#758,#766,#774,#782,#790,#799,#807,#815,#823,#831,#839,
    #847,#855,#863,#871,#879,#887,#895,#903,#912,#920,#928,#936,#944,
    #952,#960,#968,#976,#984,#992,#998));
#571 = ORIENTED_EDGE('',*,*,#39,.F.);
#572 = ORIENTED_EDGE('',*,*,#532,.T.);
#573 = ORIENTED_EDGE('',*,*,#574,.F.);
#574 = EDGE_CURVE('',#575,#525,#577,.T.);
#575 = VERTEX_POINT('',#576);
#576 = CARTESIAN_POINT('',(-10.,-100.,-3.6));
#577 = LINE('',#578,#579);
#578 = CARTESIAN_POINT('',(-10.,-100.,10.));
#579 = VECTOR('',#580,1.);
#580 = DIRECTION('',(0.,0.,-1.));
#581 = ORIENTED_EDGE('',*,*,#582,.F.);
#582 = EDGE_CURVE('',#583,#575,#585,.T.);
#583 = VERTEX_POINT('',#584);
#584 = CARTESIAN_POINT('',(-8.7,-100.,-3.1));
#585 = LINE('',#586,#587);
#586 = CARTESIAN_POINT('',(-4.391237113402,-100.,-1.442783505155));
#587 = VECTOR('',#588,1.);
#588 = DIRECTION('',(-0.933345606203,0.,-0.358979079309));
#589 = ORIENTED_EDGE('',*,*,#590,.F.);
#590 = EDGE_CURVE('',#591,#583,#593,.T.);
#591 = VERTEX_POINT('',#592);
#592 = CARTESIAN_POINT('',(-8.2,-100.,-3.1));
#593 = LINE('',#594,#595);
#594 = CARTESIAN_POINT('',(-4.1,-100.,-3.1));
#595 = VECTOR('',#596,1.);
#596 = DIRECTION('',(-1.,0.,1.1E-16));
#597 = ORIENTED_EDGE('',*,*,#598,.F.);
#598 = EDGE_CURVE('',#599,#591,#601,.T.);
#599 = VERTEX_POINT('',#600);
#600 = CARTESIAN_POINT('',(-8.2,-100.,-5.5));
#601 = LINE('',#602,#603);
#602 = CARTESIAN_POINT('',(-8.2,-100.,-2.75));
#603 = VECTOR('',#604,1.);
#604 = DIRECTION('',(1.1E-16,0.,1.));
#605 = ORIENTED_EDGE('',*,*,#606,.F.);
#606 = EDGE_CURVE('',#607,#599,#609,.T.);
#607 = VERTEX_POINT('',#608);
#608 = CARTESIAN_POINT('',(-6.3,-100.,-5.5));
#609 = LINE('',#610,#611);
#610 = CARTESIAN_POINT('',(-3.15,-100.,-5.5));
#611 = VECTOR('',#612,1.);
#612 = DIRECTION('',(-1.,0.,1.1E-16));
#613 = ORIENTED_EDGE('',*,*,#614,.F.);
#614 = EDGE_CURVE('',#615,#607,#617,.T.);
#615 = VERTEX_POINT('',#616);
#616 = CARTESIAN_POINT('',(-3.9,-100.,-3.1));
#617 = LINE('',#618,#619);
#618 = CARTESIAN_POINT('',(-2.15,-100.,-1.35));
#619 = VECTOR('',#620,1.);
#620 = DIRECTION('',(-0.707106781187,0.,-0.707106781187));
#621 = ORIENTED_EDGE('',*,*,#622,.F.);
#622 = EDGE_CURVE('',#623,#615,#625,.T.);
#623 = VERTEX_POINT('',#624);
#624 = CARTESIAN_POINT('',(-3.9,-100.,3.1));
#625 = LINE('',#626,#627);
#626 = CARTESIAN_POINT('',(-3.9,-100.,1.55));
#627 = VECTOR('',#628,1.);
#628 = DIRECTION('',(-1.1E-16,0.,-1.));
#629 = ORIENTED_EDGE('',*,*,#630,.F.);
#630 = EDGE_CURVE('',#631,#623,#633,.T.);
#631 = VERTEX_POINT('',#632);
#632 = CARTESIAN_POINT('',(-6.3,-100.,5.5));
#633 = LINE('',#634,#635);
#634 = CARTESIAN_POINT('',(-3.35,-100.,2.55));
#635 = VECTOR('',#636,1.);
#636 = DIRECTION('',(0.707106781187,0.,-0.707106781187));
#637 = ORIENTED_EDGE('',*,*,#638,.F.);
#638 = EDGE_CURVE('',#639,#631,#641,.T.);
#639 = VERTEX_POINT('',#640);
#640 = CARTESIAN_POINT('',(-8.2,-100.,5.5));
#641 = LINE('',#642,#643);
#642 = CARTESIAN_POINT('',(-4.1,-100.,5.5));
#643 = VECTOR('',#644,1.);
#644 = DIRECTION('',(1.,0.,-1.1E-16));
#645 = ORIENTED_EDGE('',*,*,#646,.F.);
#646 = EDGE_CURVE('',#647,#639,#649,.T.);
#647 = VERTEX_POINT('',#648);
#648 = CARTESIAN_POINT('',(-8.2,-100.,3.1));
#649 = LINE('',#650,#651);
#650 = CARTESIAN_POINT('',(-8.2,-100.,1.55));
#651 = VECTOR('',#652,1.);
#652 = DIRECTION('',(1.1E-16,0.,1.));
#653 = ORIENTED_EDGE('',*,*,#654,.F.);
#654 = EDGE_CURVE('',#655,#647,#657,.T.);
#655 = VERTEX_POINT('',#656);
#656 = CARTESIAN_POINT('',(-8.7,-100.,3.1));
#657 = LINE('',#658,#659);
#658 = CARTESIAN_POINT('',(-4.35,-100.,3.1));
#659 = VECTOR('',#660,1.);
#660 = DIRECTION('',(1.,0.,-1.1E-16));
#661 = ORIENTED_EDGE('',*,*,#662,.F.);
#662 = EDGE_CURVE('',#663,#655,#665,.T.);
#663 = VERTEX_POINT('',#664);
#664 = CARTESIAN_POINT('',(-10.,-100.,3.6));
#665 = LINE('',#666,#667);
#666 = CARTESIAN_POINT('',(-5.041237113402,-100.,1.692783505155));
#667 = VECTOR('',#668,1.);
#668 = DIRECTION('',(0.933345606203,0.,-0.358979079309));
#669 = ORIENTED_EDGE('',*,*,#670,.F.);
#670 = EDGE_CURVE('',#671,#663,#673,.T.);
#671 = VERTEX_POINT('',#672);
#672 = CARTESIAN_POINT('',(-10.,-100.,8.5));
#673 = LINE('',#674,#675);
#674 = CARTESIAN_POINT('',(-10.,-100.,10.));
#675 = VECTOR('',#676,1.);
#676 = DIRECTION('',(0.,0.,-1.));
#677 = ORIENTED_EDGE('',*,*,#678,.F.);
#678 = EDGE_CURVE('',#679,#671,#681,.T.);
#679 = VERTEX_POINT('',#680);
#680 = CARTESIAN_POINT('',(-8.5,-100.,10.));
#681 = CIRCLE('',#682,1.5);
#682 = AXIS2_PLACEMENT_3D('',#683,#684,#685);
#683 = CARTESIAN_POINT('',(-8.5,-100.,8.5));
#684 = DIRECTION('',(0.,-1.,2.2E-16));
#685 = DIRECTION('',(0.,-2.2E-16,-1.));
#686 = ORIENTED_EDGE('',*,*,#687,.F.);
#687 = EDGE_CURVE('',#688,#679,#690,.T.);
#688 = VERTEX_POINT('',#689);
#689 = CARTESIAN_POINT('',(-3.6,-100.,10.));
#690 = LINE('',#691,#692);
#691 = CARTESIAN_POINT('',(10.,-100.,10.));
#692 = VECTOR('',#693,1.);
#693 = DIRECTION('',(-1.,0.,0.));
#694 = ORIENTED_EDGE('',*,*,#695,.F.);
#695 = EDGE_CURVE('',#696,#688,#698,.T.);
#696 = VERTEX_POINT('',#697);
#697 = CARTESIAN_POINT('',(-3.1,-100.,8.7));
#698 = LINE('',#699,#700);
#699 = CARTESIAN_POINT('',(-1.442783505155,-100.,4.391237113402));
#700 = VECTOR('',#701,1.);
#701 = DIRECTION('',(-0.358979079309,0.,0.933345606203));
#702 = ORIENTED_EDGE('',*,*,#703,.F.);
#703 = EDGE_CURVE('',#704,#696,#706,.T.);
#704 = VERTEX_POINT('',#705);
#705 = CARTESIAN_POINT('',(-3.1,-100.,8.2));
#706 = LINE('',#707,#708);
#707 = CARTESIAN_POINT('',(-3.1,-100.,4.1));
#708 = VECTOR('',#709,1.);
#709 = DIRECTION('',(0.,0.,1.));
#710 = ORIENTED_EDGE('',*,*,#711,.F.);
#711 = EDGE_CURVE('',#712,#704,#714,.T.);
#712 = VERTEX_POINT('',#713);
#713 = CARTESIAN_POINT('',(-5.5,-100.,8.2));
#714 = LINE('',#715,#716);
#715 = CARTESIAN_POINT('',(-2.75,-100.,8.2));
#716 = VECTOR('',#717,1.);
#717 = DIRECTION('',(1.,0.,0.));
#718 = ORIENTED_EDGE('',*,*,#719,.F.);
#719 = EDGE_CURVE('',#720,#712,#722,.T.);
#720 = VERTEX_POINT('',#721);
#721 = CARTESIAN_POINT('',(-5.5,-100.,6.3));
#722 = LINE('',#723,#724);
#723 = CARTESIAN_POINT('',(-5.5,-100.,3.15));
#724 = VECTOR('',#725,1.);
#725 = DIRECTION('',(0.,0.,1.));
#726 = ORIENTED_EDGE('',*,*,#727,.F.);
#727 = EDGE_CURVE('',#728,#720,#730,.T.);
#728 = VERTEX_POINT('',#729);
#729 = CARTESIAN_POINT('',(-3.1,-100.,3.9));
#730 = LINE('',#731,#732);
#731 = CARTESIAN_POINT('',(-1.35,-100.,2.15));
#732 = VECTOR('',#733,1.);
#733 = DIRECTION('',(-0.707106781187,0.,0.707106781187));
#734 = ORIENTED_EDGE('',*,*,#735,.F.);
#735 = EDGE_CURVE('',#736,#728,#738,.T.);
#736 = VERTEX_POINT('',#737);
#737 = CARTESIAN_POINT('',(3.1,-100.,3.9));
#738 = LINE('',#739,#740);
#739 = CARTESIAN_POINT('',(1.55,-100.,3.9));
#740 = VECTOR('',#741,1.);
#741 = DIRECTION('',(-1.,0.,0.));
#742 = ORIENTED_EDGE('',*,*,#743,.F.);
#743 = EDGE_CURVE('',#744,#736,#746,.T.);
#744 = VERTEX_POINT('',#745);
#745 = CARTESIAN_POINT('',(5.5,-100.,6.3));
#746 = LINE('',#747,#748);
#747 = CARTESIAN_POINT('',(2.55,-100.,3.35));
#748 = VECTOR('',#749,1.);
#749 = DIRECTION('',(-0.707106781187,0.,-0.707106781187));
#750 = ORIENTED_EDGE('',*,*,#751,.F.);
#751 = EDGE_CURVE('',#752,#744,#754,.T.);
#752 = VERTEX_POINT('',#753);
#753 = CARTESIAN_POINT('',(5.5,-100.,8.2));
#754 = LINE('',#755,#756);
#755 = CARTESIAN_POINT('',(5.5,-100.,4.1));
#756 = VECTOR('',#757,1.);
#757 = DIRECTION('',(0.,0.,-1.));
#758 = ORIENTED_EDGE('',*,*,#759,.F.);
#759 = EDGE_CURVE('',#760,#752,#762,.T.);
#760 = VERTEX_POINT('',#761);
#761 = CARTESIAN_POINT('',(3.1,-100.,8.2));
#762 = LINE('',#763,#764);
#763 = CARTESIAN_POINT('',(1.55,-100.,8.2));
#764 = VECTOR('',#765,1.);
#765 = DIRECTION('',(1.,0.,0.));
#766 = ORIENTED_EDGE('',*,*,#767,.F.);
#767 = EDGE_CURVE('',#768,#760,#770,.T.);
#768 = VERTEX_POINT('',#769);
#769 = CARTESIAN_POINT('',(3.1,-100.,8.7));
#770 = LINE('',#771,#772);
#771 = CARTESIAN_POINT('',(3.1,-100.,4.35));
#772 = VECTOR('',#773,1.);
#773 = DIRECTION('',(0.,0.,-1.));
#774 = ORIENTED_EDGE('',*,*,#775,.F.);
#775 = EDGE_CURVE('',#776,#768,#778,.T.);
#776 = VERTEX_POINT('',#777);
#777 = CARTESIAN_POINT('',(3.6,-100.,10.));
#778 = LINE('',#779,#780);
#779 = CARTESIAN_POINT('',(1.692783505155,-100.,5.041237113402));
#780 = VECTOR('',#781,1.);
#781 = DIRECTION('',(-0.358979079309,0.,-0.933345606203));
#782 = ORIENTED_EDGE('',*,*,#783,.F.);
#783 = EDGE_CURVE('',#784,#776,#786,.T.);
#784 = VERTEX_POINT('',#785);
#785 = CARTESIAN_POINT('',(8.5,-100.,10.));
#786 = LINE('',#787,#788);
#787 = CARTESIAN_POINT('',(10.,-100.,10.));
#788 = VECTOR('',#789,1.);
#789 = DIRECTION('',(-1.,0.,0.));
#790 = ORIENTED_EDGE('',*,*,#791,.F.);
#791 = EDGE_CURVE('',#792,#784,#794,.T.);
#792 = VERTEX_POINT('',#793);
#793 = CARTESIAN_POINT('',(10.,-100.,8.5));
#794 = CIRCLE('',#795,1.5);
#795 = AXIS2_PLACEMENT_3D('',#796,#797,#798);
#796 = CARTESIAN_POINT('',(8.5,-100.,8.5));
#797 = DIRECTION('',(0.,-1.,2.2E-16));
#798 = DIRECTION('',(0.,-2.2E-16,-1.));
#799 = ORIENTED_EDGE('',*,*,#800,.F.);
#800 = EDGE_CURVE('',#801,#792,#803,.T.);
#801 = VERTEX_POINT('',#802);
#802 = CARTESIAN_POINT('',(10.,-100.,3.6));
#803 = LINE('',#804,#805);
#804 = CARTESIAN_POINT('',(10.,-100.,-10.));
#805 = VECTOR('',#806,1.);
#806 = DIRECTION('',(0.,0.,1.));
#807 = ORIENTED_EDGE('',*,*,#808,.F.);
#808 = EDGE_CURVE('',#809,#801,#811,.T.);
#809 = VERTEX_POINT('',#810);
#810 = CARTESIAN_POINT('',(8.7,-100.,3.1));
#811 = LINE('',#812,#813);
#812 = CARTESIAN_POINT('',(4.391237113402,-100.,1.442783505155));
#813 = VECTOR('',#814,1.);
#814 = DIRECTION('',(0.933345606203,0.,0.358979079309));
#815 = ORIENTED_EDGE('',*,*,#816,.F.);
#816 = EDGE_CURVE('',#817,#809,#819,.T.);
#817 = VERTEX_POINT('',#818);
#818 = CARTESIAN_POINT('',(8.2,-100.,3.1));
#819 = LINE('',#820,#821);
#820 = CARTESIAN_POINT('',(4.1,-100.,3.1));
#821 = VECTOR('',#822,1.);
#822 = DIRECTION('',(1.,0.,-2.2E-16));
#823 = ORIENTED_EDGE('',*,*,#824,.F.);
#824 = EDGE_CURVE('',#825,#817,#827,.T.);
#825 = VERTEX_POINT('',#826);
#826 = CARTESIAN_POINT('',(8.2,-100.,5.5));
#827 = LINE('',#828,#829);
#828 = CARTESIAN_POINT('',(8.2,-100.,2.75));
#829 = VECTOR('',#830,1.);
#830 = DIRECTION('',(-2.2E-16,0.,-1.));
#831 = ORIENTED_EDGE('',*,*,#832,.F.);
#832 = EDGE_CURVE('',#833,#825,#835,.T.);
#833 = VERTEX_POINT('',#834);
#834 = CARTESIAN_POINT('',(6.3,-100.,5.5));
#835 = LINE('',#836,#837);
#836 = CARTESIAN_POINT('',(3.15,-100.,5.5));
#837 = VECTOR('',#838,1.);
#838 = DIRECTION('',(1.,0.,-2.2E-16));
#839 = ORIENTED_EDGE('',*,*,#840,.F.);
#840 = EDGE_CURVE('',#841,#833,#843,.T.);
#841 = VERTEX_POINT('',#842);
#842 = CARTESIAN_POINT('',(3.9,-100.,3.1));
#843 = LINE('',#844,#845);
#844 = CARTESIAN_POINT('',(2.15,-100.,1.35));
#845 = VECTOR('',#846,1.);
#846 = DIRECTION('',(0.707106781187,0.,0.707106781187));
#847 = ORIENTED_EDGE('',*,*,#848,.F.);
#848 = EDGE_CURVE('',#849,#841,#851,.T.);
#849 = VERTEX_POINT('',#850);
#850 = CARTESIAN_POINT('',(3.9,-100.,-3.1));
#851 = LINE('',#852,#853);
#852 = CARTESIAN_POINT('',(3.9,-100.,-1.55));
#853 = VECTOR('',#854,1.);
#854 = DIRECTION('',(2.2E-16,0.,1.));
#855 = ORIENTED_EDGE('',*,*,#856,.F.);
#856 = EDGE_CURVE('',#857,#849,#859,.T.);
#857 = VERTEX_POINT('',#858);
#858 = CARTESIAN_POINT('',(6.3,-100.,-5.5));
#859 = LINE('',#860,#861);
#860 = CARTESIAN_POINT('',(3.35,-100.,-2.55));
#861 = VECTOR('',#862,1.);
#862 = DIRECTION('',(-0.707106781187,0.,0.707106781187));
#863 = ORIENTED_EDGE('',*,*,#864,.F.);
#864 = EDGE_CURVE('',#865,#857,#867,.T.);
#865 = VERTEX_POINT('',#866);
#866 = CARTESIAN_POINT('',(8.2,-100.,-5.5));
#867 = LINE('',#868,#869);
#868 = CARTESIAN_POINT('',(4.1,-100.,-5.5));
#869 = VECTOR('',#870,1.);
#870 = DIRECTION('',(-1.,0.,2.2E-16));
#871 = ORIENTED_EDGE('',*,*,#872,.F.);
#872 = EDGE_CURVE('',#873,#865,#875,.T.);
#873 = VERTEX_POINT('',#874);
#874 = CARTESIAN_POINT('',(8.2,-100.,-3.1));
#875 = LINE('',#876,#877);
#876 = CARTESIAN_POINT('',(8.2,-100.,-1.55));
#877 = VECTOR('',#878,1.);
#878 = DIRECTION('',(-2.2E-16,0.,-1.));
#879 = ORIENTED_EDGE('',*,*,#880,.F.);
#880 = EDGE_CURVE('',#881,#873,#883,.T.);
#881 = VERTEX_POINT('',#882);
#882 = CARTESIAN_POINT('',(8.7,-100.,-3.1));
#883 = LINE('',#884,#885);
#884 = CARTESIAN_POINT('',(4.35,-100.,-3.1));
#885 = VECTOR('',#886,1.);
#886 = DIRECTION('',(-1.,0.,2.2E-16));
#887 = ORIENTED_EDGE('',*,*,#888,.F.);
#888 = EDGE_CURVE('',#889,#881,#891,.T.);
#889 = VERTEX_POINT('',#890);
#890 = CARTESIAN_POINT('',(10.,-100.,-3.6));
#891 = LINE('',#892,#893);
#892 = CARTESIAN_POINT('',(5.041237113402,-100.,-1.692783505155));
#893 = VECTOR('',#894,1.);
#894 = DIRECTION('',(-0.933345606203,0.,0.358979079309));
#895 = ORIENTED_EDGE('',*,*,#896,.F.);
#896 = EDGE_CURVE('',#897,#889,#899,.T.);
#897 = VERTEX_POINT('',#898);
#898 = CARTESIAN_POINT('',(10.,-100.,-8.5));
#899 = LINE('',#900,#901);
#900 = CARTESIAN_POINT('',(10.,-100.,-10.));
#901 = VECTOR('',#902,1.);
#902 = DIRECTION('',(0.,0.,1.));
#903 = ORIENTED_EDGE('',*,*,#904,.F.);
#904 = EDGE_CURVE('',#905,#897,#907,.T.);
#905 = VERTEX_POINT('',#906);
#906 = CARTESIAN_POINT('',(8.5,-100.,-10.));
#907 = CIRCLE('',#908,1.5);
#908 = AXIS2_PLACEMENT_3D('',#909,#910,#911);
#909 = CARTESIAN_POINT('',(8.5,-100.,-8.5));
#910 = DIRECTION('',(0.,-1.,2.2E-16));
#911 = DIRECTION('',(0.,-2.2E-16,-1.));
#912 = ORIENTED_EDGE('',*,*,#913,.F.);
#913 = EDGE_CURVE('',#914,#905,#916,.T.);
#914 = VERTEX_POINT('',#915);
#915 = CARTESIAN_POINT('',(3.6,-100.,-10.));
#916 = LINE('',#917,#918);
#917 = CARTESIAN_POINT('',(-10.,-100.,-10.));
#918 = VECTOR('',#919,1.);
#919 = DIRECTION('',(1.,0.,0.));
#920 = ORIENTED_EDGE('',*,*,#921,.F.);
#921 = EDGE_CURVE('',#922,#914,#924,.T.);
#922 = VERTEX_POINT('',#923);
#923 = CARTESIAN_POINT('',(3.1,-100.,-8.7));
#924 = LINE('',#925,#926);
#925 = CARTESIAN_POINT('',(1.442783505155,-100.,-4.391237113402));
#926 = VECTOR('',#927,1.);
#927 = DIRECTION('',(0.358979079309,0.,-0.933345606203));
#928 = ORIENTED_EDGE('',*,*,#929,.F.);
#929 = EDGE_CURVE('',#930,#922,#932,.T.);
#930 = VERTEX_POINT('',#931);
#931 = CARTESIAN_POINT('',(3.1,-100.,-8.2));
#932 = LINE('',#933,#934);
#933 = CARTESIAN_POINT('',(3.1,-100.,-4.1));
#934 = VECTOR('',#935,1.);
#935 = DIRECTION('',(-1.2E-16,0.,-1.));
#936 = ORIENTED_EDGE('',*,*,#937,.F.);
#937 = EDGE_CURVE('',#938,#930,#940,.T.);
#938 = VERTEX_POINT('',#939);
#939 = CARTESIAN_POINT('',(5.5,-100.,-8.2));
#940 = LINE('',#941,#942);
#941 = CARTESIAN_POINT('',(2.75,-100.,-8.2));
#942 = VECTOR('',#943,1.);
#943 = DIRECTION('',(-1.,0.,1.2E-16));
#944 = ORIENTED_EDGE('',*,*,#945,.F.);
#945 = EDGE_CURVE('',#946,#938,#948,.T.);
#946 = VERTEX_POINT('',#947);
#947 = CARTESIAN_POINT('',(5.5,-100.,-6.3));
#948 = LINE('',#949,#950);
#949 = CARTESIAN_POINT('',(5.5,-100.,-3.15));
#950 = VECTOR('',#951,1.);
#951 = DIRECTION('',(-1.2E-16,0.,-1.));
#952 = ORIENTED_EDGE('',*,*,#953,.F.);
#953 = EDGE_CURVE('',#954,#946,#956,.T.);
#954 = VERTEX_POINT('',#955);
#955 = CARTESIAN_POINT('',(3.1,-100.,-3.9));
#956 = LINE('',#957,#958);
#957 = CARTESIAN_POINT('',(1.35,-100.,-2.15));
#958 = VECTOR('',#959,1.);
#959 = DIRECTION('',(0.707106781187,0.,-0.707106781187));
#960 = ORIENTED_EDGE('',*,*,#961,.F.);
#961 = EDGE_CURVE('',#962,#954,#964,.T.);
#962 = VERTEX_POINT('',#963);
#963 = CARTESIAN_POINT('',(-3.1,-100.,-3.9));
#964 = LINE('',#965,#966);
#965 = CARTESIAN_POINT('',(-1.55,-100.,-3.9));
#966 = VECTOR('',#967,1.);
#967 = DIRECTION('',(1.,0.,-1.2E-16));
#968 = ORIENTED_EDGE('',*,*,#969,.F.);
#969 = EDGE_CURVE('',#970,#962,#972,.T.);
#970 = VERTEX_POINT('',#971);
#971 = CARTESIAN_POINT('',(-5.5,-100.,-6.3));
#972 = LINE('',#973,#974);
#973 = CARTESIAN_POINT('',(-2.55,-100.,-3.35));
#974 = VECTOR('',#975,1.);
#975 = DIRECTION('',(0.707106781187,0.,0.707106781187));
#976 = ORIENTED_EDGE('',*,*,#977,.F.);
#977 = EDGE_CURVE('',#978,#970,#980,.T.);
#978 = VERTEX_POINT('',#979);
#979 = CARTESIAN_POINT('',(-5.5,-100.,-8.2));
#980 = LINE('',#981,#982);
#981 = CARTESIAN_POINT('',(-5.5,-100.,-4.1));
#982 = VECTOR('',#983,1.);
#983 = DIRECTION('',(1.2E-16,0.,1.));
#984 = ORIENTED_EDGE('',*,*,#985,.F.);
#985 = EDGE_CURVE('',#986,#978,#988,.T.);
#986 = VERTEX_POINT('',#987);
#987 = CARTESIAN_POINT('',(-3.1,-100.,-8.2));
#988 = LINE('',#989,#990);
#989 = CARTESIAN_POINT('',(-1.55,-100.,-8.2));
#990 = VECTOR('',#991,1.);
#991 = DIRECTION('',(-1.,0.,1.2E-16));
#992 = ORIENTED_EDGE('',*,*,#993,.F.);
#993 = EDGE_CURVE('',#551,#986,#994,.T.);
#994 = LINE('',#995,#996);
#995 = CARTESIAN_POINT('',(-3.1,-100.,-4.35));
#996 = VECTOR('',#997,1.);
#997 = DIRECTION('',(1.2E-16,0.,1.));
#998 = ORIENTED_EDGE('',*,*,#550,.F.);
#999 = FACE_BOUND('',#1000,.F.);
#1000 = EDGE_LOOP('',(#1001));
#1001 = ORIENTED_EDGE('',*,*,#1002,.T.);
#1002 = EDGE_CURVE('',#1003,#1003,#1005,.T.);
#1003 = VERTEX_POINT('',#1004);
#1004 = CARTESIAN_POINT('',(2.5,-100.,2.2E-14));
#1005 = CIRCLE('',#1006,2.5);
#1006 = AXIS2_PLACEMENT_3D('',#1007,#1008,#1009);
#1007 = CARTESIAN_POINT('',(0.,-100.,2.18E-14));
#1008 = DIRECTION('',(0.,-1.,0.));
#1009 = DIRECTION('',(1.,0.,0.));
#1010 = PLANE('',#1011);
#1011 = AXIS2_PLACEMENT_3D('',#1012,#1013,#1014);
#1012 = CARTESIAN_POINT('',(0.,-100.,2.2E-14));
#1013 = DIRECTION('',(0.,1.,0.));
#1014 = DIRECTION('',(0.,0.,1.));
#1015 = ADVANCED_FACE('',(#1016),#1027,.F.);
#1016 = FACE_BOUND('',#1017,.F.);
#1017 = EDGE_LOOP('',(#1018,#1019,#1025,#1026));
#1018 = ORIENTED_EDGE('',*,*,#71,.F.);
#1019 = ORIENTED_EDGE('',*,*,#1020,.T.);
#1020 = EDGE_CURVE('',#72,#575,#1021,.T.);
#1021 = LINE('',#1022,#1023);
#1022 = CARTESIAN_POINT('',(-10.,2.22E-15,-3.6));
#1023 = VECTOR('',#1024,1.);
#1024 = DIRECTION('',(-2.2E-16,-1.,0.));
#1025 = ORIENTED_EDGE('',*,*,#574,.T.);
#1026 = ORIENTED_EDGE('',*,*,#524,.F.);
#1027 = PLANE('',#1028);
#1028 = AXIS2_PLACEMENT_3D('',#1029,#1030,#1031);
#1029 = CARTESIAN_POINT('',(-10.,2.22E-15,10.));
#1030 = DIRECTION('',(1.,0.,0.));
#1031 = DIRECTION('',(0.,-2.2E-16,-1.));
#1032 = ADVANCED_FACE('',(#1033),#1044,.F.);
#1033 = FACE_BOUND('',#1034,.F.);
#1034 = EDGE_LOOP('',(#1035,#1036,#1037,#1038));
#1035 = ORIENTED_EDGE('',*,*,#490,.F.);
#1036 = ORIENTED_EDGE('',*,*,#558,.T.);
#1037 = ORIENTED_EDGE('',*,*,#993,.T.);
#1038 = ORIENTED_EDGE('',*,*,#1039,.F.);
#1039 = EDGE_CURVE('',#483,#986,#1040,.T.);
#1040 = LINE('',#1041,#1042);
#1041 = CARTESIAN_POINT('',(-3.1,1.82E-15,-8.2));
#1042 = VECTOR('',#1043,1.);
#1043 = DIRECTION('',(0.,-1.,-2.2E-16));
#1044 = PLANE('',#1045);
#1045 = AXIS2_PLACEMENT_3D('',#1046,#1047,#1048);
#1046 = CARTESIAN_POINT('',(-3.1,1.93E-15,-8.7));
#1047 = DIRECTION('',(-1.,0.,0.));
#1048 = DIRECTION('',(-0.,-2.2E-16,1.));
#1049 = ADVANCED_FACE('',(#1050),#1061,.F.);
#1050 = FACE_BOUND('',#1051,.F.);
#1051 = EDGE_LOOP('',(#1052,#1053,#1059,#1060));
#1052 = ORIENTED_EDGE('',*,*,#79,.F.);
#1053 = ORIENTED_EDGE('',*,*,#1054,.T.);
#1054 = EDGE_CURVE('',#80,#583,#1055,.T.);
#1055 = LINE('',#1056,#1057);
#1056 = CARTESIAN_POINT('',(-8.7,1.93E-15,-3.1));
#1057 = VECTOR('',#1058,1.);
#1058 = DIRECTION('',(-2.2E-16,-1.,0.));
#1059 = ORIENTED_EDGE('',*,*,#582,.T.);
#1060 = ORIENTED_EDGE('',*,*,#1020,.F.);
#1061 = PLANE('',#1062);
#1062 = AXIS2_PLACEMENT_3D('',#1063,#1064,#1065);
#1063 = CARTESIAN_POINT('',(-8.7,1.93E-15,-3.1));
#1064 = DIRECTION('',(0.358979079309,-8.E-17,-0.933345606203));
#1065 = DIRECTION('',(-0.933345606203,2.1E-16,-0.358979079309));
#1066 = ADVANCED_FACE('',(#1067),#1078,.F.);
#1067 = FACE_BOUND('',#1068,.F.);
#1068 = EDGE_LOOP('',(#1069,#1070,#1071,#1072));
#1069 = ORIENTED_EDGE('',*,*,#482,.F.);
#1070 = ORIENTED_EDGE('',*,*,#1039,.T.);
#1071 = ORIENTED_EDGE('',*,*,#985,.T.);
#1072 = ORIENTED_EDGE('',*,*,#1073,.F.);
#1073 = EDGE_CURVE('',#475,#978,#1074,.T.);
#1074 = LINE('',#1075,#1076);
#1075 = CARTESIAN_POINT('',(-5.5,1.82E-15,-8.2));
#1076 = VECTOR('',#1077,1.);
#1077 = DIRECTION('',(0.,-1.,-2.2E-16));
#1078 = PLANE('',#1079);
#1079 = AXIS2_PLACEMENT_3D('',#1080,#1081,#1082);
#1080 = CARTESIAN_POINT('',(-3.1,1.82E-15,-8.2));
#1081 = DIRECTION('',(0.,2.2E-16,-1.));
#1082 = DIRECTION('',(-1.,0.,0.));
#1083 = ADVANCED_FACE('',(#1084),#1095,.F.);
#1084 = FACE_BOUND('',#1085,.F.);
#1085 = EDGE_LOOP('',(#1086,#1087,#1093,#1094));
#1086 = ORIENTED_EDGE('',*,*,#87,.F.);
#1087 = ORIENTED_EDGE('',*,*,#1088,.T.);
#1088 = EDGE_CURVE('',#88,#591,#1089,.T.);
#1089 = LINE('',#1090,#1091);
#1090 = CARTESIAN_POINT('',(-8.2,1.82E-15,-3.1));
#1091 = VECTOR('',#1092,1.);
#1092 = DIRECTION('',(-2.2E-16,-1.,0.));
#1093 = ORIENTED_EDGE('',*,*,#590,.T.);
#1094 = ORIENTED_EDGE('',*,*,#1054,.F.);
#1095 = PLANE('',#1096);
#1096 = AXIS2_PLACEMENT_3D('',#1097,#1098,#1099);
#1097 = CARTESIAN_POINT('',(-8.2,1.82E-15,-3.1));
#1098 = DIRECTION('',(0.,0.,-1.));
#1099 = DIRECTION('',(-1.,2.2E-16,0.));
#1100 = ADVANCED_FACE('',(#1101),#1112,.F.);
#1101 = FACE_BOUND('',#1102,.F.);
#1102 = EDGE_LOOP('',(#1103,#1104,#1105,#1106));
#1103 = ORIENTED_EDGE('',*,*,#474,.F.);
#1104 = ORIENTED_EDGE('',*,*,#1073,.T.);
#1105 = ORIENTED_EDGE('',*,*,#977,.T.);
#1106 = ORIENTED_EDGE('',*,*,#1107,.F.);
#1107 = EDGE_CURVE('',#467,#970,#1108,.T.);
#1108 = LINE('',#1109,#1110);
#1109 = CARTESIAN_POINT('',(-5.5,1.4E-15,-6.3));
#1110 = VECTOR('',#1111,1.);
#1111 = DIRECTION('',(0.,-1.,-2.2E-16));
#1112 = PLANE('',#1113);
#1113 = AXIS2_PLACEMENT_3D('',#1114,#1115,#1116);
#1114 = CARTESIAN_POINT('',(-5.5,1.82E-15,-8.2));
#1115 = DIRECTION('',(-1.,0.,0.));
#1116 = DIRECTION('',(-0.,-2.2E-16,1.));
#1117 = ADVANCED_FACE('',(#1118),#1129,.F.);
#1118 = FACE_BOUND('',#1119,.F.);
#1119 = EDGE_LOOP('',(#1120,#1121,#1127,#1128));
#1120 = ORIENTED_EDGE('',*,*,#95,.F.);
#1121 = ORIENTED_EDGE('',*,*,#1122,.T.);
#1122 = EDGE_CURVE('',#96,#599,#1123,.T.);
#1123 = LINE('',#1124,#1125);
#1124 = CARTESIAN_POINT('',(-8.2,1.82E-15,-5.5));
#1125 = VECTOR('',#1126,1.);
#1126 = DIRECTION('',(-2.2E-16,-1.,0.));
#1127 = ORIENTED_EDGE('',*,*,#598,.T.);
#1128 = ORIENTED_EDGE('',*,*,#1088,.F.);
#1129 = PLANE('',#1130);
#1130 = AXIS2_PLACEMENT_3D('',#1131,#1132,#1133);
#1131 = CARTESIAN_POINT('',(-8.2,1.82E-15,-5.5));
#1132 = DIRECTION('',(-1.,2.2E-16,0.));
#1133 = DIRECTION('',(0.,0.,1.));
#1134 = ADVANCED_FACE('',(#1135),#1146,.F.);
#1135 = FACE_BOUND('',#1136,.F.);
#1136 = EDGE_LOOP('',(#1137,#1138,#1139,#1140));
#1137 = ORIENTED_EDGE('',*,*,#466,.F.);
#1138 = ORIENTED_EDGE('',*,*,#1107,.T.);
#1139 = ORIENTED_EDGE('',*,*,#969,.T.);
#1140 = ORIENTED_EDGE('',*,*,#1141,.F.);
#1141 = EDGE_CURVE('',#459,#962,#1142,.T.);
#1142 = LINE('',#1143,#1144);
#1143 = CARTESIAN_POINT('',(-3.1,8.7E-16,-3.9));
#1144 = VECTOR('',#1145,1.);
#1145 = DIRECTION('',(0.,-1.,-2.2E-16));
#1146 = PLANE('',#1147);
#1147 = AXIS2_PLACEMENT_3D('',#1148,#1149,#1150);
#1148 = CARTESIAN_POINT('',(-5.5,1.4E-15,-6.3));
#1149 = DIRECTION('',(-0.707106781187,-1.6E-16,0.707106781187));
#1150 = DIRECTION('',(0.707106781187,-1.6E-16,0.707106781187));
#1151 = ADVANCED_FACE('',(#1152),#1163,.F.);
#1152 = FACE_BOUND('',#1153,.F.);
#1153 = EDGE_LOOP('',(#1154,#1155,#1161,#1162));
#1154 = ORIENTED_EDGE('',*,*,#103,.F.);
#1155 = ORIENTED_EDGE('',*,*,#1156,.T.);
#1156 = EDGE_CURVE('',#104,#607,#1157,.T.);
#1157 = LINE('',#1158,#1159);
#1158 = CARTESIAN_POINT('',(-6.3,1.4E-15,-5.5));
#1159 = VECTOR('',#1160,1.);
#1160 = DIRECTION('',(-2.2E-16,-1.,0.));
#1161 = ORIENTED_EDGE('',*,*,#606,.T.);
#1162 = ORIENTED_EDGE('',*,*,#1122,.F.);
#1163 = PLANE('',#1164);
#1164 = AXIS2_PLACEMENT_3D('',#1165,#1166,#1167);
#1165 = CARTESIAN_POINT('',(-6.3,1.4E-15,-5.5));
#1166 = DIRECTION('',(0.,0.,-1.));
#1167 = DIRECTION('',(-1.,2.2E-16,0.));
#1168 = ADVANCED_FACE('',(#1169),#1180,.F.);
#1169 = FACE_BOUND('',#1170,.F.);
#1170 = EDGE_LOOP('',(#1171,#1172,#1173,#1174));
#1171 = ORIENTED_EDGE('',*,*,#458,.F.);
#1172 = ORIENTED_EDGE('',*,*,#1141,.T.);
#1173 = ORIENTED_EDGE('',*,*,#961,.T.);
#1174 = ORIENTED_EDGE('',*,*,#1175,.F.);
#1175 = EDGE_CURVE('',#451,#954,#1176,.T.);
#1176 = LINE('',#1177,#1178);
#1177 = CARTESIAN_POINT('',(3.1,8.7E-16,-3.9));
#1178 = VECTOR('',#1179,1.);
#1179 = DIRECTION('',(0.,-1.,-2.2E-16));
#1180 = PLANE('',#1181);
#1181 = AXIS2_PLACEMENT_3D('',#1182,#1183,#1184);
#1182 = CARTESIAN_POINT('',(-3.1,8.7E-16,-3.9));
#1183 = DIRECTION('',(0.,-2.2E-16,1.));
#1184 = DIRECTION('',(1.,0.,0.));
#1185 = ADVANCED_FACE('',(#1186),#1197,.F.);
#1186 = FACE_BOUND('',#1187,.F.);
#1187 = EDGE_LOOP('',(#1188,#1189,#1195,#1196));
#1188 = ORIENTED_EDGE('',*,*,#111,.F.);
#1189 = ORIENTED_EDGE('',*,*,#1190,.T.);
#1190 = EDGE_CURVE('',#112,#615,#1191,.T.);
#1191 = LINE('',#1192,#1193);
#1192 = CARTESIAN_POINT('',(-3.9,8.7E-16,-3.1));
#1193 = VECTOR('',#1194,1.);
#1194 = DIRECTION('',(-2.2E-16,-1.,0.));
#1195 = ORIENTED_EDGE('',*,*,#614,.T.);
#1196 = ORIENTED_EDGE('',*,*,#1156,.F.);
#1197 = PLANE('',#1198);
#1198 = AXIS2_PLACEMENT_3D('',#1199,#1200,#1201);
#1199 = CARTESIAN_POINT('',(-3.9,8.7E-16,-3.1));
#1200 = DIRECTION('',(0.707106781187,-1.6E-16,-0.707106781187));
#1201 = DIRECTION('',(-0.707106781187,1.6E-16,-0.707106781187));
#1202 = ADVANCED_FACE('',(#1203),#1214,.F.);
#1203 = FACE_BOUND('',#1204,.F.);
#1204 = EDGE_LOOP('',(#1205,#1206,#1207,#1208));
#1205 = ORIENTED_EDGE('',*,*,#450,.F.);
#1206 = ORIENTED_EDGE('',*,*,#1175,.T.);
#1207 = ORIENTED_EDGE('',*,*,#953,.T.);
#1208 = ORIENTED_EDGE('',*,*,#1209,.F.);
#1209 = EDGE_CURVE('',#443,#946,#1210,.T.);
#1210 = LINE('',#1211,#1212);
#1211 = CARTESIAN_POINT('',(5.5,1.4E-15,-6.3));
#1212 = VECTOR('',#1213,1.);
#1213 = DIRECTION('',(0.,-1.,-2.2E-16));
#1214 = PLANE('',#1215);
#1215 = AXIS2_PLACEMENT_3D('',#1216,#1217,#1218);
#1216 = CARTESIAN_POINT('',(3.1,8.7E-16,-3.9));
#1217 = DIRECTION('',(0.707106781187,-1.6E-16,0.707106781187));
#1218 = DIRECTION('',(0.707106781187,1.6E-16,-0.707106781187));
#1219 = ADVANCED_FACE('',(#1220),#1231,.F.);
#1220 = FACE_BOUND('',#1221,.F.);
#1221 = EDGE_LOOP('',(#1222,#1223,#1229,#1230));
#1222 = ORIENTED_EDGE('',*,*,#119,.F.);
#1223 = ORIENTED_EDGE('',*,*,#1224,.T.);
#1224 = EDGE_CURVE('',#120,#623,#1225,.T.);
#1225 = LINE('',#1226,#1227);
#1226 = CARTESIAN_POINT('',(-3.9,8.7E-16,3.1));
#1227 = VECTOR('',#1228,1.);
#1228 = DIRECTION('',(-2.2E-16,-1.,0.));
#1229 = ORIENTED_EDGE('',*,*,#622,.T.);
#1230 = ORIENTED_EDGE('',*,*,#1190,.F.);
#1231 = PLANE('',#1232);
#1232 = AXIS2_PLACEMENT_3D('',#1233,#1234,#1235);
#1233 = CARTESIAN_POINT('',(-3.9,8.7E-16,3.1));
#1234 = DIRECTION('',(1.,-2.2E-16,0.));
#1235 = DIRECTION('',(-0.,0.,-1.));
#1236 = ADVANCED_FACE('',(#1237),#1248,.F.);
#1237 = FACE_BOUND('',#1238,.F.);
#1238 = EDGE_LOOP('',(#1239,#1240,#1241,#1242));
#1239 = ORIENTED_EDGE('',*,*,#442,.F.);
#1240 = ORIENTED_EDGE('',*,*,#1209,.T.);
#1241 = ORIENTED_EDGE('',*,*,#945,.T.);
#1242 = ORIENTED_EDGE('',*,*,#1243,.F.);
#1243 = EDGE_CURVE('',#435,#938,#1244,.T.);
#1244 = LINE('',#1245,#1246);
#1245 = CARTESIAN_POINT('',(5.5,1.82E-15,-8.2));
#1246 = VECTOR('',#1247,1.);
#1247 = DIRECTION('',(0.,-1.,-2.2E-16));
#1248 = PLANE('',#1249);
#1249 = AXIS2_PLACEMENT_3D('',#1250,#1251,#1252);
#1250 = CARTESIAN_POINT('',(5.5,1.4E-15,-6.3));
#1251 = DIRECTION('',(1.,0.,0.));
#1252 = DIRECTION('',(0.,2.2E-16,-1.));
#1253 = ADVANCED_FACE('',(#1254),#1265,.F.);
#1254 = FACE_BOUND('',#1255,.F.);
#1255 = EDGE_LOOP('',(#1256,#1257,#1263,#1264));
#1256 = ORIENTED_EDGE('',*,*,#127,.F.);
#1257 = ORIENTED_EDGE('',*,*,#1258,.T.);
#1258 = EDGE_CURVE('',#128,#631,#1259,.T.);
#1259 = LINE('',#1260,#1261);
#1260 = CARTESIAN_POINT('',(-6.3,1.4E-15,5.5));
#1261 = VECTOR('',#1262,1.);
#1262 = DIRECTION('',(-2.2E-16,-1.,0.));
#1263 = ORIENTED_EDGE('',*,*,#630,.T.);
#1264 = ORIENTED_EDGE('',*,*,#1224,.F.);
#1265 = PLANE('',#1266);
#1266 = AXIS2_PLACEMENT_3D('',#1267,#1268,#1269);
#1267 = CARTESIAN_POINT('',(-6.3,1.4E-15,5.5));
#1268 = DIRECTION('',(0.707106781187,-1.6E-16,0.707106781187));
#1269 = DIRECTION('',(0.707106781187,-1.6E-16,-0.707106781187));
#1270 = ADVANCED_FACE('',(#1271),#1282,.F.);
#1271 = FACE_BOUND('',#1272,.F.);
#1272 = EDGE_LOOP('',(#1273,#1274,#1275,#1276));
#1273 = ORIENTED_EDGE('',*,*,#434,.F.);
#1274 = ORIENTED_EDGE('',*,*,#1243,.T.);
#1275 = ORIENTED_EDGE('',*,*,#937,.T.);
#1276 = ORIENTED_EDGE('',*,*,#1277,.F.);
#1277 = EDGE_CURVE('',#427,#930,#1278,.T.);
#1278 = LINE('',#1279,#1280);
#1279 = CARTESIAN_POINT('',(3.1,1.82E-15,-8.2));
#1280 = VECTOR('',#1281,1.);
#1281 = DIRECTION('',(0.,-1.,-2.2E-16));
#1282 = PLANE('',#1283);
#1283 = AXIS2_PLACEMENT_3D('',#1284,#1285,#1286);
#1284 = CARTESIAN_POINT('',(5.5,1.82E-15,-8.2));
#1285 = DIRECTION('',(0.,2.2E-16,-1.));
#1286 = DIRECTION('',(-1.,0.,0.));
#1287 = ADVANCED_FACE('',(#1288),#1299,.F.);
#1288 = FACE_BOUND('',#1289,.F.);
#1289 = EDGE_LOOP('',(#1290,#1291,#1297,#1298));
#1290 = ORIENTED_EDGE('',*,*,#135,.F.);
#1291 = ORIENTED_EDGE('',*,*,#1292,.T.);
#1292 = EDGE_CURVE('',#136,#639,#1293,.T.);
#1293 = LINE('',#1294,#1295);
#1294 = CARTESIAN_POINT('',(-8.2,1.82E-15,5.5));
#1295 = VECTOR('',#1296,1.);
#1296 = DIRECTION('',(-2.2E-16,-1.,0.));
#1297 = ORIENTED_EDGE('',*,*,#638,.T.);
#1298 = ORIENTED_EDGE('',*,*,#1258,.F.);
#1299 = PLANE('',#1300);
#1300 = AXIS2_PLACEMENT_3D('',#1301,#1302,#1303);
#1301 = CARTESIAN_POINT('',(-8.2,1.82E-15,5.5));
#1302 = DIRECTION('',(0.,0.,1.));
#1303 = DIRECTION('',(1.,-2.2E-16,0.));
#1304 = ADVANCED_FACE('',(#1305),#1316,.F.);
#1305 = FACE_BOUND('',#1306,.F.);
#1306 = EDGE_LOOP('',(#1307,#1308,#1309,#1310));
#1307 = ORIENTED_EDGE('',*,*,#426,.F.);
#1308 = ORIENTED_EDGE('',*,*,#1277,.T.);
#1309 = ORIENTED_EDGE('',*,*,#929,.T.);
#1310 = ORIENTED_EDGE('',*,*,#1311,.F.);
#1311 = EDGE_CURVE('',#419,#922,#1312,.T.);
#1312 = LINE('',#1313,#1314);
#1313 = CARTESIAN_POINT('',(3.1,1.93E-15,-8.7));
#1314 = VECTOR('',#1315,1.);
#1315 = DIRECTION('',(0.,-1.,-2.2E-16));
#1316 = PLANE('',#1317);
#1317 = AXIS2_PLACEMENT_3D('',#1318,#1319,#1320);
#1318 = CARTESIAN_POINT('',(3.1,1.82E-15,-8.2));
#1319 = DIRECTION('',(1.,0.,0.));
#1320 = DIRECTION('',(0.,2.2E-16,-1.));
#1321 = ADVANCED_FACE('',(#1322),#1333,.F.);
#1322 = FACE_BOUND('',#1323,.F.);
#1323 = EDGE_LOOP('',(#1324,#1325,#1331,#1332));
#1324 = ORIENTED_EDGE('',*,*,#143,.F.);
#1325 = ORIENTED_EDGE('',*,*,#1326,.T.);
#1326 = EDGE_CURVE('',#144,#647,#1327,.T.);
#1327 = LINE('',#1328,#1329);
#1328 = CARTESIAN_POINT('',(-8.2,1.82E-15,3.1));
#1329 = VECTOR('',#1330,1.);
#1330 = DIRECTION('',(-2.2E-16,-1.,0.));
#1331 = ORIENTED_EDGE('',*,*,#646,.T.);
#1332 = ORIENTED_EDGE('',*,*,#1292,.F.);
#1333 = PLANE('',#1334);
#1334 = AXIS2_PLACEMENT_3D('',#1335,#1336,#1337);
#1335 = CARTESIAN_POINT('',(-8.2,1.82E-15,3.1));
#1336 = DIRECTION('',(-1.,2.2E-16,0.));
#1337 = DIRECTION('',(0.,0.,1.));
#1338 = ADVANCED_FACE('',(#1339),#1350,.F.);
#1339 = FACE_BOUND('',#1340,.F.);
#1340 = EDGE_LOOP('',(#1341,#1342,#1343,#1344));
#1341 = ORIENTED_EDGE('',*,*,#418,.F.);
#1342 = ORIENTED_EDGE('',*,*,#1311,.T.);
#1343 = ORIENTED_EDGE('',*,*,#921,.T.);
#1344 = ORIENTED_EDGE('',*,*,#1345,.F.);
#1345 = EDGE_CURVE('',#411,#914,#1346,.T.);
#1346 = LINE('',#1347,#1348);
#1347 = CARTESIAN_POINT('',(3.6,2.22E-15,-10.));
#1348 = VECTOR('',#1349,1.);
#1349 = DIRECTION('',(0.,-1.,-2.2E-16));
#1350 = PLANE('',#1351);
#1351 = AXIS2_PLACEMENT_3D('',#1352,#1353,#1354);
#1352 = CARTESIAN_POINT('',(3.1,1.93E-15,-8.7));
#1353 = DIRECTION('',(0.933345606203,-8.E-17,0.358979079309));
#1354 = DIRECTION('',(0.358979079309,2.1E-16,-0.933345606203));
#1355 = ADVANCED_FACE('',(#1356),#1367,.F.);
#1356 = FACE_BOUND('',#1357,.F.);
#1357 = EDGE_LOOP('',(#1358,#1359,#1365,#1366));
#1358 = ORIENTED_EDGE('',*,*,#151,.F.);
#1359 = ORIENTED_EDGE('',*,*,#1360,.T.);
#1360 = EDGE_CURVE('',#152,#655,#1361,.T.);
#1361 = LINE('',#1362,#1363);
#1362 = CARTESIAN_POINT('',(-8.7,1.93E-15,3.1));
#1363 = VECTOR('',#1364,1.);
#1364 = DIRECTION('',(-2.2E-16,-1.,0.));
#1365 = ORIENTED_EDGE('',*,*,#654,.T.);
#1366 = ORIENTED_EDGE('',*,*,#1326,.F.);
#1367 = PLANE('',#1368);
#1368 = AXIS2_PLACEMENT_3D('',#1369,#1370,#1371);
#1369 = CARTESIAN_POINT('',(-8.7,1.93E-15,3.1));
#1370 = DIRECTION('',(0.,0.,1.));
#1371 = DIRECTION('',(1.,-2.2E-16,0.));
#1372 = ADVANCED_FACE('',(#1373),#1384,.F.);
#1373 = FACE_BOUND('',#1374,.F.);
#1374 = EDGE_LOOP('',(#1375,#1376,#1377,#1378));
#1375 = ORIENTED_EDGE('',*,*,#410,.F.);
#1376 = ORIENTED_EDGE('',*,*,#1345,.T.);
#1377 = ORIENTED_EDGE('',*,*,#913,.T.);
#1378 = ORIENTED_EDGE('',*,*,#1379,.F.);
#1379 = EDGE_CURVE('',#402,#905,#1380,.T.);
#1380 = LINE('',#1381,#1382);
#1381 = CARTESIAN_POINT('',(8.5,-2.22E-15,-10.));
#1382 = VECTOR('',#1383,1.);
#1383 = DIRECTION('',(0.,-1.,2.2E-16));
#1384 = PLANE('',#1385);
#1385 = AXIS2_PLACEMENT_3D('',#1386,#1387,#1388);
#1386 = CARTESIAN_POINT('',(-10.,-2.22E-15,-10.));
#1387 = DIRECTION('',(0.,2.2E-16,1.));
#1388 = DIRECTION('',(1.,0.,0.));
#1389 = ADVANCED_FACE('',(#1390),#1401,.F.);
#1390 = FACE_BOUND('',#1391,.F.);
#1391 = EDGE_LOOP('',(#1392,#1393,#1399,#1400));
#1392 = ORIENTED_EDGE('',*,*,#159,.F.);
#1393 = ORIENTED_EDGE('',*,*,#1394,.T.);
#1394 = EDGE_CURVE('',#160,#663,#1395,.T.);
#1395 = LINE('',#1396,#1397);
#1396 = CARTESIAN_POINT('',(-10.,2.22E-15,3.6));
#1397 = VECTOR('',#1398,1.);
#1398 = DIRECTION('',(-2.2E-16,-1.,0.));
#1399 = ORIENTED_EDGE('',*,*,#662,.T.);
#1400 = ORIENTED_EDGE('',*,*,#1360,.F.);
#1401 = PLANE('',#1402);
#1402 = AXIS2_PLACEMENT_3D('',#1403,#1404,#1405);
#1403 = CARTESIAN_POINT('',(-10.,2.22E-15,3.6));
#1404 = DIRECTION('',(0.358979079309,-8.E-17,0.933345606203));
#1405 = DIRECTION('',(0.933345606203,-2.1E-16,-0.358979079309));
#1406 = ADVANCED_FACE('',(#1407),#1418,.T.);
#1407 = FACE_BOUND('',#1408,.T.);
#1408 = EDGE_LOOP('',(#1409,#1410,#1416,#1417));
#1409 = ORIENTED_EDGE('',*,*,#401,.T.);
#1410 = ORIENTED_EDGE('',*,*,#1411,.T.);
#1411 = EDGE_CURVE('',#394,#897,#1412,.T.);
#1412 = LINE('',#1413,#1414);
#1413 = CARTESIAN_POINT('',(10.,-1.89E-15,-8.5));
#1414 = VECTOR('',#1415,1.);
#1415 = DIRECTION('',(0.,-1.,2.2E-16));
#1416 = ORIENTED_EDGE('',*,*,#904,.F.);
#1417 = ORIENTED_EDGE('',*,*,#1379,.F.);
#1418 = CYLINDRICAL_SURFACE('',#1419,1.5);
#1419 = AXIS2_PLACEMENT_3D('',#1420,#1421,#1422);
#1420 = CARTESIAN_POINT('',(8.5,-1.89E-15,-8.5));
#1421 = DIRECTION('',(0.,-1.,2.2E-16));
#1422 = DIRECTION('',(0.,-2.2E-16,-1.));
#1423 = ADVANCED_FACE('',(#1424),#1435,.F.);
#1424 = FACE_BOUND('',#1425,.F.);
#1425 = EDGE_LOOP('',(#1426,#1427,#1433,#1434));
#1426 = ORIENTED_EDGE('',*,*,#167,.F.);
#1427 = ORIENTED_EDGE('',*,*,#1428,.T.);
#1428 = EDGE_CURVE('',#168,#671,#1429,.T.);
#1429 = LINE('',#1430,#1431);
#1430 = CARTESIAN_POINT('',(-10.,1.89E-15,8.5));
#1431 = VECTOR('',#1432,1.);
#1432 = DIRECTION('',(0.,-1.,2.2E-16));
#1433 = ORIENTED_EDGE('',*,*,#670,.T.);
#1434 = ORIENTED_EDGE('',*,*,#1394,.F.);
#1435 = PLANE('',#1436);
#1436 = AXIS2_PLACEMENT_3D('',#1437,#1438,#1439);
#1437 = CARTESIAN_POINT('',(-10.,2.22E-15,10.));
#1438 = DIRECTION('',(1.,0.,0.));
#1439 = DIRECTION('',(0.,-2.2E-16,-1.));
#1440 = ADVANCED_FACE('',(#1441),#1452,.F.);
#1441 = FACE_BOUND('',#1442,.F.);
#1442 = EDGE_LOOP('',(#1443,#1444,#1445,#1446));
#1443 = ORIENTED_EDGE('',*,*,#393,.F.);
#1444 = ORIENTED_EDGE('',*,*,#1411,.T.);
#1445 = ORIENTED_EDGE('',*,*,#896,.T.);
#1446 = ORIENTED_EDGE('',*,*,#1447,.F.);
#1447 = EDGE_CURVE('',#386,#889,#1448,.T.);
#1448 = LINE('',#1449,#1450);
#1449 = CARTESIAN_POINT('',(10.,2.22E-15,-3.6));
#1450 = VECTOR('',#1451,1.);
#1451 = DIRECTION('',(2.2E-16,-1.,0.));
#1452 = PLANE('',#1453);
#1453 = AXIS2_PLACEMENT_3D('',#1454,#1455,#1456);
#1454 = CARTESIAN_POINT('',(10.,-2.22E-15,-10.));
#1455 = DIRECTION('',(-1.,0.,0.));
#1456 = DIRECTION('',(0.,2.2E-16,1.));
#1457 = ADVANCED_FACE('',(#1458),#1469,.T.);
#1458 = FACE_BOUND('',#1459,.T.);
#1459 = EDGE_LOOP('',(#1460,#1461,#1462,#1463));
#1460 = ORIENTED_EDGE('',*,*,#175,.T.);
#1461 = ORIENTED_EDGE('',*,*,#1428,.T.);
#1462 = ORIENTED_EDGE('',*,*,#678,.F.);
#1463 = ORIENTED_EDGE('',*,*,#1464,.F.);
#1464 = EDGE_CURVE('',#176,#679,#1465,.T.);
#1465 = LINE('',#1466,#1467);
#1466 = CARTESIAN_POINT('',(-8.5,2.22E-15,10.));
#1467 = VECTOR('',#1468,1.);
#1468 = DIRECTION('',(0.,-1.,2.2E-16));
#1469 = CYLINDRICAL_SURFACE('',#1470,1.5);
#1470 = AXIS2_PLACEMENT_3D('',#1471,#1472,#1473);
#1471 = CARTESIAN_POINT('',(-8.5,1.89E-15,8.5));
#1472 = DIRECTION('',(0.,-1.,2.2E-16));
#1473 = DIRECTION('',(0.,2.2E-16,1.));
#1474 = ADVANCED_FACE('',(#1475),#1486,.F.);
#1475 = FACE_BOUND('',#1476,.F.);
#1476 = EDGE_LOOP('',(#1477,#1478,#1479,#1480));
#1477 = ORIENTED_EDGE('',*,*,#385,.F.);
#1478 = ORIENTED_EDGE('',*,*,#1447,.T.);
#1479 = ORIENTED_EDGE('',*,*,#888,.T.);
#1480 = ORIENTED_EDGE('',*,*,#1481,.F.);
#1481 = EDGE_CURVE('',#378,#881,#1482,.T.);
#1482 = LINE('',#1483,#1484);
#1483 = CARTESIAN_POINT('',(8.7,1.93E-15,-3.1));
#1484 = VECTOR('',#1485,1.);
#1485 = DIRECTION('',(2.2E-16,-1.,0.));
#1486 = PLANE('',#1487);
#1487 = AXIS2_PLACEMENT_3D('',#1488,#1489,#1490);
#1488 = CARTESIAN_POINT('',(10.,2.22E-15,-3.6));
#1489 = DIRECTION('',(-0.358979079309,-8.E-17,-0.933345606203));
#1490 = DIRECTION('',(-0.933345606203,-2.1E-16,0.358979079309));
#1491 = ADVANCED_FACE('',(#1492),#1503,.F.);
#1492 = FACE_BOUND('',#1493,.F.);
#1493 = EDGE_LOOP('',(#1494,#1495,#1501,#1502));
#1494 = ORIENTED_EDGE('',*,*,#184,.F.);
#1495 = ORIENTED_EDGE('',*,*,#1496,.T.);
#1496 = EDGE_CURVE('',#185,#688,#1497,.T.);
#1497 = LINE('',#1498,#1499);
#1498 = CARTESIAN_POINT('',(-3.6,2.22E-15,10.));
#1499 = VECTOR('',#1500,1.);
#1500 = DIRECTION('',(0.,-1.,2.2E-16));
#1501 = ORIENTED_EDGE('',*,*,#687,.T.);
#1502 = ORIENTED_EDGE('',*,*,#1464,.F.);
#1503 = PLANE('',#1504);
#1504 = AXIS2_PLACEMENT_3D('',#1505,#1506,#1507);
#1505 = CARTESIAN_POINT('',(10.,2.22E-15,10.));
#1506 = DIRECTION('',(-0.,-2.2E-16,-1.));
#1507 = DIRECTION('',(-1.,0.,0.));
#1508 = ADVANCED_FACE('',(#1509),#1520,.F.);
#1509 = FACE_BOUND('',#1510,.F.);
#1510 = EDGE_LOOP('',(#1511,#1512,#1513,#1514));
#1511 = ORIENTED_EDGE('',*,*,#377,.F.);
#1512 = ORIENTED_EDGE('',*,*,#1481,.T.);
#1513 = ORIENTED_EDGE('',*,*,#880,.T.);
#1514 = ORIENTED_EDGE('',*,*,#1515,.F.);
#1515 = EDGE_CURVE('',#370,#873,#1516,.T.);
#1516 = LINE('',#1517,#1518);
#1517 = CARTESIAN_POINT('',(8.2,1.82E-15,-3.1));
#1518 = VECTOR('',#1519,1.);
#1519 = DIRECTION('',(2.2E-16,-1.,0.));
#1520 = PLANE('',#1521);
#1521 = AXIS2_PLACEMENT_3D('',#1522,#1523,#1524);
#1522 = CARTESIAN_POINT('',(8.7,1.93E-15,-3.1));
#1523 = DIRECTION('',(0.,0.,-1.));
#1524 = DIRECTION('',(-1.,-2.2E-16,-0.));
#1525 = ADVANCED_FACE('',(#1526),#1537,.F.);
#1526 = FACE_BOUND('',#1527,.F.);
#1527 = EDGE_LOOP('',(#1528,#1529,#1535,#1536));
#1528 = ORIENTED_EDGE('',*,*,#192,.F.);
#1529 = ORIENTED_EDGE('',*,*,#1530,.T.);
#1530 = EDGE_CURVE('',#193,#696,#1531,.T.);
#1531 = LINE('',#1532,#1533);
#1532 = CARTESIAN_POINT('',(-3.1,1.93E-15,8.7));
#1533 = VECTOR('',#1534,1.);
#1534 = DIRECTION('',(0.,-1.,2.2E-16));
#1535 = ORIENTED_EDGE('',*,*,#695,.T.);
#1536 = ORIENTED_EDGE('',*,*,#1496,.F.);
#1537 = PLANE('',#1538);
#1538 = AXIS2_PLACEMENT_3D('',#1539,#1540,#1541);
#1539 = CARTESIAN_POINT('',(-3.1,1.93E-15,8.7));
#1540 = DIRECTION('',(-0.933345606203,-8.E-17,-0.358979079309));
#1541 = DIRECTION('',(-0.358979079309,2.1E-16,0.933345606203));
#1542 = ADVANCED_FACE('',(#1543),#1554,.F.);
#1543 = FACE_BOUND('',#1544,.F.);
#1544 = EDGE_LOOP('',(#1545,#1546,#1547,#1548));
#1545 = ORIENTED_EDGE('',*,*,#369,.F.);
#1546 = ORIENTED_EDGE('',*,*,#1515,.T.);
#1547 = ORIENTED_EDGE('',*,*,#872,.T.);
#1548 = ORIENTED_EDGE('',*,*,#1549,.F.);
#1549 = EDGE_CURVE('',#362,#865,#1550,.T.);
#1550 = LINE('',#1551,#1552);
#1551 = CARTESIAN_POINT('',(8.2,1.82E-15,-5.5));
#1552 = VECTOR('',#1553,1.);
#1553 = DIRECTION('',(2.2E-16,-1.,0.));
#1554 = PLANE('',#1555);
#1555 = AXIS2_PLACEMENT_3D('',#1556,#1557,#1558);
#1556 = CARTESIAN_POINT('',(8.2,1.82E-15,-3.1));
#1557 = DIRECTION('',(1.,2.2E-16,0.));
#1558 = DIRECTION('',(0.,0.,-1.));
#1559 = ADVANCED_FACE('',(#1560),#1571,.F.);
#1560 = FACE_BOUND('',#1561,.F.);
#1561 = EDGE_LOOP('',(#1562,#1563,#1569,#1570));
#1562 = ORIENTED_EDGE('',*,*,#200,.F.);
#1563 = ORIENTED_EDGE('',*,*,#1564,.T.);
#1564 = EDGE_CURVE('',#201,#704,#1565,.T.);
#1565 = LINE('',#1566,#1567);
#1566 = CARTESIAN_POINT('',(-3.1,1.82E-15,8.2));
#1567 = VECTOR('',#1568,1.);
#1568 = DIRECTION('',(0.,-1.,2.2E-16));
#1569 = ORIENTED_EDGE('',*,*,#703,.T.);
#1570 = ORIENTED_EDGE('',*,*,#1530,.F.);
#1571 = PLANE('',#1572);
#1572 = AXIS2_PLACEMENT_3D('',#1573,#1574,#1575);
#1573 = CARTESIAN_POINT('',(-3.1,1.82E-15,8.2));
#1574 = DIRECTION('',(-1.,0.,0.));
#1575 = DIRECTION('',(0.,2.2E-16,1.));
#1576 = ADVANCED_FACE('',(#1577),#1588,.F.);
#1577 = FACE_BOUND('',#1578,.F.);
#1578 = EDGE_LOOP('',(#1579,#1580,#1581,#1582));
#1579 = ORIENTED_EDGE('',*,*,#361,.F.);
#1580 = ORIENTED_EDGE('',*,*,#1549,.T.);
#1581 = ORIENTED_EDGE('',*,*,#864,.T.);
#1582 = ORIENTED_EDGE('',*,*,#1583,.F.);
#1583 = EDGE_CURVE('',#354,#857,#1584,.T.);
#1584 = LINE('',#1585,#1586);
#1585 = CARTESIAN_POINT('',(6.3,1.4E-15,-5.5));
#1586 = VECTOR('',#1587,1.);
#1587 = DIRECTION('',(2.2E-16,-1.,0.));
#1588 = PLANE('',#1589);
#1589 = AXIS2_PLACEMENT_3D('',#1590,#1591,#1592);
#1590 = CARTESIAN_POINT('',(8.2,1.82E-15,-5.5));
#1591 = DIRECTION('',(0.,0.,-1.));
#1592 = DIRECTION('',(-1.,-2.2E-16,-0.));
#1593 = ADVANCED_FACE('',(#1594),#1605,.F.);
#1594 = FACE_BOUND('',#1595,.F.);
#1595 = EDGE_LOOP('',(#1596,#1597,#1603,#1604));
#1596 = ORIENTED_EDGE('',*,*,#208,.F.);
#1597 = ORIENTED_EDGE('',*,*,#1598,.T.);
#1598 = EDGE_CURVE('',#209,#712,#1599,.T.);
#1599 = LINE('',#1600,#1601);
#1600 = CARTESIAN_POINT('',(-5.5,1.82E-15,8.2));
#1601 = VECTOR('',#1602,1.);
#1602 = DIRECTION('',(0.,-1.,2.2E-16));
#1603 = ORIENTED_EDGE('',*,*,#711,.T.);
#1604 = ORIENTED_EDGE('',*,*,#1564,.F.);
#1605 = PLANE('',#1606);
#1606 = AXIS2_PLACEMENT_3D('',#1607,#1608,#1609);
#1607 = CARTESIAN_POINT('',(-5.5,1.82E-15,8.2));
#1608 = DIRECTION('',(0.,2.2E-16,1.));
#1609 = DIRECTION('',(1.,0.,0.));
#1610 = ADVANCED_FACE('',(#1611),#1622,.F.);
#1611 = FACE_BOUND('',#1612,.F.);
#1612 = EDGE_LOOP('',(#1613,#1614,#1615,#1616));
#1613 = ORIENTED_EDGE('',*,*,#353,.F.);
#1614 = ORIENTED_EDGE('',*,*,#1583,.T.);
#1615 = ORIENTED_EDGE('',*,*,#856,.T.);
#1616 = ORIENTED_EDGE('',*,*,#1617,.F.);
#1617 = EDGE_CURVE('',#346,#849,#1618,.T.);
#1618 = LINE('',#1619,#1620);
#1619 = CARTESIAN_POINT('',(3.9,8.7E-16,-3.1));
#1620 = VECTOR('',#1621,1.);
#1621 = DIRECTION('',(2.2E-16,-1.,0.));
#1622 = PLANE('',#1623);
#1623 = AXIS2_PLACEMENT_3D('',#1624,#1625,#1626);
#1624 = CARTESIAN_POINT('',(6.3,1.4E-15,-5.5));
#1625 = DIRECTION('',(-0.707106781187,-1.6E-16,-0.707106781187));
#1626 = DIRECTION('',(-0.707106781187,-1.6E-16,0.707106781187));
#1627 = ADVANCED_FACE('',(#1628),#1639,.F.);
#1628 = FACE_BOUND('',#1629,.F.);
#1629 = EDGE_LOOP('',(#1630,#1631,#1637,#1638));
#1630 = ORIENTED_EDGE('',*,*,#216,.F.);
#1631 = ORIENTED_EDGE('',*,*,#1632,.T.);
#1632 = EDGE_CURVE('',#217,#720,#1633,.T.);
#1633 = LINE('',#1634,#1635);
#1634 = CARTESIAN_POINT('',(-5.5,1.4E-15,6.3));
#1635 = VECTOR('',#1636,1.);
#1636 = DIRECTION('',(0.,-1.,2.2E-16));
#1637 = ORIENTED_EDGE('',*,*,#719,.T.);
#1638 = ORIENTED_EDGE('',*,*,#1598,.F.);
#1639 = PLANE('',#1640);
#1640 = AXIS2_PLACEMENT_3D('',#1641,#1642,#1643);
#1641 = CARTESIAN_POINT('',(-5.5,1.4E-15,6.3));
#1642 = DIRECTION('',(-1.,0.,0.));
#1643 = DIRECTION('',(0.,2.2E-16,1.));
#1644 = ADVANCED_FACE('',(#1645),#1656,.F.);
#1645 = FACE_BOUND('',#1646,.F.);
#1646 = EDGE_LOOP('',(#1647,#1648,#1649,#1650));
#1647 = ORIENTED_EDGE('',*,*,#345,.F.);
#1648 = ORIENTED_EDGE('',*,*,#1617,.T.);
#1649 = ORIENTED_EDGE('',*,*,#848,.T.);
#1650 = ORIENTED_EDGE('',*,*,#1651,.F.);
#1651 = EDGE_CURVE('',#338,#841,#1652,.T.);
#1652 = LINE('',#1653,#1654);
#1653 = CARTESIAN_POINT('',(3.9,8.7E-16,3.1));
#1654 = VECTOR('',#1655,1.);
#1655 = DIRECTION('',(2.2E-16,-1.,0.));
#1656 = PLANE('',#1657);
#1657 = AXIS2_PLACEMENT_3D('',#1658,#1659,#1660);
#1658 = CARTESIAN_POINT('',(3.9,8.7E-16,-3.1));
#1659 = DIRECTION('',(-1.,-2.2E-16,0.));
#1660 = DIRECTION('',(0.,0.,1.));
#1661 = ADVANCED_FACE('',(#1662),#1673,.F.);
#1662 = FACE_BOUND('',#1663,.F.);
#1663 = EDGE_LOOP('',(#1664,#1665,#1671,#1672));
#1664 = ORIENTED_EDGE('',*,*,#224,.F.);
#1665 = ORIENTED_EDGE('',*,*,#1666,.T.);
#1666 = EDGE_CURVE('',#225,#728,#1667,.T.);
#1667 = LINE('',#1668,#1669);
#1668 = CARTESIAN_POINT('',(-3.1,8.7E-16,3.9));
#1669 = VECTOR('',#1670,1.);
#1670 = DIRECTION('',(0.,-1.,2.2E-16));
#1671 = ORIENTED_EDGE('',*,*,#727,.T.);
#1672 = ORIENTED_EDGE('',*,*,#1632,.F.);
#1673 = PLANE('',#1674);
#1674 = AXIS2_PLACEMENT_3D('',#1675,#1676,#1677);
#1675 = CARTESIAN_POINT('',(-3.1,8.7E-16,3.9));
#1676 = DIRECTION('',(-0.707106781187,-1.6E-16,-0.707106781187));
#1677 = DIRECTION('',(-0.707106781187,1.6E-16,0.707106781187));
#1678 = ADVANCED_FACE('',(#1679),#1690,.F.);
#1679 = FACE_BOUND('',#1680,.F.);
#1680 = EDGE_LOOP('',(#1681,#1682,#1683,#1684));
#1681 = ORIENTED_EDGE('',*,*,#337,.F.);
#1682 = ORIENTED_EDGE('',*,*,#1651,.T.);
#1683 = ORIENTED_EDGE('',*,*,#840,.T.);
#1684 = ORIENTED_EDGE('',*,*,#1685,.F.);
#1685 = EDGE_CURVE('',#330,#833,#1686,.T.);
#1686 = LINE('',#1687,#1688);
#1687 = CARTESIAN_POINT('',(6.3,1.4E-15,5.5));
#1688 = VECTOR('',#1689,1.);
#1689 = DIRECTION('',(2.2E-16,-1.,0.));
#1690 = PLANE('',#1691);
#1691 = AXIS2_PLACEMENT_3D('',#1692,#1693,#1694);
#1692 = CARTESIAN_POINT('',(3.9,8.7E-16,3.1));
#1693 = DIRECTION('',(-0.707106781187,-1.6E-16,0.707106781187));
#1694 = DIRECTION('',(0.707106781187,1.6E-16,0.707106781187));
#1695 = ADVANCED_FACE('',(#1696),#1707,.F.);
#1696 = FACE_BOUND('',#1697,.F.);
#1697 = EDGE_LOOP('',(#1698,#1699,#1705,#1706));
#1698 = ORIENTED_EDGE('',*,*,#232,.F.);
#1699 = ORIENTED_EDGE('',*,*,#1700,.T.);
#1700 = EDGE_CURVE('',#233,#736,#1701,.T.);
#1701 = LINE('',#1702,#1703);
#1702 = CARTESIAN_POINT('',(3.1,8.7E-16,3.9));
#1703 = VECTOR('',#1704,1.);
#1704 = DIRECTION('',(0.,-1.,2.2E-16));
#1705 = ORIENTED_EDGE('',*,*,#735,.T.);
#1706 = ORIENTED_EDGE('',*,*,#1666,.F.);
#1707 = PLANE('',#1708);
#1708 = AXIS2_PLACEMENT_3D('',#1709,#1710,#1711);
#1709 = CARTESIAN_POINT('',(3.1,8.7E-16,3.9));
#1710 = DIRECTION('',(-0.,-2.2E-16,-1.));
#1711 = DIRECTION('',(-1.,0.,0.));
#1712 = ADVANCED_FACE('',(#1713),#1724,.F.);
#1713 = FACE_BOUND('',#1714,.F.);
#1714 = EDGE_LOOP('',(#1715,#1716,#1717,#1718));
#1715 = ORIENTED_EDGE('',*,*,#329,.F.);
#1716 = ORIENTED_EDGE('',*,*,#1685,.T.);
#1717 = ORIENTED_EDGE('',*,*,#832,.T.);
#1718 = ORIENTED_EDGE('',*,*,#1719,.F.);
#1719 = EDGE_CURVE('',#322,#825,#1720,.T.);
#1720 = LINE('',#1721,#1722);
#1721 = CARTESIAN_POINT('',(8.2,1.82E-15,5.5));
#1722 = VECTOR('',#1723,1.);
#1723 = DIRECTION('',(2.2E-16,-1.,0.));
#1724 = PLANE('',#1725);
#1725 = AXIS2_PLACEMENT_3D('',#1726,#1727,#1728);
#1726 = CARTESIAN_POINT('',(6.3,1.4E-15,5.5));
#1727 = DIRECTION('',(0.,0.,1.));
#1728 = DIRECTION('',(1.,2.2E-16,0.));
#1729 = ADVANCED_FACE('',(#1730),#1741,.F.);
#1730 = FACE_BOUND('',#1731,.F.);
#1731 = EDGE_LOOP('',(#1732,#1733,#1739,#1740));
#1732 = ORIENTED_EDGE('',*,*,#240,.F.);
#1733 = ORIENTED_EDGE('',*,*,#1734,.T.);
#1734 = EDGE_CURVE('',#241,#744,#1735,.T.);
#1735 = LINE('',#1736,#1737);
#1736 = CARTESIAN_POINT('',(5.5,1.4E-15,6.3));
#1737 = VECTOR('',#1738,1.);
#1738 = DIRECTION('',(0.,-1.,2.2E-16));
#1739 = ORIENTED_EDGE('',*,*,#743,.T.);
#1740 = ORIENTED_EDGE('',*,*,#1700,.F.);
#1741 = PLANE('',#1742);
#1742 = AXIS2_PLACEMENT_3D('',#1743,#1744,#1745);
#1743 = CARTESIAN_POINT('',(5.5,1.4E-15,6.3));
#1744 = DIRECTION('',(0.707106781187,-1.6E-16,-0.707106781187));
#1745 = DIRECTION('',(-0.707106781187,-1.6E-16,-0.707106781187));
#1746 = ADVANCED_FACE('',(#1747),#1758,.F.);
#1747 = FACE_BOUND('',#1748,.F.);
#1748 = EDGE_LOOP('',(#1749,#1750,#1751,#1752));
#1749 = ORIENTED_EDGE('',*,*,#321,.F.);
#1750 = ORIENTED_EDGE('',*,*,#1719,.T.);
#1751 = ORIENTED_EDGE('',*,*,#824,.T.);
#1752 = ORIENTED_EDGE('',*,*,#1753,.F.);
#1753 = EDGE_CURVE('',#314,#817,#1754,.T.);
#1754 = LINE('',#1755,#1756);
#1755 = CARTESIAN_POINT('',(8.2,1.82E-15,3.1));
#1756 = VECTOR('',#1757,1.);
#1757 = DIRECTION('',(2.2E-16,-1.,0.));
#1758 = PLANE('',#1759);
#1759 = AXIS2_PLACEMENT_3D('',#1760,#1761,#1762);
#1760 = CARTESIAN_POINT('',(8.2,1.82E-15,5.5));
#1761 = DIRECTION('',(1.,2.2E-16,0.));
#1762 = DIRECTION('',(0.,0.,-1.));
#1763 = ADVANCED_FACE('',(#1764),#1775,.F.);
#1764 = FACE_BOUND('',#1765,.F.);
#1765 = EDGE_LOOP('',(#1766,#1767,#1773,#1774));
#1766 = ORIENTED_EDGE('',*,*,#248,.F.);
#1767 = ORIENTED_EDGE('',*,*,#1768,.T.);
#1768 = EDGE_CURVE('',#249,#752,#1769,.T.);
#1769 = LINE('',#1770,#1771);
#1770 = CARTESIAN_POINT('',(5.5,1.82E-15,8.2));
#1771 = VECTOR('',#1772,1.);
#1772 = DIRECTION('',(0.,-1.,2.2E-16));
#1773 = ORIENTED_EDGE('',*,*,#751,.T.);
#1774 = ORIENTED_EDGE('',*,*,#1734,.F.);
#1775 = PLANE('',#1776);
#1776 = AXIS2_PLACEMENT_3D('',#1777,#1778,#1779);
#1777 = CARTESIAN_POINT('',(5.5,1.82E-15,8.2));
#1778 = DIRECTION('',(1.,0.,0.));
#1779 = DIRECTION('',(0.,-2.2E-16,-1.));
#1780 = ADVANCED_FACE('',(#1781),#1792,.F.);
#1781 = FACE_BOUND('',#1782,.F.);
#1782 = EDGE_LOOP('',(#1783,#1784,#1785,#1786));
#1783 = ORIENTED_EDGE('',*,*,#313,.F.);
#1784 = ORIENTED_EDGE('',*,*,#1753,.T.);
#1785 = ORIENTED_EDGE('',*,*,#816,.T.);
#1786 = ORIENTED_EDGE('',*,*,#1787,.F.);
#1787 = EDGE_CURVE('',#306,#809,#1788,.T.);
#1788 = LINE('',#1789,#1790);
#1789 = CARTESIAN_POINT('',(8.7,1.93E-15,3.1));
#1790 = VECTOR('',#1791,1.);
#1791 = DIRECTION('',(2.2E-16,-1.,0.));
#1792 = PLANE('',#1793);
#1793 = AXIS2_PLACEMENT_3D('',#1794,#1795,#1796);
#1794 = CARTESIAN_POINT('',(8.2,1.82E-15,3.1));
#1795 = DIRECTION('',(0.,0.,1.));
#1796 = DIRECTION('',(1.,2.2E-16,0.));
#1797 = ADVANCED_FACE('',(#1798),#1809,.F.);
#1798 = FACE_BOUND('',#1799,.F.);
#1799 = EDGE_LOOP('',(#1800,#1801,#1807,#1808));
#1800 = ORIENTED_EDGE('',*,*,#256,.F.);
#1801 = ORIENTED_EDGE('',*,*,#1802,.T.);
#1802 = EDGE_CURVE('',#257,#760,#1803,.T.);
#1803 = LINE('',#1804,#1805);
#1804 = CARTESIAN_POINT('',(3.1,1.82E-15,8.2));
#1805 = VECTOR('',#1806,1.);
#1806 = DIRECTION('',(0.,-1.,2.2E-16));
#1807 = ORIENTED_EDGE('',*,*,#759,.T.);
#1808 = ORIENTED_EDGE('',*,*,#1768,.F.);
#1809 = PLANE('',#1810);
#1810 = AXIS2_PLACEMENT_3D('',#1811,#1812,#1813);
#1811 = CARTESIAN_POINT('',(3.1,1.82E-15,8.2));
#1812 = DIRECTION('',(0.,2.2E-16,1.));
#1813 = DIRECTION('',(1.,0.,0.));
#1814 = ADVANCED_FACE('',(#1815),#1826,.F.);
#1815 = FACE_BOUND('',#1816,.F.);
#1816 = EDGE_LOOP('',(#1817,#1818,#1819,#1820));
#1817 = ORIENTED_EDGE('',*,*,#305,.F.);
#1818 = ORIENTED_EDGE('',*,*,#1787,.T.);
#1819 = ORIENTED_EDGE('',*,*,#808,.T.);
#1820 = ORIENTED_EDGE('',*,*,#1821,.F.);
#1821 = EDGE_CURVE('',#298,#801,#1822,.T.);
#1822 = LINE('',#1823,#1824);
#1823 = CARTESIAN_POINT('',(10.,2.22E-15,3.6));
#1824 = VECTOR('',#1825,1.);
#1825 = DIRECTION('',(2.2E-16,-1.,0.));
#1826 = PLANE('',#1827);
#1827 = AXIS2_PLACEMENT_3D('',#1828,#1829,#1830);
#1828 = CARTESIAN_POINT('',(8.7,1.93E-15,3.1));
#1829 = DIRECTION('',(-0.358979079309,-8.E-17,0.933345606203));
#1830 = DIRECTION('',(0.933345606203,2.1E-16,0.358979079309));
#1831 = ADVANCED_FACE('',(#1832),#1843,.F.);
#1832 = FACE_BOUND('',#1833,.F.);
#1833 = EDGE_LOOP('',(#1834,#1835,#1841,#1842));
#1834 = ORIENTED_EDGE('',*,*,#264,.F.);
#1835 = ORIENTED_EDGE('',*,*,#1836,.T.);
#1836 = EDGE_CURVE('',#265,#768,#1837,.T.);
#1837 = LINE('',#1838,#1839);
#1838 = CARTESIAN_POINT('',(3.1,1.93E-15,8.7));
#1839 = VECTOR('',#1840,1.);
#1840 = DIRECTION('',(0.,-1.,2.2E-16));
#1841 = ORIENTED_EDGE('',*,*,#767,.T.);
#1842 = ORIENTED_EDGE('',*,*,#1802,.F.);
#1843 = PLANE('',#1844);
#1844 = AXIS2_PLACEMENT_3D('',#1845,#1846,#1847);
#1845 = CARTESIAN_POINT('',(3.1,1.93E-15,8.7));
#1846 = DIRECTION('',(1.,0.,0.));
#1847 = DIRECTION('',(0.,-2.2E-16,-1.));
#1848 = ADVANCED_FACE('',(#1849),#1860,.F.);
#1849 = FACE_BOUND('',#1850,.F.);
#1850 = EDGE_LOOP('',(#1851,#1852,#1853,#1854));
#1851 = ORIENTED_EDGE('',*,*,#297,.F.);
#1852 = ORIENTED_EDGE('',*,*,#1821,.T.);
#1853 = ORIENTED_EDGE('',*,*,#800,.T.);
#1854 = ORIENTED_EDGE('',*,*,#1855,.F.);
#1855 = EDGE_CURVE('',#289,#792,#1856,.T.);
#1856 = LINE('',#1857,#1858);
#1857 = CARTESIAN_POINT('',(10.,1.89E-15,8.5));
#1858 = VECTOR('',#1859,1.);
#1859 = DIRECTION('',(0.,-1.,2.2E-16));
#1860 = PLANE('',#1861);
#1861 = AXIS2_PLACEMENT_3D('',#1862,#1863,#1864);
#1862 = CARTESIAN_POINT('',(10.,-2.22E-15,-10.));
#1863 = DIRECTION('',(-1.,0.,0.));
#1864 = DIRECTION('',(0.,2.2E-16,1.));
#1865 = ADVANCED_FACE('',(#1866),#1877,.F.);
#1866 = FACE_BOUND('',#1867,.F.);
#1867 = EDGE_LOOP('',(#1868,#1869,#1875,#1876));
#1868 = ORIENTED_EDGE('',*,*,#272,.F.);
#1869 = ORIENTED_EDGE('',*,*,#1870,.T.);
#1870 = EDGE_CURVE('',#273,#776,#1871,.T.);
#1871 = LINE('',#1872,#1873);
#1872 = CARTESIAN_POINT('',(3.6,2.22E-15,10.));
#1873 = VECTOR('',#1874,1.);
#1874 = DIRECTION('',(0.,-1.,2.2E-16));
#1875 = ORIENTED_EDGE('',*,*,#775,.T.);
#1876 = ORIENTED_EDGE('',*,*,#1836,.F.);
#1877 = PLANE('',#1878);
#1878 = AXIS2_PLACEMENT_3D('',#1879,#1880,#1881);
#1879 = CARTESIAN_POINT('',(3.6,2.22E-15,10.));
#1880 = DIRECTION('',(0.933345606203,-8.E-17,-0.358979079309));
#1881 = DIRECTION('',(-0.358979079309,-2.1E-16,-0.933345606203));
#1882 = ADVANCED_FACE('',(#1883),#1894,.T.);
#1883 = FACE_BOUND('',#1884,.T.);
#1884 = EDGE_LOOP('',(#1885,#1886,#1892,#1893));
#1885 = ORIENTED_EDGE('',*,*,#288,.T.);
#1886 = ORIENTED_EDGE('',*,*,#1887,.T.);
#1887 = EDGE_CURVE('',#281,#784,#1888,.T.);
#1888 = LINE('',#1889,#1890);
#1889 = CARTESIAN_POINT('',(8.5,2.22E-15,10.));
#1890 = VECTOR('',#1891,1.);
#1891 = DIRECTION('',(0.,-1.,2.2E-16));
#1892 = ORIENTED_EDGE('',*,*,#791,.F.);
#1893 = ORIENTED_EDGE('',*,*,#1855,.F.);
#1894 = CYLINDRICAL_SURFACE('',#1895,1.5);
#1895 = AXIS2_PLACEMENT_3D('',#1896,#1897,#1898);
#1896 = CARTESIAN_POINT('',(8.5,1.89E-15,8.5));
#1897 = DIRECTION('',(0.,-1.,2.2E-16));
#1898 = DIRECTION('',(1.,0.,0.));
#1899 = ADVANCED_FACE('',(#1900),#1906,.F.);
#1900 = FACE_BOUND('',#1901,.F.);
#1901 = EDGE_LOOP('',(#1902,#1903,#1904,#1905));
#1902 = ORIENTED_EDGE('',*,*,#280,.F.);
#1903 = ORIENTED_EDGE('',*,*,#1887,.T.);
#1904 = ORIENTED_EDGE('',*,*,#783,.T.);
#1905 = ORIENTED_EDGE('',*,*,#1870,.F.);
#1906 = PLANE('',#1907);
#1907 = AXIS2_PLACEMENT_3D('',#1908,#1909,#1910);
#1908 = CARTESIAN_POINT('',(10.,2.22E-15,10.));
#1909 = DIRECTION('',(-0.,-2.2E-16,-1.));
#1910 = DIRECTION('',(-1.,0.,0.));
#1911 = ADVANCED_FACE('',(#1912),#1923,.F.);
#1912 = FACE_BOUND('',#1913,.T.);
#1913 = EDGE_LOOP('',(#1914,#1920,#1921,#1922));
#1914 = ORIENTED_EDGE('',*,*,#1915,.T.);
#1915 = EDGE_CURVE('',#507,#1003,#1916,.T.);
#1916 = LINE('',#1917,#1918);
#1917 = CARTESIAN_POINT('',(2.5,0.,-2.E-16));
#1918 = VECTOR('',#1919,1.);
#1919 = DIRECTION('',(0.,-1.,2.2E-16));
#1920 = ORIENTED_EDGE('',*,*,#1002,.T.);
#1921 = ORIENTED_EDGE('',*,*,#1915,.F.);
#1922 = ORIENTED_EDGE('',*,*,#506,.F.);
#1923 = CYLINDRICAL_SURFACE('',#1924,2.5);
#1924 = AXIS2_PLACEMENT_3D('',#1925,#1926,#1927);
#1925 = CARTESIAN_POINT('',(0.,0.,-2.E-16));
#1926 = DIRECTION('',(0.,1.,-2.2E-16));
#1927 = DIRECTION('',(1.,0.,0.));
#1928 = ( GEOMETRIC_REPRESENTATION_CONTEXT(3) 
GLOBAL_UNCERTAINTY_ASSIGNED_CONTEXT((#1932)) 
GLOBAL_UNIT_ASSIGNED_CONTEXT((#1929,#1930,#1931)) REPRESENTATION_CONTEXT
('Context #1','3D Context with UNIT and UNCERTAINTY') );
#1929 = ( LENGTH_UNIT() NAMED_UNIT(*) SI_UNIT(.MILLI.,.METRE.) );
#1930 = ( NAMED_UNIT(*) PLANE_ANGLE_UNIT() SI_UNIT($,.RADIAN.) );
#1931 = ( NAMED_UNIT(*) SI_UNIT($,.STERADIAN.) SOLID_ANGLE_UNIT() );
#1932 = UNCERTAINTY_MEASURE_WITH_UNIT(LENGTH_MEASURE(5.E-05),#1929,
  'distance_accuracy_value','confusion accuracy');
#1933 = PRODUCT_RELATED_PRODUCT_CATEGORY('part',$,(#7));
#1934 = MECHANICAL_DESIGN_GEOMETRIC_PRESENTATION_REPRESENTATION('',(
    #1935),#1928);
#1935 = STYLED_ITEM('color',(#1936),#15);
#1936 = PRESENTATION_STYLE_ASSIGNMENT((#1937,#1943));
#1937 = SURFACE_STYLE_USAGE(.BOTH.,#1938);
#1938 = SURFACE_SIDE_STYLE('',(#1939));
#1939 = SURFACE_STYLE_FILL_AREA(#1940);
#1940 = FILL_AREA_STYLE('',(#1941));
#1941 = FILL_AREA_STYLE_COLOUR('',#1942);
#1942 = COLOUR_RGB('',0.301960791261,0.301960791261,0.301960791261);
#1943 = CURVE_STYLE('',#1944,POSITIVE_LENGTH_MEASURE(0.1),#1945);
#1944 = DRAUGHTING_PRE_DEFINED_CURVE_FONT('continuous');
#1945 = COLOUR_RGB('',9.803921802644E-02,9.803921802644E-02,
  9.803921802644E-02);
ENDSEC;
END-ISO-10303-21;
