ISO-10303-21;
HEADER;
/* Generated by software containing ST-Developer
 * from STEP Tools, Inc. (www.steptools.com) 
 */
/* OPTION: using custom renumber hook */

FILE_DESCRIPTION(
/* description */ ('STEP AP203'),
/* implementation_level */ '2;1');

FILE_NAME(
/* name */ 'HNTTSN5-4',
/* time_stamp */ '2026-04-08T05:15:02+02:00',
/* author */ ('License CC BY-ND 4.0'),
/* organization */ ('CADENAS'),
/* preprocessor_version */ 'ST-DEVELOPER v20',
/* originating_system */ 'PARTsolutions',
/* authorisation */ '  ');

FILE_SCHEMA (('CONFIG_CONTROL_DESIGN'));
ENDSEC;

DATA;
#10=PROPERTY_DEFINITION_REPRESENTATION(#14,#12);
#11=PROPERTY_DEFINITION_REPRESENTATION(#15,#13);
#12=REPRESENTATION('',(#16),#592);
#13=REPRESENTATION('',(#17),#592);
#14=PROPERTY_DEFINITION('pmi validation property','',#597);
#15=PROPERTY_DEFINITION('pmi validation property','',#597);
#16=VALUE_REPRESENTATION_ITEM('number of annotations',COUNT_MEASURE(0.));
#17=VALUE_REPRESENTATION_ITEM('number of views',COUNT_MEASURE(0.));
#18=SHAPE_REPRESENTATION_RELATIONSHIP('','',#355,#19);
#19=ADVANCED_BREP_SHAPE_REPRESENTATION('',(#353),#592);
#20=CONICAL_SURFACE('',#387,2.,0.785398163397448);
#21=CONICAL_SURFACE('',#391,1.621,0.785398163397448);
#22=PLANE('',#360);
#23=PLANE('',#365);
#24=PLANE('',#369);
#25=PLANE('',#370);
#26=PLANE('',#374);
#27=PLANE('',#379);
#28=PLANE('',#380);
#29=PLANE('',#384);
#30=PLANE('',#385);
#31=PLANE('',#386);
#32=LINE('',#499,#62);
#33=LINE('',#503,#63);
#34=LINE('',#507,#64);
#35=LINE('',#509,#65);
#36=LINE('',#511,#66);
#37=LINE('',#515,#67);
#38=LINE('',#519,#68);
#39=LINE('',#521,#69);
#40=LINE('',#523,#70);
#41=LINE('',#527,#71);
#42=LINE('',#531,#72);
#43=LINE('',#533,#73);
#44=LINE('',#535,#74);
#45=LINE('',#537,#75);
#46=LINE('',#539,#76);
#47=LINE('',#541,#77);
#48=LINE('',#545,#78);
#49=LINE('',#551,#79);
#50=LINE('',#553,#80);
#51=LINE('',#555,#81);
#52=LINE('',#559,#82);
#53=LINE('',#563,#83);
#54=LINE('',#565,#84);
#55=LINE('',#567,#85);
#56=LINE('',#569,#86);
#57=LINE('',#571,#87);
#58=LINE('',#573,#88);
#59=LINE('',#577,#89);
#60=LINE('',#581,#90);
#61=LINE('',#582,#91);
#62=VECTOR('',#398,1000.);
#63=VECTOR('',#401,1000.);
#64=VECTOR('',#406,1000.);
#65=VECTOR('',#407,1000.);
#66=VECTOR('',#408,1000.);
#67=VECTOR('',#413,1000.);
#68=VECTOR('',#418,1000.);
#69=VECTOR('',#419,1000.);
#70=VECTOR('',#420,1000.);
#71=VECTOR('',#425,1000.);
#72=VECTOR('',#430,1000.);
#73=VECTOR('',#431,1000.);
#74=VECTOR('',#432,1000.);
#75=VECTOR('',#435,1000.);
#76=VECTOR('',#436,1000.);
#77=VECTOR('',#437,1000.);
#78=VECTOR('',#442,1000.);
#79=VECTOR('',#449,1000.);
#80=VECTOR('',#450,1000.);
#81=VECTOR('',#451,1000.);
#82=VECTOR('',#456,1000.);
#83=VECTOR('',#461,1000.);
#84=VECTOR('',#462,1000.);
#85=VECTOR('',#463,1000.);
#86=VECTOR('',#466,1000.);
#87=VECTOR('',#467,1000.);
#88=VECTOR('',#468,1000.);
#89=VECTOR('',#473,1000.);
#90=VECTOR('',#478,1000.);
#91=VECTOR('',#479,1000.);
#92=ORIENTED_EDGE('',*,*,#184,.T.);
#93=ORIENTED_EDGE('',*,*,#185,.F.);
#94=ORIENTED_EDGE('',*,*,#186,.F.);
#95=ORIENTED_EDGE('',*,*,#187,.T.);
#96=ORIENTED_EDGE('',*,*,#188,.T.);
#97=ORIENTED_EDGE('',*,*,#189,.T.);
#98=ORIENTED_EDGE('',*,*,#190,.F.);
#99=ORIENTED_EDGE('',*,*,#191,.F.);
#100=ORIENTED_EDGE('',*,*,#185,.T.);
#101=ORIENTED_EDGE('',*,*,#192,.T.);
#102=ORIENTED_EDGE('',*,*,#193,.F.);
#103=ORIENTED_EDGE('',*,*,#194,.F.);
#104=ORIENTED_EDGE('',*,*,#190,.T.);
#105=ORIENTED_EDGE('',*,*,#195,.T.);
#106=ORIENTED_EDGE('',*,*,#196,.F.);
#107=ORIENTED_EDGE('',*,*,#197,.F.);
#108=ORIENTED_EDGE('',*,*,#193,.T.);
#109=ORIENTED_EDGE('',*,*,#198,.T.);
#110=ORIENTED_EDGE('',*,*,#199,.F.);
#111=ORIENTED_EDGE('',*,*,#200,.F.);
#112=ORIENTED_EDGE('',*,*,#196,.T.);
#113=ORIENTED_EDGE('',*,*,#201,.T.);
#114=ORIENTED_EDGE('',*,*,#202,.F.);
#115=ORIENTED_EDGE('',*,*,#203,.F.);
#116=ORIENTED_EDGE('',*,*,#199,.T.);
#117=ORIENTED_EDGE('',*,*,#204,.T.);
#118=ORIENTED_EDGE('',*,*,#205,.F.);
#119=ORIENTED_EDGE('',*,*,#206,.F.);
#120=ORIENTED_EDGE('',*,*,#202,.T.);
#121=ORIENTED_EDGE('',*,*,#207,.T.);
#122=ORIENTED_EDGE('',*,*,#208,.F.);
#123=ORIENTED_EDGE('',*,*,#209,.F.);
#124=ORIENTED_EDGE('',*,*,#205,.T.);
#125=ORIENTED_EDGE('',*,*,#210,.F.);
#126=ORIENTED_EDGE('',*,*,#211,.T.);
#127=ORIENTED_EDGE('',*,*,#212,.F.);
#128=ORIENTED_EDGE('',*,*,#213,.F.);
#129=ORIENTED_EDGE('',*,*,#208,.T.);
#130=ORIENTED_EDGE('',*,*,#214,.T.);
#131=ORIENTED_EDGE('',*,*,#215,.F.);
#132=ORIENTED_EDGE('',*,*,#216,.F.);
#133=ORIENTED_EDGE('',*,*,#212,.T.);
#134=ORIENTED_EDGE('',*,*,#217,.T.);
#135=ORIENTED_EDGE('',*,*,#218,.F.);
#136=ORIENTED_EDGE('',*,*,#219,.F.);
#137=ORIENTED_EDGE('',*,*,#215,.T.);
#138=ORIENTED_EDGE('',*,*,#220,.T.);
#139=ORIENTED_EDGE('',*,*,#221,.F.);
#140=ORIENTED_EDGE('',*,*,#222,.F.);
#141=ORIENTED_EDGE('',*,*,#218,.T.);
#142=ORIENTED_EDGE('',*,*,#223,.T.);
#143=ORIENTED_EDGE('',*,*,#224,.F.);
#144=ORIENTED_EDGE('',*,*,#225,.F.);
#145=ORIENTED_EDGE('',*,*,#221,.T.);
#146=ORIENTED_EDGE('',*,*,#226,.T.);
#147=ORIENTED_EDGE('',*,*,#187,.F.);
#148=ORIENTED_EDGE('',*,*,#227,.F.);
#149=ORIENTED_EDGE('',*,*,#224,.T.);
#150=ORIENTED_EDGE('',*,*,#186,.T.);
#151=ORIENTED_EDGE('',*,*,#191,.T.);
#152=ORIENTED_EDGE('',*,*,#194,.T.);
#153=ORIENTED_EDGE('',*,*,#197,.T.);
#154=ORIENTED_EDGE('',*,*,#200,.T.);
#155=ORIENTED_EDGE('',*,*,#203,.T.);
#156=ORIENTED_EDGE('',*,*,#206,.T.);
#157=ORIENTED_EDGE('',*,*,#209,.T.);
#158=ORIENTED_EDGE('',*,*,#213,.T.);
#159=ORIENTED_EDGE('',*,*,#216,.T.);
#160=ORIENTED_EDGE('',*,*,#219,.T.);
#161=ORIENTED_EDGE('',*,*,#222,.T.);
#162=ORIENTED_EDGE('',*,*,#225,.T.);
#163=ORIENTED_EDGE('',*,*,#227,.T.);
#164=ORIENTED_EDGE('',*,*,#184,.F.);
#165=ORIENTED_EDGE('',*,*,#226,.F.);
#166=ORIENTED_EDGE('',*,*,#223,.F.);
#167=ORIENTED_EDGE('',*,*,#220,.F.);
#168=ORIENTED_EDGE('',*,*,#217,.F.);
#169=ORIENTED_EDGE('',*,*,#214,.F.);
#170=ORIENTED_EDGE('',*,*,#211,.F.);
#171=ORIENTED_EDGE('',*,*,#207,.F.);
#172=ORIENTED_EDGE('',*,*,#204,.F.);
#173=ORIENTED_EDGE('',*,*,#201,.F.);
#174=ORIENTED_EDGE('',*,*,#198,.F.);
#175=ORIENTED_EDGE('',*,*,#195,.F.);
#176=ORIENTED_EDGE('',*,*,#192,.F.);
#177=ORIENTED_EDGE('',*,*,#189,.F.);
#178=ORIENTED_EDGE('',*,*,#228,.T.);
#179=ORIENTED_EDGE('',*,*,#188,.F.);
#180=ORIENTED_EDGE('',*,*,#229,.T.);
#181=ORIENTED_EDGE('',*,*,#228,.F.);
#182=ORIENTED_EDGE('',*,*,#210,.T.);
#183=ORIENTED_EDGE('',*,*,#229,.F.);
#184=EDGE_CURVE('',#230,#231,#262,.T.);
#185=EDGE_CURVE('',#232,#231,#32,.T.);
#186=EDGE_CURVE('',#233,#232,#263,.T.);
#187=EDGE_CURVE('',#233,#230,#33,.T.);
#188=EDGE_CURVE('',#234,#234,#264,.T.);
#189=EDGE_CURVE('',#231,#235,#34,.T.);
#190=EDGE_CURVE('',#236,#235,#35,.T.);
#191=EDGE_CURVE('',#232,#236,#36,.T.);
#192=EDGE_CURVE('',#235,#237,#265,.T.);
#193=EDGE_CURVE('',#238,#237,#37,.T.);
#194=EDGE_CURVE('',#236,#238,#266,.T.);
#195=EDGE_CURVE('',#237,#239,#38,.T.);
#196=EDGE_CURVE('',#240,#239,#39,.T.);
#197=EDGE_CURVE('',#238,#240,#40,.T.);
#198=EDGE_CURVE('',#239,#241,#267,.T.);
#199=EDGE_CURVE('',#242,#241,#41,.T.);
#200=EDGE_CURVE('',#240,#242,#268,.T.);
#201=EDGE_CURVE('',#241,#243,#42,.T.);
#202=EDGE_CURVE('',#244,#243,#43,.T.);
#203=EDGE_CURVE('',#242,#244,#44,.T.);
#204=EDGE_CURVE('',#243,#245,#45,.T.);
#205=EDGE_CURVE('',#246,#245,#46,.T.);
#206=EDGE_CURVE('',#244,#246,#47,.T.);
#207=EDGE_CURVE('',#245,#247,#269,.T.);
#208=EDGE_CURVE('',#248,#247,#48,.T.);
#209=EDGE_CURVE('',#246,#248,#270,.T.);
#210=EDGE_CURVE('',#249,#249,#271,.T.);
#211=EDGE_CURVE('',#247,#250,#49,.T.);
#212=EDGE_CURVE('',#251,#250,#50,.T.);
#213=EDGE_CURVE('',#248,#251,#51,.T.);
#214=EDGE_CURVE('',#250,#252,#272,.T.);
#215=EDGE_CURVE('',#253,#252,#52,.T.);
#216=EDGE_CURVE('',#251,#253,#273,.T.);
#217=EDGE_CURVE('',#252,#254,#53,.T.);
#218=EDGE_CURVE('',#255,#254,#54,.T.);
#219=EDGE_CURVE('',#253,#255,#55,.T.);
#220=EDGE_CURVE('',#254,#256,#56,.T.);
#221=EDGE_CURVE('',#257,#256,#57,.T.);
#222=EDGE_CURVE('',#255,#257,#58,.T.);
#223=EDGE_CURVE('',#256,#258,#274,.T.);
#224=EDGE_CURVE('',#259,#258,#59,.T.);
#225=EDGE_CURVE('',#257,#259,#275,.T.);
#226=EDGE_CURVE('',#258,#230,#60,.T.);
#227=EDGE_CURVE('',#259,#233,#61,.T.);
#228=EDGE_CURVE('',#260,#260,#276,.T.);
#229=EDGE_CURVE('',#261,#261,#277,.T.);
#230=VERTEX_POINT('',#497);
#231=VERTEX_POINT('',#498);
#232=VERTEX_POINT('',#500);
#233=VERTEX_POINT('',#502);
#234=VERTEX_POINT('',#506);
#235=VERTEX_POINT('',#508);
#236=VERTEX_POINT('',#510);
#237=VERTEX_POINT('',#514);
#238=VERTEX_POINT('',#516);
#239=VERTEX_POINT('',#520);
#240=VERTEX_POINT('',#522);
#241=VERTEX_POINT('',#526);
#242=VERTEX_POINT('',#528);
#243=VERTEX_POINT('',#532);
#244=VERTEX_POINT('',#534);
#245=VERTEX_POINT('',#538);
#246=VERTEX_POINT('',#540);
#247=VERTEX_POINT('',#544);
#248=VERTEX_POINT('',#546);
#249=VERTEX_POINT('',#550);
#250=VERTEX_POINT('',#552);
#251=VERTEX_POINT('',#554);
#252=VERTEX_POINT('',#558);
#253=VERTEX_POINT('',#560);
#254=VERTEX_POINT('',#564);
#255=VERTEX_POINT('',#566);
#256=VERTEX_POINT('',#570);
#257=VERTEX_POINT('',#572);
#258=VERTEX_POINT('',#576);
#259=VERTEX_POINT('',#578);
#260=VERTEX_POINT('',#587);
#261=VERTEX_POINT('',#590);
#262=CIRCLE('',#358,0.3);
#263=CIRCLE('',#359,0.3);
#264=CIRCLE('',#361,2.);
#265=CIRCLE('',#363,0.300000000000002);
#266=CIRCLE('',#364,0.300000000000002);
#267=CIRCLE('',#367,0.3802);
#268=CIRCLE('',#368,0.3802);
#269=CIRCLE('',#372,0.2);
#270=CIRCLE('',#373,0.2);
#271=CIRCLE('',#375,2.);
#272=CIRCLE('',#377,0.200000000000001);
#273=CIRCLE('',#378,0.200000000000001);
#274=CIRCLE('',#382,0.3802);
#275=CIRCLE('',#383,0.3802);
#276=CIRCLE('',#388,1.621);
#277=CIRCLE('',#390,1.621);
#278=EDGE_LOOP('',(#92,#93,#94,#95));
#279=EDGE_LOOP('',(#96));
#280=EDGE_LOOP('',(#97,#98,#99,#100));
#281=EDGE_LOOP('',(#101,#102,#103,#104));
#282=EDGE_LOOP('',(#105,#106,#107,#108));
#283=EDGE_LOOP('',(#109,#110,#111,#112));
#284=EDGE_LOOP('',(#113,#114,#115,#116));
#285=EDGE_LOOP('',(#117,#118,#119,#120));
#286=EDGE_LOOP('',(#121,#122,#123,#124));
#287=EDGE_LOOP('',(#125));
#288=EDGE_LOOP('',(#126,#127,#128,#129));
#289=EDGE_LOOP('',(#130,#131,#132,#133));
#290=EDGE_LOOP('',(#134,#135,#136,#137));
#291=EDGE_LOOP('',(#138,#139,#140,#141));
#292=EDGE_LOOP('',(#142,#143,#144,#145));
#293=EDGE_LOOP('',(#146,#147,#148,#149));
#294=EDGE_LOOP('',(#150,#151,#152,#153,#154,#155,#156,#157,#158,#159,#160,
#161,#162,#163));
#295=EDGE_LOOP('',(#164,#165,#166,#167,#168,#169,#170,#171,#172,#173,#174,
#175,#176,#177));
#296=EDGE_LOOP('',(#178));
#297=EDGE_LOOP('',(#179));
#298=EDGE_LOOP('',(#180));
#299=EDGE_LOOP('',(#181));
#300=EDGE_LOOP('',(#182));
#301=EDGE_LOOP('',(#183));
#302=FACE_BOUND('',#278,.T.);
#303=FACE_BOUND('',#279,.T.);
#304=FACE_BOUND('',#280,.T.);
#305=FACE_BOUND('',#281,.T.);
#306=FACE_BOUND('',#282,.T.);
#307=FACE_BOUND('',#283,.T.);
#308=FACE_BOUND('',#284,.T.);
#309=FACE_BOUND('',#285,.T.);
#310=FACE_BOUND('',#286,.T.);
#311=FACE_BOUND('',#287,.T.);
#312=FACE_BOUND('',#288,.T.);
#313=FACE_BOUND('',#289,.T.);
#314=FACE_BOUND('',#290,.T.);
#315=FACE_BOUND('',#291,.T.);
#316=FACE_BOUND('',#292,.T.);
#317=FACE_BOUND('',#293,.T.);
#318=FACE_BOUND('',#294,.T.);
#319=FACE_BOUND('',#295,.T.);
#320=FACE_BOUND('',#296,.T.);
#321=FACE_BOUND('',#297,.T.);
#322=FACE_BOUND('',#298,.T.);
#323=FACE_BOUND('',#299,.T.);
#324=FACE_BOUND('',#300,.T.);
#325=FACE_BOUND('',#301,.T.);
#326=CYLINDRICAL_SURFACE('',#357,0.3);
#327=CYLINDRICAL_SURFACE('',#362,0.300000000000002);
#328=CYLINDRICAL_SURFACE('',#366,0.3802);
#329=CYLINDRICAL_SURFACE('',#371,0.2);
#330=CYLINDRICAL_SURFACE('',#376,0.200000000000001);
#331=CYLINDRICAL_SURFACE('',#381,0.3802);
#332=CYLINDRICAL_SURFACE('',#389,1.621);
#333=ADVANCED_FACE('',(#302),#326,.T.);
#334=ADVANCED_FACE('',(#303,#304),#22,.F.);
#335=ADVANCED_FACE('',(#305),#327,.T.);
#336=ADVANCED_FACE('',(#306),#23,.F.);
#337=ADVANCED_FACE('',(#307),#328,.T.);
#338=ADVANCED_FACE('',(#308),#24,.F.);
#339=ADVANCED_FACE('',(#309),#25,.F.);
#340=ADVANCED_FACE('',(#310),#329,.T.);
#341=ADVANCED_FACE('',(#311,#312),#26,.F.);
#342=ADVANCED_FACE('',(#313),#330,.T.);
#343=ADVANCED_FACE('',(#314),#27,.F.);
#344=ADVANCED_FACE('',(#315),#28,.F.);
#345=ADVANCED_FACE('',(#316),#331,.T.);
#346=ADVANCED_FACE('',(#317),#29,.F.);
#347=ADVANCED_FACE('',(#318),#30,.T.);
#348=ADVANCED_FACE('',(#319),#31,.F.);
#349=ADVANCED_FACE('',(#320,#321),#20,.F.);
#350=ADVANCED_FACE('',(#322,#323),#332,.F.);
#351=ADVANCED_FACE('',(#324,#325),#21,.F.);
#352=CLOSED_SHELL('',(#333,#334,#335,#336,#337,#338,#339,#340,#341,#342,
#343,#344,#345,#346,#347,#348,#349,#350,#351));
#353=MANIFOLD_SOLID_BREP('HNTTSN5-4',#352);
#354=SHAPE_DEFINITION_REPRESENTATION(#597,#355);
#355=SHAPE_REPRESENTATION('HNTTSN5-4',(#356),#592);
#356=AXIS2_PLACEMENT_3D('',#494,#392,#393);
#357=AXIS2_PLACEMENT_3D('',#495,#394,#395);
#358=AXIS2_PLACEMENT_3D('',#496,#396,#397);
#359=AXIS2_PLACEMENT_3D('',#501,#399,#400);
#360=AXIS2_PLACEMENT_3D('',#504,#402,#403);
#361=AXIS2_PLACEMENT_3D('',#505,#404,#405);
#362=AXIS2_PLACEMENT_3D('',#512,#409,#410);
#363=AXIS2_PLACEMENT_3D('',#513,#411,#412);
#364=AXIS2_PLACEMENT_3D('',#517,#414,#415);
#365=AXIS2_PLACEMENT_3D('',#518,#416,#417);
#366=AXIS2_PLACEMENT_3D('',#524,#421,#422);
#367=AXIS2_PLACEMENT_3D('',#525,#423,#424);
#368=AXIS2_PLACEMENT_3D('',#529,#426,#427);
#369=AXIS2_PLACEMENT_3D('',#530,#428,#429);
#370=AXIS2_PLACEMENT_3D('',#536,#433,#434);
#371=AXIS2_PLACEMENT_3D('',#542,#438,#439);
#372=AXIS2_PLACEMENT_3D('',#543,#440,#441);
#373=AXIS2_PLACEMENT_3D('',#547,#443,#444);
#374=AXIS2_PLACEMENT_3D('',#548,#445,#446);
#375=AXIS2_PLACEMENT_3D('',#549,#447,#448);
#376=AXIS2_PLACEMENT_3D('',#556,#452,#453);
#377=AXIS2_PLACEMENT_3D('',#557,#454,#455);
#378=AXIS2_PLACEMENT_3D('',#561,#457,#458);
#379=AXIS2_PLACEMENT_3D('',#562,#459,#460);
#380=AXIS2_PLACEMENT_3D('',#568,#464,#465);
#381=AXIS2_PLACEMENT_3D('',#574,#469,#470);
#382=AXIS2_PLACEMENT_3D('',#575,#471,#472);
#383=AXIS2_PLACEMENT_3D('',#579,#474,#475);
#384=AXIS2_PLACEMENT_3D('',#580,#476,#477);
#385=AXIS2_PLACEMENT_3D('',#583,#480,#481);
#386=AXIS2_PLACEMENT_3D('',#584,#482,#483);
#387=AXIS2_PLACEMENT_3D('',#585,#484,#485);
#388=AXIS2_PLACEMENT_3D('',#586,#486,#487);
#389=AXIS2_PLACEMENT_3D('',#588,#488,#489);
#390=AXIS2_PLACEMENT_3D('',#589,#490,#491);
#391=AXIS2_PLACEMENT_3D('',#591,#492,#493);
#392=DIRECTION('',(0.,0.,1.));
#393=DIRECTION('',(1.,0.,0.));
#394=DIRECTION('',(0.,0.,-1.));
#395=DIRECTION('',(-1.,0.,0.));
#396=DIRECTION('',(0.,0.,1.));
#397=DIRECTION('',(1.,0.,0.));
#398=DIRECTION('',(0.,0.,-1.));
#399=DIRECTION('',(0.,0.,1.));
#400=DIRECTION('',(1.,0.,0.));
#401=DIRECTION('',(0.,0.,-1.));
#402=DIRECTION('',(1.,0.,0.));
#403=DIRECTION('',(0.,0.,-1.));
#404=DIRECTION('',(1.,0.,0.));
#405=DIRECTION('',(0.,0.,-1.));
#406=DIRECTION('',(0.,-1.,0.));
#407=DIRECTION('',(0.,0.,-1.));
#408=DIRECTION('',(0.,-1.,0.));
#409=DIRECTION('',(0.,0.,-1.));
#410=DIRECTION('',(-1.,0.,0.));
#411=DIRECTION('',(0.,0.,1.));
#412=DIRECTION('',(1.,0.,0.));
#413=DIRECTION('',(0.,0.,-1.));
#414=DIRECTION('',(0.,0.,1.));
#415=DIRECTION('',(1.,0.,0.));
#416=DIRECTION('',(0.573462344363326,0.819231920519042,0.));
#417=DIRECTION('',(-0.819231920519042,0.573462344363326,0.));
#418=DIRECTION('',(0.819231920519042,-0.573462344363326,0.));
#419=DIRECTION('',(0.,0.,-1.));
#420=DIRECTION('',(0.819231920519042,-0.573462344363326,0.));
#421=DIRECTION('',(0.,0.,-1.));
#422=DIRECTION('',(-1.,0.,0.));
#423=DIRECTION('',(0.,0.,1.));
#424=DIRECTION('',(1.,0.,0.));
#425=DIRECTION('',(0.,0.,-1.));
#426=DIRECTION('',(0.,0.,1.));
#427=DIRECTION('',(1.,0.,0.));
#428=DIRECTION('',(-1.,0.,0.));
#429=DIRECTION('',(0.,0.,1.));
#430=DIRECTION('',(0.,1.,0.));
#431=DIRECTION('',(0.,0.,-1.));
#432=DIRECTION('',(0.,1.,0.));
#433=DIRECTION('',(0.,1.,0.));
#434=DIRECTION('',(0.,0.,1.));
#435=DIRECTION('',(1.,0.,0.));
#436=DIRECTION('',(0.,0.,-1.));
#437=DIRECTION('',(1.,0.,0.));
#438=DIRECTION('',(0.,0.,-1.));
#439=DIRECTION('',(-1.,0.,0.));
#440=DIRECTION('',(0.,0.,1.));
#441=DIRECTION('',(1.,0.,0.));
#442=DIRECTION('',(0.,0.,-1.));
#443=DIRECTION('',(0.,0.,1.));
#444=DIRECTION('',(1.,0.,0.));
#445=DIRECTION('',(-1.,0.,0.));
#446=DIRECTION('',(0.,0.,1.));
#447=DIRECTION('',(1.,0.,0.));
#448=DIRECTION('',(0.,0.,-1.));
#449=DIRECTION('',(0.,1.,0.));
#450=DIRECTION('',(0.,0.,-1.));
#451=DIRECTION('',(0.,1.,0.));
#452=DIRECTION('',(0.,0.,-1.));
#453=DIRECTION('',(-1.,0.,0.));
#454=DIRECTION('',(0.,0.,1.));
#455=DIRECTION('',(1.,0.,0.));
#456=DIRECTION('',(0.,0.,-1.));
#457=DIRECTION('',(0.,0.,1.));
#458=DIRECTION('',(1.,0.,0.));
#459=DIRECTION('',(0.,-1.,0.));
#460=DIRECTION('',(0.,0.,-1.));
#461=DIRECTION('',(-1.,0.,0.));
#462=DIRECTION('',(0.,0.,-1.));
#463=DIRECTION('',(-1.,0.,0.));
#464=DIRECTION('',(-1.,0.,0.));
#465=DIRECTION('',(0.,0.,1.));
#466=DIRECTION('',(0.,1.,0.));
#467=DIRECTION('',(0.,0.,-1.));
#468=DIRECTION('',(0.,1.,0.));
#469=DIRECTION('',(0.,0.,-1.));
#470=DIRECTION('',(-1.,0.,0.));
#471=DIRECTION('',(0.,0.,1.));
#472=DIRECTION('',(1.,0.,0.));
#473=DIRECTION('',(0.,0.,-1.));
#474=DIRECTION('',(0.,0.,1.));
#475=DIRECTION('',(1.,0.,0.));
#476=DIRECTION('',(0.573462344363329,-0.81923192051904,0.));
#477=DIRECTION('',(0.81923192051904,0.573462344363329,0.));
#478=DIRECTION('',(-0.81923192051904,-0.573462344363329,0.));
#479=DIRECTION('',(-0.81923192051904,-0.573462344363329,0.));
#480=DIRECTION('',(0.,0.,1.));
#481=DIRECTION('',(1.,0.,0.));
#482=DIRECTION('',(0.,0.,1.));
#483=DIRECTION('',(1.,0.,0.));
#484=DIRECTION('',(-1.,0.,0.));
#485=DIRECTION('',(0.,0.,1.));
#486=DIRECTION('',(1.,0.,0.));
#487=DIRECTION('',(0.,0.,-1.));
#488=DIRECTION('',(1.,0.,0.));
#489=DIRECTION('',(0.,0.,-1.));
#490=DIRECTION('',(1.,0.,0.));
#491=DIRECTION('',(0.,0.,-1.));
#492=DIRECTION('',(1.,0.,0.));
#493=DIRECTION('',(0.,0.,-1.));
#494=CARTESIAN_POINT('',(0.,0.,0.));
#495=CARTESIAN_POINT('',(-4.,2.74380333152799,5.));
#496=CARTESIAN_POINT('',(-4.,2.74380333152799,-5.));
#497=CARTESIAN_POINT('',(-4.172038703309,2.98957290768371,-5.));
#498=CARTESIAN_POINT('',(-4.3,2.74380333152799,-5.));
#499=CARTESIAN_POINT('',(-4.3,2.74380333152799,5.));
#500=CARTESIAN_POINT('',(-4.3,2.74380333152799,5.));
#501=CARTESIAN_POINT('',(-4.,2.74380333152799,5.));
#502=CARTESIAN_POINT('',(-4.172038703309,2.98957290768371,5.));
#503=CARTESIAN_POINT('',(-4.172038703309,2.98957290768371,5.));
#504=CARTESIAN_POINT('',(-4.3,2.74380333152799,5.));
#505=CARTESIAN_POINT('',(-4.3,0.,0.));
#506=CARTESIAN_POINT('',(-4.3,0.,-2.));
#507=CARTESIAN_POINT('',(-4.3,2.74380333152799,-5.));
#508=CARTESIAN_POINT('',(-4.3,-2.74380333152799,-5.));
#509=CARTESIAN_POINT('',(-4.3,-2.74380333152799,5.));
#510=CARTESIAN_POINT('',(-4.3,-2.74380333152799,5.));
#511=CARTESIAN_POINT('',(-4.3,2.74380333152799,5.));
#512=CARTESIAN_POINT('',(-4.,-2.74380333152799,5.));
#513=CARTESIAN_POINT('',(-4.,-2.74380333152799,-5.));
#514=CARTESIAN_POINT('',(-4.172038703309,-2.98957290768371,-5.));
#515=CARTESIAN_POINT('',(-4.172038703309,-2.98957290768371,5.));
#516=CARTESIAN_POINT('',(-4.172038703309,-2.98957290768371,5.));
#517=CARTESIAN_POINT('',(-4.,-2.74380333152799,5.));
#518=CARTESIAN_POINT('',(-4.172038703309,-2.98957290768371,5.));
#519=CARTESIAN_POINT('',(-4.172038703309,-2.98957290768371,-5.));
#520=CARTESIAN_POINT('',(-1.39821476510065,-4.93124966442954,-5.));
#521=CARTESIAN_POINT('',(-1.39821476510065,-4.93124966442954,5.));
#522=CARTESIAN_POINT('',(-1.39821476510065,-4.93124966442954,5.));
#523=CARTESIAN_POINT('',(-4.172038703309,-2.98957290768371,5.));
#524=CARTESIAN_POINT('',(-1.18019999854669,-4.61976675709043,5.));
#525=CARTESIAN_POINT('',(-1.18019999854669,-4.61976675709043,-5.));
#526=CARTESIAN_POINT('',(-0.799999999999994,-4.61980000000001,-5.));
#527=CARTESIAN_POINT('',(-0.799999999999994,-4.61980000000001,5.));
#528=CARTESIAN_POINT('',(-0.799999999999994,-4.61980000000001,5.));
#529=CARTESIAN_POINT('',(-1.18019999854669,-4.61976675709043,5.));
#530=CARTESIAN_POINT('',(-0.799999999999994,-4.61980000000001,5.));
#531=CARTESIAN_POINT('',(-0.799999999999994,-4.61980000000001,-5.));
#532=CARTESIAN_POINT('',(-0.799999999999994,-2.9,-5.));
#533=CARTESIAN_POINT('',(-0.799999999999994,-2.9,5.));
#534=CARTESIAN_POINT('',(-0.799999999999994,-2.9,5.));
#535=CARTESIAN_POINT('',(-0.799999999999994,-4.61980000000001,5.));
#536=CARTESIAN_POINT('',(-0.799999999999994,-2.9,5.));
#537=CARTESIAN_POINT('',(-0.799999999999994,-2.9,-5.));
#538=CARTESIAN_POINT('',(-0.200000000000006,-2.9,-5.));
#539=CARTESIAN_POINT('',(-0.200000000000006,-2.9,5.));
#540=CARTESIAN_POINT('',(-0.200000000000006,-2.9,5.));
#541=CARTESIAN_POINT('',(-0.799999999999994,-2.9,5.));
#542=CARTESIAN_POINT('',(-0.2,-2.7,5.));
#543=CARTESIAN_POINT('',(-0.2,-2.7,-5.));
#544=CARTESIAN_POINT('',(-5.42101086242752E-17,-2.7,-5.));
#545=CARTESIAN_POINT('',(-5.42101086242752E-17,-2.7,5.));
#546=CARTESIAN_POINT('',(-5.42101086242752E-17,-2.7,5.));
#547=CARTESIAN_POINT('',(-0.2,-2.7,5.));
#548=CARTESIAN_POINT('',(0.,-2.7,5.));
#549=CARTESIAN_POINT('',(0.,0.,0.));
#550=CARTESIAN_POINT('',(0.,0.,-2.));
#551=CARTESIAN_POINT('',(0.,-2.7,-5.));
#552=CARTESIAN_POINT('',(0.,2.7,-5.));
#553=CARTESIAN_POINT('',(0.,2.7,5.));
#554=CARTESIAN_POINT('',(0.,2.7,5.));
#555=CARTESIAN_POINT('',(0.,-2.7,5.));
#556=CARTESIAN_POINT('',(-0.200000000000001,2.7,5.));
#557=CARTESIAN_POINT('',(-0.200000000000001,2.7,-5.));
#558=CARTESIAN_POINT('',(-0.2,2.9,-5.));
#559=CARTESIAN_POINT('',(-0.2,2.9,5.));
#560=CARTESIAN_POINT('',(-0.2,2.9,5.));
#561=CARTESIAN_POINT('',(-0.200000000000001,2.7,5.));
#562=CARTESIAN_POINT('',(-0.2,2.9,5.));
#563=CARTESIAN_POINT('',(-0.2,2.9,-5.));
#564=CARTESIAN_POINT('',(-0.8,2.9,-5.));
#565=CARTESIAN_POINT('',(-0.8,2.9,5.));
#566=CARTESIAN_POINT('',(-0.8,2.9,5.));
#567=CARTESIAN_POINT('',(-0.2,2.9,5.));
#568=CARTESIAN_POINT('',(-0.8,2.9,5.));
#569=CARTESIAN_POINT('',(-0.8,2.9,-5.));
#570=CARTESIAN_POINT('',(-0.8,4.61980000000001,-5.));
#571=CARTESIAN_POINT('',(-0.8,4.61980000000001,5.));
#572=CARTESIAN_POINT('',(-0.8,4.61980000000001,5.));
#573=CARTESIAN_POINT('',(-0.8,2.9,5.));
#574=CARTESIAN_POINT('',(-1.1801999985467,4.61976675709044,5.));
#575=CARTESIAN_POINT('',(-1.1801999985467,4.61976675709044,-5.));
#576=CARTESIAN_POINT('',(-1.39821476510067,4.93124966442954,-5.));
#577=CARTESIAN_POINT('',(-1.39821476510067,4.93124966442954,5.));
#578=CARTESIAN_POINT('',(-1.39821476510067,4.93124966442954,5.));
#579=CARTESIAN_POINT('',(-1.1801999985467,4.61976675709044,5.));
#580=CARTESIAN_POINT('',(-1.39821476510067,4.93124966442954,5.));
#581=CARTESIAN_POINT('',(-1.39821476510067,4.93124966442954,-5.));
#582=CARTESIAN_POINT('',(-1.39821476510067,4.93124966442954,5.));
#583=CARTESIAN_POINT('',(-4.,2.74380333152799,5.));
#584=CARTESIAN_POINT('',(-4.,2.74380333152799,-5.));
#585=CARTESIAN_POINT('',(-4.3,0.,0.));
#586=CARTESIAN_POINT('',(-3.921,0.,0.));
#587=CARTESIAN_POINT('',(-3.921,0.,-1.621));
#588=CARTESIAN_POINT('',(0.,0.,0.));
#589=CARTESIAN_POINT('',(-0.379,0.,0.));
#590=CARTESIAN_POINT('',(-0.379,0.,-1.621));
#591=CARTESIAN_POINT('',(-0.379,0.,0.));
#592=(
GEOMETRIC_REPRESENTATION_CONTEXT(3)
GLOBAL_UNCERTAINTY_ASSIGNED_CONTEXT((#593))
GLOBAL_UNIT_ASSIGNED_CONTEXT((#596,#595,#594))
REPRESENTATION_CONTEXT('HNTTSN5-4','TOP_LEVEL_ASSEMBLY_PART')
);
#593=UNCERTAINTY_MEASURE_WITH_UNIT(LENGTH_MEASURE(1.E-5),#596,
'DISTANCE_ACCURACY_VALUE','Maximum Tolerance applied to model');
#594=(
NAMED_UNIT(*)
SI_UNIT($,.STERADIAN.)
SOLID_ANGLE_UNIT()
);
#595=(
NAMED_UNIT(*)
PLANE_ANGLE_UNIT()
SI_UNIT($,.RADIAN.)
);
#596=(
LENGTH_UNIT()
NAMED_UNIT(*)
SI_UNIT(.MILLI.,.METRE.)
);
#597=PRODUCT_DEFINITION_SHAPE('','',#598);
#598=PRODUCT_DEFINITION('','',#600,#599);
#599=DESIGN_CONTEXT('',#606,'design');
#600=PRODUCT_DEFINITION_FORMATION_WITH_SPECIFIED_SOURCE('','',#602,
 .NOT_KNOWN.);
#601=PRODUCT_RELATED_PRODUCT_CATEGORY('','',(#602));
#602=PRODUCT('HNTTSN5-4','HNTTSN5-4','HNTTSN5-4',(#604));
#603=PRODUCT_CATEGORY('','');
#604=MECHANICAL_CONTEXT('',#606,'mechanical');
#605=APPLICATION_PROTOCOL_DEFINITION('international standard',
'config_control_design',2010,#606);
#606=APPLICATION_CONTEXT(
'configuration controlled 3D designs of mechanical parts and assemblie
s');
ENDSEC;
END-ISO-10303-21;
