ISO-10303-21;
HEADER;
FILE_DESCRIPTION(('FreeCAD Model'),'2;1');
FILE_NAME('Open CASCADE Shape Model','2026-05-04T12:20:09',(''),(''),
  'Open CASCADE STEP processor 7.8','FreeCAD','Unknown');
FILE_SCHEMA(('AUTOMOTIVE_DESIGN { 1 0 10303 214 1 1 1 1 }'));
ENDSEC;
DATA;
#1 = APPLICATION_PROTOCOL_DEFINITION('international standard',
  'automotive_design',2000,#2);
#2 = APPLICATION_CONTEXT(
  'core data for automotive mechanical design processes');
#3 = SHAPE_DEFINITION_REPRESENTATION(#4,#10);
#4 = PRODUCT_DEFINITION_SHAPE('','',#5);
#5 = PRODUCT_DEFINITION('design','',#6,#9);
#6 = PRODUCT_DEFINITION_FORMATION('','',#7);
#7 = PRODUCT('AdaptSnsrRear','AdaptSnsrRear','',(#8));
#8 = PRODUCT_CONTEXT('',#2,'mechanical');
#9 = PRODUCT_DEFINITION_CONTEXT('part definition',#2,'design');
#10 = ADVANCED_BREP_SHAPE_REPRESENTATION('',(#11,#15),#499);
#11 = AXIS2_PLACEMENT_3D('',#12,#13,#14);
#12 = CARTESIAN_POINT('',(0.,0.,0.));
#13 = DIRECTION('',(0.,0.,1.));
#14 = DIRECTION('',(1.,0.,-0.));
#15 = MANIFOLD_SOLID_BREP('',#16);
#16 = CLOSED_SHELL('',(#17,#123,#148,#179,#203,#227,#244,#269,#294,#319,
    #344,#369,#394,#448,#465,#482));
#17 = ADVANCED_FACE('',(#18,#29,#63,#74,#85,#96,#107),#118,.T.);
#18 = FACE_BOUND('',#19,.T.);
#19 = EDGE_LOOP('',(#20));
#20 = ORIENTED_EDGE('',*,*,#21,.T.);
#21 = EDGE_CURVE('',#22,#22,#24,.T.);
#22 = VERTEX_POINT('',#23);
#23 = CARTESIAN_POINT('',(13.580256121069,0.,8.980256121069));
#24 = CIRCLE('',#25,4.6);
#25 = AXIS2_PLACEMENT_3D('',#26,#27,#28);
#26 = CARTESIAN_POINT('',(8.980256121069,0.,8.980256121069));
#27 = DIRECTION('',(0.,-1.,0.));
#28 = DIRECTION('',(1.,0.,0.));
#29 = FACE_BOUND('',#30,.T.);
#30 = EDGE_LOOP('',(#31,#41,#49,#57));
#31 = ORIENTED_EDGE('',*,*,#32,.F.);
#32 = EDGE_CURVE('',#33,#35,#37,.T.);
#33 = VERTEX_POINT('',#34);
#34 = CARTESIAN_POINT('',(-15.,-9.E-15,-40.));
#35 = VERTEX_POINT('',#36);
#36 = CARTESIAN_POINT('',(15.,-9.E-15,-40.));
#37 = LINE('',#38,#39);
#38 = CARTESIAN_POINT('',(-15.,0.,-40.));
#39 = VECTOR('',#40,1.);
#40 = DIRECTION('',(1.,0.,0.));
#41 = ORIENTED_EDGE('',*,*,#42,.F.);
#42 = EDGE_CURVE('',#43,#33,#45,.T.);
#43 = VERTEX_POINT('',#44);
#44 = CARTESIAN_POINT('',(-15.,9.E-15,40.));
#45 = LINE('',#46,#47);
#46 = CARTESIAN_POINT('',(-15.,0.,40.));
#47 = VECTOR('',#48,1.);
#48 = DIRECTION('',(0.,0.,-1.));
#49 = ORIENTED_EDGE('',*,*,#50,.F.);
#50 = EDGE_CURVE('',#51,#43,#53,.T.);
#51 = VERTEX_POINT('',#52);
#52 = CARTESIAN_POINT('',(15.,9.E-15,40.));
#53 = LINE('',#54,#55);
#54 = CARTESIAN_POINT('',(15.,0.,40.));
#55 = VECTOR('',#56,1.);
#56 = DIRECTION('',(-1.,0.,0.));
#57 = ORIENTED_EDGE('',*,*,#58,.F.);
#58 = EDGE_CURVE('',#35,#51,#59,.T.);
#59 = LINE('',#60,#61);
#60 = CARTESIAN_POINT('',(15.,0.,-40.));
#61 = VECTOR('',#62,1.);
#62 = DIRECTION('',(0.,0.,1.));
#63 = FACE_BOUND('',#64,.T.);
#64 = EDGE_LOOP('',(#65));
#65 = ORIENTED_EDGE('',*,*,#66,.T.);
#66 = EDGE_CURVE('',#67,#67,#69,.T.);
#67 = VERTEX_POINT('',#68);
#68 = CARTESIAN_POINT('',(2.,-8.E-15,-35.));
#69 = CIRCLE('',#70,2.);
#70 = AXIS2_PLACEMENT_3D('',#71,#72,#73);
#71 = CARTESIAN_POINT('',(0.,0.,-35.));
#72 = DIRECTION('',(0.,-1.,0.));
#73 = DIRECTION('',(1.,0.,0.));
#74 = FACE_BOUND('',#75,.T.);
#75 = EDGE_LOOP('',(#76));
#76 = ORIENTED_EDGE('',*,*,#77,.T.);
#77 = EDGE_CURVE('',#78,#78,#80,.T.);
#78 = VERTEX_POINT('',#79);
#79 = CARTESIAN_POINT('',(2.,8.E-15,35.));
#80 = CIRCLE('',#81,2.);
#81 = AXIS2_PLACEMENT_3D('',#82,#83,#84);
#82 = CARTESIAN_POINT('',(0.,0.,35.));
#83 = DIRECTION('',(0.,-1.,0.));
#84 = DIRECTION('',(1.,0.,0.));
#85 = FACE_BOUND('',#86,.T.);
#86 = EDGE_LOOP('',(#87));
#87 = ORIENTED_EDGE('',*,*,#88,.T.);
#88 = EDGE_CURVE('',#89,#89,#91,.T.);
#89 = VERTEX_POINT('',#90);
#90 = CARTESIAN_POINT('',(-4.380256121069,0.,8.980256121069));
#91 = CIRCLE('',#92,4.6);
#92 = AXIS2_PLACEMENT_3D('',#93,#94,#95);
#93 = CARTESIAN_POINT('',(-8.980256121069,0.,8.980256121069));
#94 = DIRECTION('',(0.,-1.,0.));
#95 = DIRECTION('',(1.,0.,0.));
#96 = FACE_BOUND('',#97,.T.);
#97 = EDGE_LOOP('',(#98));
#98 = ORIENTED_EDGE('',*,*,#99,.T.);
#99 = EDGE_CURVE('',#100,#100,#102,.T.);
#100 = VERTEX_POINT('',#101);
#101 = CARTESIAN_POINT('',(-4.380256121069,0.,-8.980256121069));
#102 = CIRCLE('',#103,4.6);
#103 = AXIS2_PLACEMENT_3D('',#104,#105,#106);
#104 = CARTESIAN_POINT('',(-8.980256121069,0.,-8.980256121069));
#105 = DIRECTION('',(0.,-1.,0.));
#106 = DIRECTION('',(1.,0.,0.));
#107 = FACE_BOUND('',#108,.T.);
#108 = EDGE_LOOP('',(#109));
#109 = ORIENTED_EDGE('',*,*,#110,.T.);
#110 = EDGE_CURVE('',#111,#111,#113,.T.);
#111 = VERTEX_POINT('',#112);
#112 = CARTESIAN_POINT('',(13.580256121069,0.,-8.980256121069));
#113 = CIRCLE('',#114,4.6);
#114 = AXIS2_PLACEMENT_3D('',#115,#116,#117);
#115 = CARTESIAN_POINT('',(8.980256121069,0.,-8.980256121069));
#116 = DIRECTION('',(0.,-1.,0.));
#117 = DIRECTION('',(1.,0.,0.));
#118 = PLANE('',#119);
#119 = AXIS2_PLACEMENT_3D('',#120,#121,#122);
#120 = CARTESIAN_POINT('',(0.,0.,0.));
#121 = DIRECTION('',(0.,1.,0.));
#122 = DIRECTION('',(0.,0.,1.));
#123 = ADVANCED_FACE('',(#124),#143,.F.);
#124 = FACE_BOUND('',#125,.F.);
#125 = EDGE_LOOP('',(#126,#134,#135,#136));
#126 = ORIENTED_EDGE('',*,*,#127,.F.);
#127 = EDGE_CURVE('',#22,#128,#130,.T.);
#128 = VERTEX_POINT('',#129);
#129 = CARTESIAN_POINT('',(10.980256121069,-2.6,8.980256121069));
#130 = LINE('',#131,#132);
#131 = CARTESIAN_POINT('',(10.980256121069,-2.6,8.980256121069));
#132 = VECTOR('',#133,1.);
#133 = DIRECTION('',(-0.707106781187,-0.707106781187,-0.));
#134 = ORIENTED_EDGE('',*,*,#21,.T.);
#135 = ORIENTED_EDGE('',*,*,#127,.T.);
#136 = ORIENTED_EDGE('',*,*,#137,.F.);
#137 = EDGE_CURVE('',#128,#128,#138,.T.);
#138 = CIRCLE('',#139,2.);
#139 = AXIS2_PLACEMENT_3D('',#140,#141,#142);
#140 = CARTESIAN_POINT('',(8.980256121069,-2.6,8.980256121069));
#141 = DIRECTION('',(0.,-1.,0.));
#142 = DIRECTION('',(1.,0.,0.));
#143 = CONICAL_SURFACE('',#144,2.,0.785398163397);
#144 = AXIS2_PLACEMENT_3D('',#145,#146,#147);
#145 = CARTESIAN_POINT('',(8.980256121069,-2.6,8.980256121069));
#146 = DIRECTION('',(0.,1.,0.));
#147 = DIRECTION('',(1.,-0.,0.));
#148 = ADVANCED_FACE('',(#149),#174,.F.);
#149 = FACE_BOUND('',#150,.F.);
#150 = EDGE_LOOP('',(#151,#159,#167,#173));
#151 = ORIENTED_EDGE('',*,*,#152,.T.);
#152 = EDGE_CURVE('',#33,#153,#155,.T.);
#153 = VERTEX_POINT('',#154);
#154 = CARTESIAN_POINT('',(-15.,-3.,-40.));
#155 = LINE('',#156,#157);
#156 = CARTESIAN_POINT('',(-15.,-8.88E-15,-40.));
#157 = VECTOR('',#158,1.);
#158 = DIRECTION('',(0.,-1.,2.2E-16));
#159 = ORIENTED_EDGE('',*,*,#160,.T.);
#160 = EDGE_CURVE('',#153,#161,#163,.T.);
#161 = VERTEX_POINT('',#162);
#162 = CARTESIAN_POINT('',(15.,-3.,-40.));
#163 = LINE('',#164,#165);
#164 = CARTESIAN_POINT('',(-15.,-3.,-40.));
#165 = VECTOR('',#166,1.);
#166 = DIRECTION('',(1.,0.,0.));
#167 = ORIENTED_EDGE('',*,*,#168,.F.);
#168 = EDGE_CURVE('',#35,#161,#169,.T.);
#169 = LINE('',#170,#171);
#170 = CARTESIAN_POINT('',(15.,-8.88E-15,-40.));
#171 = VECTOR('',#172,1.);
#172 = DIRECTION('',(0.,-1.,2.2E-16));
#173 = ORIENTED_EDGE('',*,*,#32,.F.);
#174 = PLANE('',#175);
#175 = AXIS2_PLACEMENT_3D('',#176,#177,#178);
#176 = CARTESIAN_POINT('',(-15.,-8.88E-15,-40.));
#177 = DIRECTION('',(0.,2.2E-16,1.));
#178 = DIRECTION('',(1.,0.,0.));
#179 = ADVANCED_FACE('',(#180),#198,.F.);
#180 = FACE_BOUND('',#181,.F.);
#181 = EDGE_LOOP('',(#182,#190,#196,#197));
#182 = ORIENTED_EDGE('',*,*,#183,.T.);
#183 = EDGE_CURVE('',#43,#184,#186,.T.);
#184 = VERTEX_POINT('',#185);
#185 = CARTESIAN_POINT('',(-15.,-3.,40.));
#186 = LINE('',#187,#188);
#187 = CARTESIAN_POINT('',(-15.,8.88E-15,40.));
#188 = VECTOR('',#189,1.);
#189 = DIRECTION('',(0.,-1.,2.2E-16));
#190 = ORIENTED_EDGE('',*,*,#191,.T.);
#191 = EDGE_CURVE('',#184,#153,#192,.T.);
#192 = LINE('',#193,#194);
#193 = CARTESIAN_POINT('',(-15.,-3.,40.));
#194 = VECTOR('',#195,1.);
#195 = DIRECTION('',(0.,0.,-1.));
#196 = ORIENTED_EDGE('',*,*,#152,.F.);
#197 = ORIENTED_EDGE('',*,*,#42,.F.);
#198 = PLANE('',#199);
#199 = AXIS2_PLACEMENT_3D('',#200,#201,#202);
#200 = CARTESIAN_POINT('',(-15.,8.88E-15,40.));
#201 = DIRECTION('',(1.,0.,0.));
#202 = DIRECTION('',(0.,-2.2E-16,-1.));
#203 = ADVANCED_FACE('',(#204),#222,.F.);
#204 = FACE_BOUND('',#205,.F.);
#205 = EDGE_LOOP('',(#206,#207,#215,#221));
#206 = ORIENTED_EDGE('',*,*,#168,.T.);
#207 = ORIENTED_EDGE('',*,*,#208,.T.);
#208 = EDGE_CURVE('',#161,#209,#211,.T.);
#209 = VERTEX_POINT('',#210);
#210 = CARTESIAN_POINT('',(15.,-3.,40.));
#211 = LINE('',#212,#213);
#212 = CARTESIAN_POINT('',(15.,-3.,-40.));
#213 = VECTOR('',#214,1.);
#214 = DIRECTION('',(0.,0.,1.));
#215 = ORIENTED_EDGE('',*,*,#216,.F.);
#216 = EDGE_CURVE('',#51,#209,#217,.T.);
#217 = LINE('',#218,#219);
#218 = CARTESIAN_POINT('',(15.,8.88E-15,40.));
#219 = VECTOR('',#220,1.);
#220 = DIRECTION('',(0.,-1.,2.2E-16));
#221 = ORIENTED_EDGE('',*,*,#58,.F.);
#222 = PLANE('',#223);
#223 = AXIS2_PLACEMENT_3D('',#224,#225,#226);
#224 = CARTESIAN_POINT('',(15.,-8.88E-15,-40.));
#225 = DIRECTION('',(-1.,0.,0.));
#226 = DIRECTION('',(0.,2.2E-16,1.));
#227 = ADVANCED_FACE('',(#228),#239,.F.);
#228 = FACE_BOUND('',#229,.F.);
#229 = EDGE_LOOP('',(#230,#231,#237,#238));
#230 = ORIENTED_EDGE('',*,*,#216,.T.);
#231 = ORIENTED_EDGE('',*,*,#232,.T.);
#232 = EDGE_CURVE('',#209,#184,#233,.T.);
#233 = LINE('',#234,#235);
#234 = CARTESIAN_POINT('',(15.,-3.,40.));
#235 = VECTOR('',#236,1.);
#236 = DIRECTION('',(-1.,0.,0.));
#237 = ORIENTED_EDGE('',*,*,#183,.F.);
#238 = ORIENTED_EDGE('',*,*,#50,.F.);
#239 = PLANE('',#240);
#240 = AXIS2_PLACEMENT_3D('',#241,#242,#243);
#241 = CARTESIAN_POINT('',(15.,8.88E-15,40.));
#242 = DIRECTION('',(-0.,-2.2E-16,-1.));
#243 = DIRECTION('',(-1.,0.,0.));
#244 = ADVANCED_FACE('',(#245),#264,.F.);
#245 = FACE_BOUND('',#246,.T.);
#246 = EDGE_LOOP('',(#247,#248,#256,#263));
#247 = ORIENTED_EDGE('',*,*,#66,.F.);
#248 = ORIENTED_EDGE('',*,*,#249,.T.);
#249 = EDGE_CURVE('',#67,#250,#252,.T.);
#250 = VERTEX_POINT('',#251);
#251 = CARTESIAN_POINT('',(2.,-3.,-35.));
#252 = LINE('',#253,#254);
#253 = CARTESIAN_POINT('',(2.,-7.77E-15,-35.));
#254 = VECTOR('',#255,1.);
#255 = DIRECTION('',(0.,-1.,2.2E-16));
#256 = ORIENTED_EDGE('',*,*,#257,.F.);
#257 = EDGE_CURVE('',#250,#250,#258,.T.);
#258 = CIRCLE('',#259,2.);
#259 = AXIS2_PLACEMENT_3D('',#260,#261,#262);
#260 = CARTESIAN_POINT('',(0.,-3.,-35.));
#261 = DIRECTION('',(0.,1.,-2.2E-16));
#262 = DIRECTION('',(1.,0.,0.));
#263 = ORIENTED_EDGE('',*,*,#249,.F.);
#264 = CYLINDRICAL_SURFACE('',#265,2.);
#265 = AXIS2_PLACEMENT_3D('',#266,#267,#268);
#266 = CARTESIAN_POINT('',(0.,-7.77E-15,-35.));
#267 = DIRECTION('',(0.,1.,-2.2E-16));
#268 = DIRECTION('',(1.,0.,0.));
#269 = ADVANCED_FACE('',(#270),#289,.F.);
#270 = FACE_BOUND('',#271,.T.);
#271 = EDGE_LOOP('',(#272,#273,#281,#288));
#272 = ORIENTED_EDGE('',*,*,#77,.F.);
#273 = ORIENTED_EDGE('',*,*,#274,.T.);
#274 = EDGE_CURVE('',#78,#275,#277,.T.);
#275 = VERTEX_POINT('',#276);
#276 = CARTESIAN_POINT('',(2.,-3.,35.));
#277 = LINE('',#278,#279);
#278 = CARTESIAN_POINT('',(2.,7.77E-15,35.));
#279 = VECTOR('',#280,1.);
#280 = DIRECTION('',(0.,-1.,2.2E-16));
#281 = ORIENTED_EDGE('',*,*,#282,.F.);
#282 = EDGE_CURVE('',#275,#275,#283,.T.);
#283 = CIRCLE('',#284,2.);
#284 = AXIS2_PLACEMENT_3D('',#285,#286,#287);
#285 = CARTESIAN_POINT('',(0.,-3.,35.));
#286 = DIRECTION('',(0.,1.,-2.2E-16));
#287 = DIRECTION('',(1.,0.,0.));
#288 = ORIENTED_EDGE('',*,*,#274,.F.);
#289 = CYLINDRICAL_SURFACE('',#290,2.);
#290 = AXIS2_PLACEMENT_3D('',#291,#292,#293);
#291 = CARTESIAN_POINT('',(0.,7.77E-15,35.));
#292 = DIRECTION('',(0.,1.,-2.2E-16));
#293 = DIRECTION('',(1.,0.,0.));
#294 = ADVANCED_FACE('',(#295),#314,.F.);
#295 = FACE_BOUND('',#296,.F.);
#296 = EDGE_LOOP('',(#297,#305,#306,#307));
#297 = ORIENTED_EDGE('',*,*,#298,.F.);
#298 = EDGE_CURVE('',#89,#299,#301,.T.);
#299 = VERTEX_POINT('',#300);
#300 = CARTESIAN_POINT('',(-6.980256121069,-2.6,8.980256121069));
#301 = LINE('',#302,#303);
#302 = CARTESIAN_POINT('',(-6.980256121069,-2.6,8.980256121069));
#303 = VECTOR('',#304,1.);
#304 = DIRECTION('',(-0.707106781187,-0.707106781187,-0.));
#305 = ORIENTED_EDGE('',*,*,#88,.T.);
#306 = ORIENTED_EDGE('',*,*,#298,.T.);
#307 = ORIENTED_EDGE('',*,*,#308,.F.);
#308 = EDGE_CURVE('',#299,#299,#309,.T.);
#309 = CIRCLE('',#310,2.);
#310 = AXIS2_PLACEMENT_3D('',#311,#312,#313);
#311 = CARTESIAN_POINT('',(-8.980256121069,-2.6,8.980256121069));
#312 = DIRECTION('',(0.,-1.,0.));
#313 = DIRECTION('',(1.,0.,0.));
#314 = CONICAL_SURFACE('',#315,2.,0.785398163397);
#315 = AXIS2_PLACEMENT_3D('',#316,#317,#318);
#316 = CARTESIAN_POINT('',(-8.980256121069,-2.6,8.980256121069));
#317 = DIRECTION('',(0.,1.,0.));
#318 = DIRECTION('',(1.,-0.,0.));
#319 = ADVANCED_FACE('',(#320),#339,.F.);
#320 = FACE_BOUND('',#321,.F.);
#321 = EDGE_LOOP('',(#322,#330,#331,#332));
#322 = ORIENTED_EDGE('',*,*,#323,.F.);
#323 = EDGE_CURVE('',#100,#324,#326,.T.);
#324 = VERTEX_POINT('',#325);
#325 = CARTESIAN_POINT('',(-6.980256121069,-2.6,-8.980256121069));
#326 = LINE('',#327,#328);
#327 = CARTESIAN_POINT('',(-6.980256121069,-2.6,-8.980256121069));
#328 = VECTOR('',#329,1.);
#329 = DIRECTION('',(-0.707106781187,-0.707106781187,-0.));
#330 = ORIENTED_EDGE('',*,*,#99,.T.);
#331 = ORIENTED_EDGE('',*,*,#323,.T.);
#332 = ORIENTED_EDGE('',*,*,#333,.F.);
#333 = EDGE_CURVE('',#324,#324,#334,.T.);
#334 = CIRCLE('',#335,2.);
#335 = AXIS2_PLACEMENT_3D('',#336,#337,#338);
#336 = CARTESIAN_POINT('',(-8.980256121069,-2.6,-8.980256121069));
#337 = DIRECTION('',(0.,-1.,0.));
#338 = DIRECTION('',(1.,0.,0.));
#339 = CONICAL_SURFACE('',#340,2.,0.785398163397);
#340 = AXIS2_PLACEMENT_3D('',#341,#342,#343);
#341 = CARTESIAN_POINT('',(-8.980256121069,-2.6,-8.980256121069));
#342 = DIRECTION('',(0.,1.,0.));
#343 = DIRECTION('',(1.,-0.,0.));
#344 = ADVANCED_FACE('',(#345),#364,.F.);
#345 = FACE_BOUND('',#346,.F.);
#346 = EDGE_LOOP('',(#347,#355,#356,#357));
#347 = ORIENTED_EDGE('',*,*,#348,.F.);
#348 = EDGE_CURVE('',#111,#349,#351,.T.);
#349 = VERTEX_POINT('',#350);
#350 = CARTESIAN_POINT('',(10.980256121069,-2.6,-8.980256121069));
#351 = LINE('',#352,#353);
#352 = CARTESIAN_POINT('',(10.980256121069,-2.6,-8.980256121069));
#353 = VECTOR('',#354,1.);
#354 = DIRECTION('',(-0.707106781187,-0.707106781187,-0.));
#355 = ORIENTED_EDGE('',*,*,#110,.T.);
#356 = ORIENTED_EDGE('',*,*,#348,.T.);
#357 = ORIENTED_EDGE('',*,*,#358,.F.);
#358 = EDGE_CURVE('',#349,#349,#359,.T.);
#359 = CIRCLE('',#360,2.);
#360 = AXIS2_PLACEMENT_3D('',#361,#362,#363);
#361 = CARTESIAN_POINT('',(8.980256121069,-2.6,-8.980256121069));
#362 = DIRECTION('',(0.,-1.,0.));
#363 = DIRECTION('',(1.,0.,0.));
#364 = CONICAL_SURFACE('',#365,2.,0.785398163397);
#365 = AXIS2_PLACEMENT_3D('',#366,#367,#368);
#366 = CARTESIAN_POINT('',(8.980256121069,-2.6,-8.980256121069));
#367 = DIRECTION('',(0.,1.,0.));
#368 = DIRECTION('',(1.,-0.,0.));
#369 = ADVANCED_FACE('',(#370),#389,.F.);
#370 = FACE_BOUND('',#371,.T.);
#371 = EDGE_LOOP('',(#372,#380,#387,#388));
#372 = ORIENTED_EDGE('',*,*,#373,.T.);
#373 = EDGE_CURVE('',#128,#374,#376,.T.);
#374 = VERTEX_POINT('',#375);
#375 = CARTESIAN_POINT('',(10.980256121069,-3.,8.980256121069));
#376 = LINE('',#377,#378);
#377 = CARTESIAN_POINT('',(10.980256121069,1.99E-15,8.980256121069));
#378 = VECTOR('',#379,1.);
#379 = DIRECTION('',(0.,-1.,2.2E-16));
#380 = ORIENTED_EDGE('',*,*,#381,.T.);
#381 = EDGE_CURVE('',#374,#374,#382,.T.);
#382 = CIRCLE('',#383,2.);
#383 = AXIS2_PLACEMENT_3D('',#384,#385,#386);
#384 = CARTESIAN_POINT('',(8.980256121069,-3.,8.980256121069));
#385 = DIRECTION('',(0.,-1.,0.));
#386 = DIRECTION('',(1.,0.,0.));
#387 = ORIENTED_EDGE('',*,*,#373,.F.);
#388 = ORIENTED_EDGE('',*,*,#137,.F.);
#389 = CYLINDRICAL_SURFACE('',#390,2.);
#390 = AXIS2_PLACEMENT_3D('',#391,#392,#393);
#391 = CARTESIAN_POINT('',(8.980256121069,1.99E-15,8.980256121069));
#392 = DIRECTION('',(0.,1.,-2.2E-16));
#393 = DIRECTION('',(1.,0.,0.));
#394 = ADVANCED_FACE('',(#395,#401,#412,#423,#426,#437,#440),#443,.F.);
#395 = FACE_BOUND('',#396,.F.);
#396 = EDGE_LOOP('',(#397,#398,#399,#400));
#397 = ORIENTED_EDGE('',*,*,#160,.F.);
#398 = ORIENTED_EDGE('',*,*,#191,.F.);
#399 = ORIENTED_EDGE('',*,*,#232,.F.);
#400 = ORIENTED_EDGE('',*,*,#208,.F.);
#401 = FACE_BOUND('',#402,.F.);
#402 = EDGE_LOOP('',(#403));
#403 = ORIENTED_EDGE('',*,*,#404,.T.);
#404 = EDGE_CURVE('',#405,#405,#407,.T.);
#405 = VERTEX_POINT('',#406);
#406 = CARTESIAN_POINT('',(-6.980256121069,-3.,-8.980256121069));
#407 = CIRCLE('',#408,2.);
#408 = AXIS2_PLACEMENT_3D('',#409,#410,#411);
#409 = CARTESIAN_POINT('',(-8.980256121069,-3.,-8.980256121069));
#410 = DIRECTION('',(0.,-1.,0.));
#411 = DIRECTION('',(1.,0.,0.));
#412 = FACE_BOUND('',#413,.F.);
#413 = EDGE_LOOP('',(#414));
#414 = ORIENTED_EDGE('',*,*,#415,.T.);
#415 = EDGE_CURVE('',#416,#416,#418,.T.);
#416 = VERTEX_POINT('',#417);
#417 = CARTESIAN_POINT('',(-6.980256121069,-3.,8.980256121069));
#418 = CIRCLE('',#419,2.);
#419 = AXIS2_PLACEMENT_3D('',#420,#421,#422);
#420 = CARTESIAN_POINT('',(-8.980256121069,-3.,8.980256121069));
#421 = DIRECTION('',(0.,-1.,0.));
#422 = DIRECTION('',(1.,0.,0.));
#423 = FACE_BOUND('',#424,.F.);
#424 = EDGE_LOOP('',(#425));
#425 = ORIENTED_EDGE('',*,*,#257,.F.);
#426 = FACE_BOUND('',#427,.F.);
#427 = EDGE_LOOP('',(#428));
#428 = ORIENTED_EDGE('',*,*,#429,.T.);
#429 = EDGE_CURVE('',#430,#430,#432,.T.);
#430 = VERTEX_POINT('',#431);
#431 = CARTESIAN_POINT('',(10.980256121069,-3.,-8.980256121069));
#432 = CIRCLE('',#433,2.);
#433 = AXIS2_PLACEMENT_3D('',#434,#435,#436);
#434 = CARTESIAN_POINT('',(8.980256121069,-3.,-8.980256121069));
#435 = DIRECTION('',(0.,-1.,0.));
#436 = DIRECTION('',(1.,0.,0.));
#437 = FACE_BOUND('',#438,.F.);
#438 = EDGE_LOOP('',(#439));
#439 = ORIENTED_EDGE('',*,*,#282,.F.);
#440 = FACE_BOUND('',#441,.F.);
#441 = EDGE_LOOP('',(#442));
#442 = ORIENTED_EDGE('',*,*,#381,.T.);
#443 = PLANE('',#444);
#444 = AXIS2_PLACEMENT_3D('',#445,#446,#447);
#445 = CARTESIAN_POINT('',(0.,-3.,1.E-15));
#446 = DIRECTION('',(0.,1.,0.));
#447 = DIRECTION('',(0.,0.,1.));
#448 = ADVANCED_FACE('',(#449),#460,.F.);
#449 = FACE_BOUND('',#450,.T.);
#450 = EDGE_LOOP('',(#451,#457,#458,#459));
#451 = ORIENTED_EDGE('',*,*,#452,.T.);
#452 = EDGE_CURVE('',#299,#416,#453,.T.);
#453 = LINE('',#454,#455);
#454 = CARTESIAN_POINT('',(-6.980256121069,1.99E-15,8.980256121069));
#455 = VECTOR('',#456,1.);
#456 = DIRECTION('',(0.,-1.,2.2E-16));
#457 = ORIENTED_EDGE('',*,*,#415,.T.);
#458 = ORIENTED_EDGE('',*,*,#452,.F.);
#459 = ORIENTED_EDGE('',*,*,#308,.F.);
#460 = CYLINDRICAL_SURFACE('',#461,2.);
#461 = AXIS2_PLACEMENT_3D('',#462,#463,#464);
#462 = CARTESIAN_POINT('',(-8.980256121069,1.99E-15,8.980256121069));
#463 = DIRECTION('',(0.,1.,-2.2E-16));
#464 = DIRECTION('',(1.,0.,0.));
#465 = ADVANCED_FACE('',(#466),#477,.F.);
#466 = FACE_BOUND('',#467,.T.);
#467 = EDGE_LOOP('',(#468,#474,#475,#476));
#468 = ORIENTED_EDGE('',*,*,#469,.T.);
#469 = EDGE_CURVE('',#324,#405,#470,.T.);
#470 = LINE('',#471,#472);
#471 = CARTESIAN_POINT('',(-6.980256121069,-1.99E-15,-8.980256121069));
#472 = VECTOR('',#473,1.);
#473 = DIRECTION('',(0.,-1.,2.2E-16));
#474 = ORIENTED_EDGE('',*,*,#404,.T.);
#475 = ORIENTED_EDGE('',*,*,#469,.F.);
#476 = ORIENTED_EDGE('',*,*,#333,.F.);
#477 = CYLINDRICAL_SURFACE('',#478,2.);
#478 = AXIS2_PLACEMENT_3D('',#479,#480,#481);
#479 = CARTESIAN_POINT('',(-8.980256121069,-1.99E-15,-8.980256121069));
#480 = DIRECTION('',(0.,1.,-2.2E-16));
#481 = DIRECTION('',(1.,0.,0.));
#482 = ADVANCED_FACE('',(#483),#494,.F.);
#483 = FACE_BOUND('',#484,.T.);
#484 = EDGE_LOOP('',(#485,#491,#492,#493));
#485 = ORIENTED_EDGE('',*,*,#486,.T.);
#486 = EDGE_CURVE('',#349,#430,#487,.T.);
#487 = LINE('',#488,#489);
#488 = CARTESIAN_POINT('',(10.980256121069,-1.99E-15,-8.980256121069));
#489 = VECTOR('',#490,1.);
#490 = DIRECTION('',(0.,-1.,2.2E-16));
#491 = ORIENTED_EDGE('',*,*,#429,.T.);
#492 = ORIENTED_EDGE('',*,*,#486,.F.);
#493 = ORIENTED_EDGE('',*,*,#358,.F.);
#494 = CYLINDRICAL_SURFACE('',#495,2.);
#495 = AXIS2_PLACEMENT_3D('',#496,#497,#498);
#496 = CARTESIAN_POINT('',(8.980256121069,-1.99E-15,-8.980256121069));
#497 = DIRECTION('',(0.,1.,-2.2E-16));
#498 = DIRECTION('',(1.,0.,0.));
#499 = ( GEOMETRIC_REPRESENTATION_CONTEXT(3) 
GLOBAL_UNCERTAINTY_ASSIGNED_CONTEXT((#503)) GLOBAL_UNIT_ASSIGNED_CONTEXT
((#500,#501,#502)) REPRESENTATION_CONTEXT('Context #1',
  '3D Context with UNIT and UNCERTAINTY') );
#500 = ( LENGTH_UNIT() NAMED_UNIT(*) SI_UNIT(.MILLI.,.METRE.) );
#501 = ( NAMED_UNIT(*) PLANE_ANGLE_UNIT() SI_UNIT($,.RADIAN.) );
#502 = ( NAMED_UNIT(*) SI_UNIT($,.STERADIAN.) SOLID_ANGLE_UNIT() );
#503 = UNCERTAINTY_MEASURE_WITH_UNIT(LENGTH_MEASURE(1.E-07),#500,
  'distance_accuracy_value','confusion accuracy');
#504 = PRODUCT_RELATED_PRODUCT_CATEGORY('part',$,(#7));
#505 = MECHANICAL_DESIGN_GEOMETRIC_PRESENTATION_REPRESENTATION('',(#506)
  ,#499);
#506 = STYLED_ITEM('color',(#507),#15);
#507 = PRESENTATION_STYLE_ASSIGNMENT((#508,#514));
#508 = SURFACE_STYLE_USAGE(.BOTH.,#509);
#509 = SURFACE_SIDE_STYLE('',(#510));
#510 = SURFACE_STYLE_FILL_AREA(#511);
#511 = FILL_AREA_STYLE('',(#512));
#512 = FILL_AREA_STYLE_COLOUR('',#513);
#513 = COLOUR_RGB('',0.301960791261,0.301960791261,0.301960791261);
#514 = CURVE_STYLE('',#515,POSITIVE_LENGTH_MEASURE(0.1),#516);
#515 = DRAUGHTING_PRE_DEFINED_CURVE_FONT('continuous');
#516 = COLOUR_RGB('',9.803921802644E-02,9.803921802644E-02,
  9.803921802644E-02);
ENDSEC;
END-ISO-10303-21;
