ISO-10303-21;
HEADER;
FILE_DESCRIPTION(('FreeCAD Model'),'2;1');
FILE_NAME('Open CASCADE Shape Model','2026-05-04T12:19:48',(''),(''),
  'Open CASCADE STEP processor 7.8','FreeCAD','Unknown');
FILE_SCHEMA(('AUTOMOTIVE_DESIGN { 1 0 10303 214 1 1 1 1 }'));
ENDSEC;
DATA;
#1 = APPLICATION_PROTOCOL_DEFINITION('international standard',
  'automotive_design',2000,#2);
#2 = APPLICATION_CONTEXT(
  'core data for automotive mechanical design processes');
#3 = SHAPE_DEFINITION_REPRESENTATION(#4,#10);
#4 = PRODUCT_DEFINITION_SHAPE('','',#5);
#5 = PRODUCT_DEFINITION('design','',#6,#9);
#6 = PRODUCT_DEFINITION_FORMATION('','',#7);
#7 = PRODUCT('RDF-DW500A','RDF-DW500A','',(#8));
#8 = PRODUCT_CONTEXT('',#2,'mechanical');
#9 = PRODUCT_DEFINITION_CONTEXT('part definition',#2,'design');
#10 = ADVANCED_BREP_SHAPE_REPRESENTATION('',(#11,#15),#757);
#11 = AXIS2_PLACEMENT_3D('',#12,#13,#14);
#12 = CARTESIAN_POINT('',(0.,0.,0.));
#13 = DIRECTION('',(0.,0.,1.));
#14 = DIRECTION('',(1.,0.,-0.));
#15 = MANIFOLD_SOLID_BREP('',#16);
#16 = CLOSED_SHELL('',(#17,#119,#194,#220,#240,#265,#290,#315,#340,#365,
    #390,#399,#424,#433,#442,#451,#460,#469,#478,#553,#578,#603,#628,
    #653,#678,#703,#712,#721,#730,#739,#748));
#17 = ADVANCED_FACE('',(#18),#114,.T.);
#18 = FACE_BOUND('',#19,.F.);
#19 = EDGE_LOOP('',(#20,#29,#37,#68,#76,#83,#84,#113));
#20 = ORIENTED_EDGE('',*,*,#21,.F.);
#21 = EDGE_CURVE('',#22,#22,#24,.T.);
#22 = VERTEX_POINT('',#23);
#23 = CARTESIAN_POINT('',(20.,0.,0.));
#24 = CIRCLE('',#25,20.);
#25 = AXIS2_PLACEMENT_3D('',#26,#27,#28);
#26 = CARTESIAN_POINT('',(0.,0.,0.));
#27 = DIRECTION('',(0.,-1.,0.));
#28 = DIRECTION('',(1.,0.,0.));
#29 = ORIENTED_EDGE('',*,*,#30,.T.);
#30 = EDGE_CURVE('',#22,#31,#33,.T.);
#31 = VERTEX_POINT('',#32);
#32 = CARTESIAN_POINT('',(20.,-14.5,2.E-15));
#33 = LINE('',#34,#35);
#34 = CARTESIAN_POINT('',(20.,0.,0.));
#35 = VECTOR('',#36,1.);
#36 = DIRECTION('',(0.,-1.,2.2E-16));
#37 = ORIENTED_EDGE('',*,*,#38,.T.);
#38 = EDGE_CURVE('',#31,#39,#41,.T.);
#39 = VERTEX_POINT('',#40);
#40 = CARTESIAN_POINT('',(20.,-17.5,4.E-15));
#41 = B_SPLINE_CURVE_WITH_KNOTS('',7,(#42,#43,#44,#45,#46,#47,#48,#49,
    #50,#51,#52,#53,#54,#55,#56,#57,#58,#59,#60,#61,#62,#63,#64,#65,#66,
    #67),.UNSPECIFIED.,.F.,.F.,(8,6,6,6,8),(0.,0.25827278727,
    0.500022835722,0.741767917073,1.),.UNSPECIFIED.);
#42 = CARTESIAN_POINT('',(20.,-14.5,1.43E-15));
#43 = CARTESIAN_POINT('',(20.,-14.5,0.204817344448));
#44 = CARTESIAN_POINT('',(19.997552869566,-14.53262764805,0.404710346893
    ));
#45 = CARTESIAN_POINT('',(19.992870713991,-14.59506060096,0.593575447084
    ));
#46 = CARTESIAN_POINT('',(19.986592154737,-14.68320824106,0.766251298337
    ));
#47 = CARTESIAN_POINT('',(19.979624312577,-14.79179080615,0.918760042344
    ));
#48 = CARTESIAN_POINT('',(19.972774350342,-14.91444684821,1.04870667244)
  );
#49 = CARTESIAN_POINT('',(19.960776066683,-15.16500185093,1.255983797115
    ));
#50 = CARTESIAN_POINT('',(19.955418366107,-15.29474829376,1.338369423178
    ));
#51 = CARTESIAN_POINT('',(19.95084849637,-15.43050312217,1.403476490669)
  );
#52 = CARTESIAN_POINT('',(19.947291443418,-15.57033893181,1.451859473607
    ));
#53 = CARTESIAN_POINT('',(19.944877699955,-15.71272459289,1.483951568998
    ));
#54 = CARTESIAN_POINT('',(19.943670675179,-15.85635498512,1.5));
#55 = CARTESIAN_POINT('',(19.943670675179,-16.14364206348,1.5));
#56 = CARTESIAN_POINT('',(19.944877648411,-16.28727230417,1.483952242317
    ));
#57 = CARTESIAN_POINT('',(19.947291384199,-16.42965963543,1.451860294793
    ));
#58 = CARTESIAN_POINT('',(19.950848484349,-16.56949759234,1.403476694213
    ));
#59 = CARTESIAN_POINT('',(19.955418444528,-16.70525398129,1.338368452051
    ));
#60 = CARTESIAN_POINT('',(19.960776174296,-16.8350003963,1.255981938037)
  );
#61 = CARTESIAN_POINT('',(19.972773385986,-17.08553301356,1.04872333223)
  );
#62 = CARTESIAN_POINT('',(19.979623454895,-17.20819762623,0.918778495611
    ));
#63 = CARTESIAN_POINT('',(19.986592331293,-17.31679761926,0.76625455153)
  );
#64 = CARTESIAN_POINT('',(19.992871955257,-17.40495599129,0.593553209766
    ));
#65 = CARTESIAN_POINT('',(19.997553851309,-17.4673854259,0.404666716919)
  );
#66 = CARTESIAN_POINT('',(20.,-17.5,0.204776314537));
#67 = CARTESIAN_POINT('',(20.,-17.5,4.88E-15));
#68 = ORIENTED_EDGE('',*,*,#69,.T.);
#69 = EDGE_CURVE('',#39,#70,#72,.T.);
#70 = VERTEX_POINT('',#71);
#71 = CARTESIAN_POINT('',(20.,-31.,7.E-15));
#72 = LINE('',#73,#74);
#73 = CARTESIAN_POINT('',(20.,0.,0.));
#74 = VECTOR('',#75,1.);
#75 = DIRECTION('',(0.,-1.,2.2E-16));
#76 = ORIENTED_EDGE('',*,*,#77,.T.);
#77 = EDGE_CURVE('',#70,#70,#78,.T.);
#78 = CIRCLE('',#79,20.);
#79 = AXIS2_PLACEMENT_3D('',#80,#81,#82);
#80 = CARTESIAN_POINT('',(0.,-31.,7.E-15));
#81 = DIRECTION('',(0.,-1.,0.));
#82 = DIRECTION('',(1.,0.,0.));
#83 = ORIENTED_EDGE('',*,*,#69,.F.);
#84 = ORIENTED_EDGE('',*,*,#85,.T.);
#85 = EDGE_CURVE('',#39,#31,#86,.T.);
#86 = B_SPLINE_CURVE_WITH_KNOTS('',7,(#87,#88,#89,#90,#91,#92,#93,#94,
    #95,#96,#97,#98,#99,#100,#101,#102,#103,#104,#105,#106,#107,#108,
    #109,#110,#111,#112),.UNSPECIFIED.,.F.,.F.,(8,6,6,6,8),(0.,
    0.258276381152,0.500007456653,0.741785277439,1.),.UNSPECIFIED.);
#87 = CARTESIAN_POINT('',(20.,-17.5,2.44E-15));
#88 = CARTESIAN_POINT('',(20.,-17.5,-0.204817344448));
#89 = CARTESIAN_POINT('',(19.997552869566,-17.46737235194,
    -0.404710346893));
#90 = CARTESIAN_POINT('',(19.992870713991,-17.40493939903,
    -0.593575447085));
#91 = CARTESIAN_POINT('',(19.986592154737,-17.31679175893,
    -0.766251298337));
#92 = CARTESIAN_POINT('',(19.979624312577,-17.20820919384,
    -0.918760042344));
#93 = CARTESIAN_POINT('',(19.972774350342,-17.08555315178,-1.04870667244
    ));
#94 = CARTESIAN_POINT('',(19.96077660266,-16.83500934165,-1.255974537802
    ));
#95 = CARTESIAN_POINT('',(19.955419065414,-16.7052696082,-1.338359212078
    ));
#96 = CARTESIAN_POINT('',(19.950848818257,-16.56951153392,
    -1.403472986545));
#97 = CARTESIAN_POINT('',(19.947291081272,-16.42966005648,
    -1.451864355424));
#98 = CARTESIAN_POINT('',(19.944877182352,-16.28725304251,
    -1.483958434862));
#99 = CARTESIAN_POINT('',(19.943670675179,-16.14361429175,-1.5));
#100 = CARTESIAN_POINT('',(19.943670675179,-15.85635793651,-1.5));
#101 = CARTESIAN_POINT('',(19.944877648411,-15.71272769582,
    -1.483952242317));
#102 = CARTESIAN_POINT('',(19.947291384199,-15.57034036456,
    -1.451860294793));
#103 = CARTESIAN_POINT('',(19.950848484349,-15.43050240765,
    -1.403476694214));
#104 = CARTESIAN_POINT('',(19.955418444528,-15.2947460187,-1.33836845205
    ));
#105 = CARTESIAN_POINT('',(19.960776174296,-15.16499960369,
    -1.255981938037));
#106 = CARTESIAN_POINT('',(19.972772130408,-14.91449320614,
    -1.048745023058));
#107 = CARTESIAN_POINT('',(19.979622636339,-14.79181115194,
    -0.91879730228));
#108 = CARTESIAN_POINT('',(19.986593041919,-14.68318856556,
    -0.766248754296));
#109 = CARTESIAN_POINT('',(19.992873658858,-14.59502144734,
    -0.593516167626));
#110 = CARTESIAN_POINT('',(19.997554943626,-14.53259997571,
    -0.404611014735));
#111 = CARTESIAN_POINT('',(20.,-14.5,-0.204730475263));
#112 = CARTESIAN_POINT('',(20.,-14.5,-1.11E-15));
#113 = ORIENTED_EDGE('',*,*,#30,.F.);
#114 = CYLINDRICAL_SURFACE('',#115,20.);
#115 = AXIS2_PLACEMENT_3D('',#116,#117,#118);
#116 = CARTESIAN_POINT('',(0.,0.,0.));
#117 = DIRECTION('',(0.,1.,-2.2E-16));
#118 = DIRECTION('',(1.,0.,0.));
#119 = ADVANCED_FACE('',(#120,#123,#134,#145,#156,#167,#178),#189,.T.);
#120 = FACE_BOUND('',#121,.T.);
#121 = EDGE_LOOP('',(#122));
#122 = ORIENTED_EDGE('',*,*,#21,.F.);
#123 = FACE_BOUND('',#124,.T.);
#124 = EDGE_LOOP('',(#125));
#125 = ORIENTED_EDGE('',*,*,#126,.T.);
#126 = EDGE_CURVE('',#127,#127,#129,.T.);
#127 = VERTEX_POINT('',#128);
#128 = CARTESIAN_POINT('',(-7.230256121069,-2.E-15,-8.980256121069));
#129 = CIRCLE('',#130,1.75);
#130 = AXIS2_PLACEMENT_3D('',#131,#132,#133);
#131 = CARTESIAN_POINT('',(-8.980256121069,0.,-8.980256121069));
#132 = DIRECTION('',(0.,-1.,0.));
#133 = DIRECTION('',(1.,0.,0.));
#134 = FACE_BOUND('',#135,.T.);
#135 = EDGE_LOOP('',(#136));
#136 = ORIENTED_EDGE('',*,*,#137,.T.);
#137 = EDGE_CURVE('',#138,#138,#140,.T.);
#138 = VERTEX_POINT('',#139);
#139 = CARTESIAN_POINT('',(-10.7,0.,0.));
#140 = CIRCLE('',#141,2.);
#141 = AXIS2_PLACEMENT_3D('',#142,#143,#144);
#142 = CARTESIAN_POINT('',(-12.7,0.,0.));
#143 = DIRECTION('',(0.,-1.,0.));
#144 = DIRECTION('',(1.,0.,0.));
#145 = FACE_BOUND('',#146,.T.);
#146 = EDGE_LOOP('',(#147));
#147 = ORIENTED_EDGE('',*,*,#148,.T.);
#148 = EDGE_CURVE('',#149,#149,#151,.T.);
#149 = VERTEX_POINT('',#150);
#150 = CARTESIAN_POINT('',(-7.230256121069,2.E-15,8.980256121069));
#151 = CIRCLE('',#152,1.75);
#152 = AXIS2_PLACEMENT_3D('',#153,#154,#155);
#153 = CARTESIAN_POINT('',(-8.980256121069,0.,8.980256121069));
#154 = DIRECTION('',(0.,-1.,0.));
#155 = DIRECTION('',(1.,0.,0.));
#156 = FACE_BOUND('',#157,.T.);
#157 = EDGE_LOOP('',(#158));
#158 = ORIENTED_EDGE('',*,*,#159,.T.);
#159 = EDGE_CURVE('',#160,#160,#162,.T.);
#160 = VERTEX_POINT('',#161);
#161 = CARTESIAN_POINT('',(10.730256121069,-2.E-15,-8.980256121069));
#162 = CIRCLE('',#163,1.75);
#163 = AXIS2_PLACEMENT_3D('',#164,#165,#166);
#164 = CARTESIAN_POINT('',(8.980256121069,0.,-8.980256121069));
#165 = DIRECTION('',(0.,-1.,0.));
#166 = DIRECTION('',(1.,0.,0.));
#167 = FACE_BOUND('',#168,.T.);
#168 = EDGE_LOOP('',(#169));
#169 = ORIENTED_EDGE('',*,*,#170,.T.);
#170 = EDGE_CURVE('',#171,#171,#173,.T.);
#171 = VERTEX_POINT('',#172);
#172 = CARTESIAN_POINT('',(14.7,0.,0.));
#173 = CIRCLE('',#174,2.);
#174 = AXIS2_PLACEMENT_3D('',#175,#176,#177);
#175 = CARTESIAN_POINT('',(12.7,0.,0.));
#176 = DIRECTION('',(0.,-1.,0.));
#177 = DIRECTION('',(1.,0.,0.));
#178 = FACE_BOUND('',#179,.T.);
#179 = EDGE_LOOP('',(#180));
#180 = ORIENTED_EDGE('',*,*,#181,.T.);
#181 = EDGE_CURVE('',#182,#182,#184,.T.);
#182 = VERTEX_POINT('',#183);
#183 = CARTESIAN_POINT('',(10.730256121069,2.E-15,8.980256121069));
#184 = CIRCLE('',#185,1.75);
#185 = AXIS2_PLACEMENT_3D('',#186,#187,#188);
#186 = CARTESIAN_POINT('',(8.980256121069,0.,8.980256121069));
#187 = DIRECTION('',(0.,-1.,0.));
#188 = DIRECTION('',(1.,0.,0.));
#189 = PLANE('',#190);
#190 = AXIS2_PLACEMENT_3D('',#191,#192,#193);
#191 = CARTESIAN_POINT('',(-1.09E-15,0.,2.8E-16));
#192 = DIRECTION('',(0.,1.,0.));
#193 = DIRECTION('',(0.,0.,1.));
#194 = ADVANCED_FACE('',(#195),#215,.T.);
#195 = FACE_BOUND('',#196,.F.);
#196 = EDGE_LOOP('',(#197,#198,#206,#213,#214));
#197 = ORIENTED_EDGE('',*,*,#38,.F.);
#198 = ORIENTED_EDGE('',*,*,#199,.T.);
#199 = EDGE_CURVE('',#31,#200,#202,.T.);
#200 = VERTEX_POINT('',#201);
#201 = CARTESIAN_POINT('',(30.,-14.5,0.));
#202 = LINE('',#203,#204);
#203 = CARTESIAN_POINT('',(0.,-14.5,0.));
#204 = VECTOR('',#205,1.);
#205 = DIRECTION('',(1.,0.,0.));
#206 = ORIENTED_EDGE('',*,*,#207,.T.);
#207 = EDGE_CURVE('',#200,#200,#208,.T.);
#208 = CIRCLE('',#209,1.5);
#209 = AXIS2_PLACEMENT_3D('',#210,#211,#212);
#210 = CARTESIAN_POINT('',(30.,-16.,0.));
#211 = DIRECTION('',(1.,0.,0.));
#212 = DIRECTION('',(0.,1.,0.));
#213 = ORIENTED_EDGE('',*,*,#199,.F.);
#214 = ORIENTED_EDGE('',*,*,#85,.F.);
#215 = CYLINDRICAL_SURFACE('',#216,1.5);
#216 = AXIS2_PLACEMENT_3D('',#217,#218,#219);
#217 = CARTESIAN_POINT('',(0.,-16.,0.));
#218 = DIRECTION('',(-1.,-0.,-0.));
#219 = DIRECTION('',(0.,1.,0.));
#220 = ADVANCED_FACE('',(#221,#224),#235,.F.);
#221 = FACE_BOUND('',#222,.F.);
#222 = EDGE_LOOP('',(#223));
#223 = ORIENTED_EDGE('',*,*,#77,.F.);
#224 = FACE_BOUND('',#225,.F.);
#225 = EDGE_LOOP('',(#226));
#226 = ORIENTED_EDGE('',*,*,#227,.T.);
#227 = EDGE_CURVE('',#228,#228,#230,.T.);
#228 = VERTEX_POINT('',#229);
#229 = CARTESIAN_POINT('',(17.9,-31.,0.));
#230 = CIRCLE('',#231,17.9);
#231 = AXIS2_PLACEMENT_3D('',#232,#233,#234);
#232 = CARTESIAN_POINT('',(0.,-31.,0.));
#233 = DIRECTION('',(0.,-1.,0.));
#234 = DIRECTION('',(1.,0.,0.));
#235 = PLANE('',#236);
#236 = AXIS2_PLACEMENT_3D('',#237,#238,#239);
#237 = CARTESIAN_POINT('',(-1.09E-15,-31.,7.28E-15));
#238 = DIRECTION('',(0.,1.,0.));
#239 = DIRECTION('',(0.,0.,1.));
#240 = ADVANCED_FACE('',(#241),#260,.F.);
#241 = FACE_BOUND('',#242,.T.);
#242 = EDGE_LOOP('',(#243,#251,#258,#259));
#243 = ORIENTED_EDGE('',*,*,#244,.T.);
#244 = EDGE_CURVE('',#127,#245,#247,.T.);
#245 = VERTEX_POINT('',#246);
#246 = CARTESIAN_POINT('',(-7.230256121069,-5.,-8.980256121069));
#247 = LINE('',#248,#249);
#248 = CARTESIAN_POINT('',(-7.230256121069,-1.99E-15,-8.980256121069));
#249 = VECTOR('',#250,1.);
#250 = DIRECTION('',(0.,-1.,2.2E-16));
#251 = ORIENTED_EDGE('',*,*,#252,.T.);
#252 = EDGE_CURVE('',#245,#245,#253,.T.);
#253 = CIRCLE('',#254,1.75);
#254 = AXIS2_PLACEMENT_3D('',#255,#256,#257);
#255 = CARTESIAN_POINT('',(-8.980256121069,-5.,-8.980256121069));
#256 = DIRECTION('',(0.,-1.,0.));
#257 = DIRECTION('',(1.,0.,0.));
#258 = ORIENTED_EDGE('',*,*,#244,.F.);
#259 = ORIENTED_EDGE('',*,*,#126,.F.);
#260 = CYLINDRICAL_SURFACE('',#261,1.75);
#261 = AXIS2_PLACEMENT_3D('',#262,#263,#264);
#262 = CARTESIAN_POINT('',(-8.980256121069,-1.99E-15,-8.980256121069));
#263 = DIRECTION('',(0.,1.,-2.2E-16));
#264 = DIRECTION('',(1.,0.,0.));
#265 = ADVANCED_FACE('',(#266),#285,.F.);
#266 = FACE_BOUND('',#267,.T.);
#267 = EDGE_LOOP('',(#268,#276,#283,#284));
#268 = ORIENTED_EDGE('',*,*,#269,.T.);
#269 = EDGE_CURVE('',#138,#270,#272,.T.);
#270 = VERTEX_POINT('',#271);
#271 = CARTESIAN_POINT('',(-10.7,-5.,1.E-15));
#272 = LINE('',#273,#274);
#273 = CARTESIAN_POINT('',(-10.7,0.,0.));
#274 = VECTOR('',#275,1.);
#275 = DIRECTION('',(0.,-1.,2.2E-16));
#276 = ORIENTED_EDGE('',*,*,#277,.T.);
#277 = EDGE_CURVE('',#270,#270,#278,.T.);
#278 = CIRCLE('',#279,2.);
#279 = AXIS2_PLACEMENT_3D('',#280,#281,#282);
#280 = CARTESIAN_POINT('',(-12.7,-5.,1.E-15));
#281 = DIRECTION('',(0.,-1.,0.));
#282 = DIRECTION('',(1.,0.,0.));
#283 = ORIENTED_EDGE('',*,*,#269,.F.);
#284 = ORIENTED_EDGE('',*,*,#137,.F.);
#285 = CYLINDRICAL_SURFACE('',#286,2.);
#286 = AXIS2_PLACEMENT_3D('',#287,#288,#289);
#287 = CARTESIAN_POINT('',(-12.7,0.,0.));
#288 = DIRECTION('',(0.,1.,-2.2E-16));
#289 = DIRECTION('',(1.,0.,0.));
#290 = ADVANCED_FACE('',(#291),#310,.F.);
#291 = FACE_BOUND('',#292,.T.);
#292 = EDGE_LOOP('',(#293,#301,#308,#309));
#293 = ORIENTED_EDGE('',*,*,#294,.T.);
#294 = EDGE_CURVE('',#149,#295,#297,.T.);
#295 = VERTEX_POINT('',#296);
#296 = CARTESIAN_POINT('',(-7.230256121069,-5.,8.980256121069));
#297 = LINE('',#298,#299);
#298 = CARTESIAN_POINT('',(-7.230256121069,1.99E-15,8.980256121069));
#299 = VECTOR('',#300,1.);
#300 = DIRECTION('',(0.,-1.,2.2E-16));
#301 = ORIENTED_EDGE('',*,*,#302,.T.);
#302 = EDGE_CURVE('',#295,#295,#303,.T.);
#303 = CIRCLE('',#304,1.75);
#304 = AXIS2_PLACEMENT_3D('',#305,#306,#307);
#305 = CARTESIAN_POINT('',(-8.980256121069,-5.,8.980256121069));
#306 = DIRECTION('',(0.,-1.,0.));
#307 = DIRECTION('',(1.,0.,0.));
#308 = ORIENTED_EDGE('',*,*,#294,.F.);
#309 = ORIENTED_EDGE('',*,*,#148,.F.);
#310 = CYLINDRICAL_SURFACE('',#311,1.75);
#311 = AXIS2_PLACEMENT_3D('',#312,#313,#314);
#312 = CARTESIAN_POINT('',(-8.980256121069,1.99E-15,8.980256121069));
#313 = DIRECTION('',(0.,1.,-2.2E-16));
#314 = DIRECTION('',(1.,0.,0.));
#315 = ADVANCED_FACE('',(#316),#335,.F.);
#316 = FACE_BOUND('',#317,.T.);
#317 = EDGE_LOOP('',(#318,#326,#333,#334));
#318 = ORIENTED_EDGE('',*,*,#319,.T.);
#319 = EDGE_CURVE('',#160,#320,#322,.T.);
#320 = VERTEX_POINT('',#321);
#321 = CARTESIAN_POINT('',(10.730256121069,-5.,-8.980256121069));
#322 = LINE('',#323,#324);
#323 = CARTESIAN_POINT('',(10.730256121069,-1.99E-15,-8.980256121069));
#324 = VECTOR('',#325,1.);
#325 = DIRECTION('',(0.,-1.,2.2E-16));
#326 = ORIENTED_EDGE('',*,*,#327,.T.);
#327 = EDGE_CURVE('',#320,#320,#328,.T.);
#328 = CIRCLE('',#329,1.75);
#329 = AXIS2_PLACEMENT_3D('',#330,#331,#332);
#330 = CARTESIAN_POINT('',(8.980256121069,-5.,-8.980256121069));
#331 = DIRECTION('',(0.,-1.,0.));
#332 = DIRECTION('',(1.,0.,0.));
#333 = ORIENTED_EDGE('',*,*,#319,.F.);
#334 = ORIENTED_EDGE('',*,*,#159,.F.);
#335 = CYLINDRICAL_SURFACE('',#336,1.75);
#336 = AXIS2_PLACEMENT_3D('',#337,#338,#339);
#337 = CARTESIAN_POINT('',(8.980256121069,-1.99E-15,-8.980256121069));
#338 = DIRECTION('',(0.,1.,-2.2E-16));
#339 = DIRECTION('',(1.,0.,0.));
#340 = ADVANCED_FACE('',(#341),#360,.F.);
#341 = FACE_BOUND('',#342,.T.);
#342 = EDGE_LOOP('',(#343,#351,#358,#359));
#343 = ORIENTED_EDGE('',*,*,#344,.T.);
#344 = EDGE_CURVE('',#171,#345,#347,.T.);
#345 = VERTEX_POINT('',#346);
#346 = CARTESIAN_POINT('',(14.7,-5.,1.E-15));
#347 = LINE('',#348,#349);
#348 = CARTESIAN_POINT('',(14.7,0.,0.));
#349 = VECTOR('',#350,1.);
#350 = DIRECTION('',(0.,-1.,2.2E-16));
#351 = ORIENTED_EDGE('',*,*,#352,.T.);
#352 = EDGE_CURVE('',#345,#345,#353,.T.);
#353 = CIRCLE('',#354,2.);
#354 = AXIS2_PLACEMENT_3D('',#355,#356,#357);
#355 = CARTESIAN_POINT('',(12.7,-5.,1.E-15));
#356 = DIRECTION('',(0.,-1.,0.));
#357 = DIRECTION('',(1.,0.,0.));
#358 = ORIENTED_EDGE('',*,*,#344,.F.);
#359 = ORIENTED_EDGE('',*,*,#170,.F.);
#360 = CYLINDRICAL_SURFACE('',#361,2.);
#361 = AXIS2_PLACEMENT_3D('',#362,#363,#364);
#362 = CARTESIAN_POINT('',(12.7,0.,0.));
#363 = DIRECTION('',(0.,1.,-2.2E-16));
#364 = DIRECTION('',(1.,0.,0.));
#365 = ADVANCED_FACE('',(#366),#385,.F.);
#366 = FACE_BOUND('',#367,.T.);
#367 = EDGE_LOOP('',(#368,#376,#383,#384));
#368 = ORIENTED_EDGE('',*,*,#369,.T.);
#369 = EDGE_CURVE('',#182,#370,#372,.T.);
#370 = VERTEX_POINT('',#371);
#371 = CARTESIAN_POINT('',(10.730256121069,-5.,8.980256121069));
#372 = LINE('',#373,#374);
#373 = CARTESIAN_POINT('',(10.730256121069,1.99E-15,8.980256121069));
#374 = VECTOR('',#375,1.);
#375 = DIRECTION('',(0.,-1.,2.2E-16));
#376 = ORIENTED_EDGE('',*,*,#377,.T.);
#377 = EDGE_CURVE('',#370,#370,#378,.T.);
#378 = CIRCLE('',#379,1.75);
#379 = AXIS2_PLACEMENT_3D('',#380,#381,#382);
#380 = CARTESIAN_POINT('',(8.980256121069,-5.,8.980256121069));
#381 = DIRECTION('',(0.,-1.,0.));
#382 = DIRECTION('',(1.,0.,0.));
#383 = ORIENTED_EDGE('',*,*,#369,.F.);
#384 = ORIENTED_EDGE('',*,*,#181,.F.);
#385 = CYLINDRICAL_SURFACE('',#386,1.75);
#386 = AXIS2_PLACEMENT_3D('',#387,#388,#389);
#387 = CARTESIAN_POINT('',(8.980256121069,1.99E-15,8.980256121069));
#388 = DIRECTION('',(0.,1.,-2.2E-16));
#389 = DIRECTION('',(1.,0.,0.));
#390 = ADVANCED_FACE('',(#391),#394,.T.);
#391 = FACE_BOUND('',#392,.T.);
#392 = EDGE_LOOP('',(#393));
#393 = ORIENTED_EDGE('',*,*,#207,.T.);
#394 = PLANE('',#395);
#395 = AXIS2_PLACEMENT_3D('',#396,#397,#398);
#396 = CARTESIAN_POINT('',(30.,-16.,0.));
#397 = DIRECTION('',(1.,0.,0.));
#398 = DIRECTION('',(0.,0.,1.));
#399 = ADVANCED_FACE('',(#400),#419,.T.);
#400 = FACE_BOUND('',#401,.F.);
#401 = EDGE_LOOP('',(#402,#410,#417,#418));
#402 = ORIENTED_EDGE('',*,*,#403,.T.);
#403 = EDGE_CURVE('',#228,#404,#406,.T.);
#404 = VERTEX_POINT('',#405);
#405 = CARTESIAN_POINT('',(17.9,-32.,0.));
#406 = LINE('',#407,#408);
#407 = CARTESIAN_POINT('',(17.9,-31.,0.));
#408 = VECTOR('',#409,1.);
#409 = DIRECTION('',(0.,-1.,2.2E-16));
#410 = ORIENTED_EDGE('',*,*,#411,.T.);
#411 = EDGE_CURVE('',#404,#404,#412,.T.);
#412 = CIRCLE('',#413,17.9);
#413 = AXIS2_PLACEMENT_3D('',#414,#415,#416);
#414 = CARTESIAN_POINT('',(0.,-32.,0.));
#415 = DIRECTION('',(0.,-1.,0.));
#416 = DIRECTION('',(1.,0.,0.));
#417 = ORIENTED_EDGE('',*,*,#403,.F.);
#418 = ORIENTED_EDGE('',*,*,#227,.F.);
#419 = CYLINDRICAL_SURFACE('',#420,17.9);
#420 = AXIS2_PLACEMENT_3D('',#421,#422,#423);
#421 = CARTESIAN_POINT('',(0.,-31.,0.));
#422 = DIRECTION('',(0.,1.,-2.2E-16));
#423 = DIRECTION('',(1.,0.,0.));
#424 = ADVANCED_FACE('',(#425),#428,.T.);
#425 = FACE_BOUND('',#426,.F.);
#426 = EDGE_LOOP('',(#427));
#427 = ORIENTED_EDGE('',*,*,#252,.T.);
#428 = PLANE('',#429);
#429 = AXIS2_PLACEMENT_3D('',#430,#431,#432);
#430 = CARTESIAN_POINT('',(-4.4E-16,-5.,2.12E-15));
#431 = DIRECTION('',(0.,1.,0.));
#432 = DIRECTION('',(0.,0.,1.));
#433 = ADVANCED_FACE('',(#434),#437,.T.);
#434 = FACE_BOUND('',#435,.F.);
#435 = EDGE_LOOP('',(#436));
#436 = ORIENTED_EDGE('',*,*,#277,.T.);
#437 = PLANE('',#438);
#438 = AXIS2_PLACEMENT_3D('',#439,#440,#441);
#439 = CARTESIAN_POINT('',(-4.4E-16,-5.,2.12E-15));
#440 = DIRECTION('',(0.,1.,0.));
#441 = DIRECTION('',(0.,0.,1.));
#442 = ADVANCED_FACE('',(#443),#446,.T.);
#443 = FACE_BOUND('',#444,.F.);
#444 = EDGE_LOOP('',(#445));
#445 = ORIENTED_EDGE('',*,*,#302,.T.);
#446 = PLANE('',#447);
#447 = AXIS2_PLACEMENT_3D('',#448,#449,#450);
#448 = CARTESIAN_POINT('',(-4.4E-16,-5.,2.12E-15));
#449 = DIRECTION('',(0.,1.,0.));
#450 = DIRECTION('',(0.,0.,1.));
#451 = ADVANCED_FACE('',(#452),#455,.T.);
#452 = FACE_BOUND('',#453,.F.);
#453 = EDGE_LOOP('',(#454));
#454 = ORIENTED_EDGE('',*,*,#327,.T.);
#455 = PLANE('',#456);
#456 = AXIS2_PLACEMENT_3D('',#457,#458,#459);
#457 = CARTESIAN_POINT('',(-4.4E-16,-5.,2.12E-15));
#458 = DIRECTION('',(0.,1.,0.));
#459 = DIRECTION('',(0.,0.,1.));
#460 = ADVANCED_FACE('',(#461),#464,.T.);
#461 = FACE_BOUND('',#462,.F.);
#462 = EDGE_LOOP('',(#463));
#463 = ORIENTED_EDGE('',*,*,#352,.T.);
#464 = PLANE('',#465);
#465 = AXIS2_PLACEMENT_3D('',#466,#467,#468);
#466 = CARTESIAN_POINT('',(-4.4E-16,-5.,2.12E-15));
#467 = DIRECTION('',(0.,1.,0.));
#468 = DIRECTION('',(0.,0.,1.));
#469 = ADVANCED_FACE('',(#470),#473,.T.);
#470 = FACE_BOUND('',#471,.F.);
#471 = EDGE_LOOP('',(#472));
#472 = ORIENTED_EDGE('',*,*,#377,.T.);
#473 = PLANE('',#474);
#474 = AXIS2_PLACEMENT_3D('',#475,#476,#477);
#475 = CARTESIAN_POINT('',(-4.4E-16,-5.,2.12E-15));
#476 = DIRECTION('',(0.,1.,0.));
#477 = DIRECTION('',(0.,0.,1.));
#478 = ADVANCED_FACE('',(#479,#482,#493,#504,#515,#526,#537),#548,.F.);
#479 = FACE_BOUND('',#480,.F.);
#480 = EDGE_LOOP('',(#481));
#481 = ORIENTED_EDGE('',*,*,#411,.F.);
#482 = FACE_BOUND('',#483,.F.);
#483 = EDGE_LOOP('',(#484));
#484 = ORIENTED_EDGE('',*,*,#485,.T.);
#485 = EDGE_CURVE('',#486,#486,#488,.T.);
#486 = VERTEX_POINT('',#487);
#487 = CARTESIAN_POINT('',(-7.230256121069,-32.,-8.980256121069));
#488 = CIRCLE('',#489,1.75);
#489 = AXIS2_PLACEMENT_3D('',#490,#491,#492);
#490 = CARTESIAN_POINT('',(-8.980256121069,-32.,-8.980256121069));
#491 = DIRECTION('',(0.,-1.,0.));
#492 = DIRECTION('',(1.,0.,0.));
#493 = FACE_BOUND('',#494,.F.);
#494 = EDGE_LOOP('',(#495));
#495 = ORIENTED_EDGE('',*,*,#496,.T.);
#496 = EDGE_CURVE('',#497,#497,#499,.T.);
#497 = VERTEX_POINT('',#498);
#498 = CARTESIAN_POINT('',(-10.7,-32.,7.E-15));
#499 = CIRCLE('',#500,2.);
#500 = AXIS2_PLACEMENT_3D('',#501,#502,#503);
#501 = CARTESIAN_POINT('',(-12.7,-32.,7.E-15));
#502 = DIRECTION('',(0.,-1.,0.));
#503 = DIRECTION('',(1.,0.,0.));
#504 = FACE_BOUND('',#505,.F.);
#505 = EDGE_LOOP('',(#506));
#506 = ORIENTED_EDGE('',*,*,#507,.T.);
#507 = EDGE_CURVE('',#508,#508,#510,.T.);
#508 = VERTEX_POINT('',#509);
#509 = CARTESIAN_POINT('',(-7.230256121069,-32.,8.980256121069));
#510 = CIRCLE('',#511,1.75);
#511 = AXIS2_PLACEMENT_3D('',#512,#513,#514);
#512 = CARTESIAN_POINT('',(-8.980256121069,-32.,8.980256121069));
#513 = DIRECTION('',(0.,-1.,0.));
#514 = DIRECTION('',(1.,0.,0.));
#515 = FACE_BOUND('',#516,.F.);
#516 = EDGE_LOOP('',(#517));
#517 = ORIENTED_EDGE('',*,*,#518,.T.);
#518 = EDGE_CURVE('',#519,#519,#521,.T.);
#519 = VERTEX_POINT('',#520);
#520 = CARTESIAN_POINT('',(10.730256121069,-32.,-8.980256121069));
#521 = CIRCLE('',#522,1.75);
#522 = AXIS2_PLACEMENT_3D('',#523,#524,#525);
#523 = CARTESIAN_POINT('',(8.980256121069,-32.,-8.980256121069));
#524 = DIRECTION('',(0.,-1.,0.));
#525 = DIRECTION('',(1.,0.,0.));
#526 = FACE_BOUND('',#527,.F.);
#527 = EDGE_LOOP('',(#528));
#528 = ORIENTED_EDGE('',*,*,#529,.T.);
#529 = EDGE_CURVE('',#530,#530,#532,.T.);
#530 = VERTEX_POINT('',#531);
#531 = CARTESIAN_POINT('',(14.7,-32.,7.E-15));
#532 = CIRCLE('',#533,2.);
#533 = AXIS2_PLACEMENT_3D('',#534,#535,#536);
#534 = CARTESIAN_POINT('',(12.7,-32.,7.E-15));
#535 = DIRECTION('',(0.,-1.,0.));
#536 = DIRECTION('',(1.,0.,0.));
#537 = FACE_BOUND('',#538,.F.);
#538 = EDGE_LOOP('',(#539));
#539 = ORIENTED_EDGE('',*,*,#540,.T.);
#540 = EDGE_CURVE('',#541,#541,#543,.T.);
#541 = VERTEX_POINT('',#542);
#542 = CARTESIAN_POINT('',(10.730256121069,-32.,8.980256121069));
#543 = CIRCLE('',#544,1.75);
#544 = AXIS2_PLACEMENT_3D('',#545,#546,#547);
#545 = CARTESIAN_POINT('',(8.980256121069,-32.,8.980256121069));
#546 = DIRECTION('',(0.,-1.,0.));
#547 = DIRECTION('',(1.,0.,0.));
#548 = PLANE('',#549);
#549 = AXIS2_PLACEMENT_3D('',#550,#551,#552);
#550 = CARTESIAN_POINT('',(-6.1E-16,-32.,-1.2E-16));
#551 = DIRECTION('',(0.,1.,-2.3E-16));
#552 = DIRECTION('',(0.,2.3E-16,1.));
#553 = ADVANCED_FACE('',(#554),#573,.F.);
#554 = FACE_BOUND('',#555,.F.);
#555 = EDGE_LOOP('',(#556,#564,#571,#572));
#556 = ORIENTED_EDGE('',*,*,#557,.T.);
#557 = EDGE_CURVE('',#486,#558,#560,.T.);
#558 = VERTEX_POINT('',#559);
#559 = CARTESIAN_POINT('',(-7.230256121069,-27.,-8.980256121069));
#560 = LINE('',#561,#562);
#561 = CARTESIAN_POINT('',(-7.230256121069,-32.,-8.980256121069));
#562 = VECTOR('',#563,1.);
#563 = DIRECTION('',(0.,1.,-2.2E-16));
#564 = ORIENTED_EDGE('',*,*,#565,.T.);
#565 = EDGE_CURVE('',#558,#558,#566,.T.);
#566 = CIRCLE('',#567,1.75);
#567 = AXIS2_PLACEMENT_3D('',#568,#569,#570);
#568 = CARTESIAN_POINT('',(-8.980256121069,-27.,-8.980256121069));
#569 = DIRECTION('',(0.,-1.,0.));
#570 = DIRECTION('',(1.,0.,0.));
#571 = ORIENTED_EDGE('',*,*,#557,.F.);
#572 = ORIENTED_EDGE('',*,*,#485,.F.);
#573 = CYLINDRICAL_SURFACE('',#574,1.75);
#574 = AXIS2_PLACEMENT_3D('',#575,#576,#577);
#575 = CARTESIAN_POINT('',(-8.980256121069,-32.,-8.980256121069));
#576 = DIRECTION('',(0.,-1.,2.2E-16));
#577 = DIRECTION('',(1.,0.,0.));
#578 = ADVANCED_FACE('',(#579),#598,.F.);
#579 = FACE_BOUND('',#580,.F.);
#580 = EDGE_LOOP('',(#581,#589,#596,#597));
#581 = ORIENTED_EDGE('',*,*,#582,.T.);
#582 = EDGE_CURVE('',#497,#583,#585,.T.);
#583 = VERTEX_POINT('',#584);
#584 = CARTESIAN_POINT('',(-10.7,-27.,6.E-15));
#585 = LINE('',#586,#587);
#586 = CARTESIAN_POINT('',(-10.7,-32.,7.33E-15));
#587 = VECTOR('',#588,1.);
#588 = DIRECTION('',(0.,1.,-2.2E-16));
#589 = ORIENTED_EDGE('',*,*,#590,.T.);
#590 = EDGE_CURVE('',#583,#583,#591,.T.);
#591 = CIRCLE('',#592,2.);
#592 = AXIS2_PLACEMENT_3D('',#593,#594,#595);
#593 = CARTESIAN_POINT('',(-12.7,-27.,6.E-15));
#594 = DIRECTION('',(0.,-1.,0.));
#595 = DIRECTION('',(1.,0.,0.));
#596 = ORIENTED_EDGE('',*,*,#582,.F.);
#597 = ORIENTED_EDGE('',*,*,#496,.F.);
#598 = CYLINDRICAL_SURFACE('',#599,2.);
#599 = AXIS2_PLACEMENT_3D('',#600,#601,#602);
#600 = CARTESIAN_POINT('',(-12.7,-32.,7.33E-15));
#601 = DIRECTION('',(0.,-1.,2.2E-16));
#602 = DIRECTION('',(1.,0.,0.));
#603 = ADVANCED_FACE('',(#604),#623,.F.);
#604 = FACE_BOUND('',#605,.F.);
#605 = EDGE_LOOP('',(#606,#614,#621,#622));
#606 = ORIENTED_EDGE('',*,*,#607,.T.);
#607 = EDGE_CURVE('',#508,#608,#610,.T.);
#608 = VERTEX_POINT('',#609);
#609 = CARTESIAN_POINT('',(-7.230256121069,-27.,8.980256121069));
#610 = LINE('',#611,#612);
#611 = CARTESIAN_POINT('',(-7.230256121069,-32.,8.980256121069));
#612 = VECTOR('',#613,1.);
#613 = DIRECTION('',(0.,1.,-2.2E-16));
#614 = ORIENTED_EDGE('',*,*,#615,.T.);
#615 = EDGE_CURVE('',#608,#608,#616,.T.);
#616 = CIRCLE('',#617,1.75);
#617 = AXIS2_PLACEMENT_3D('',#618,#619,#620);
#618 = CARTESIAN_POINT('',(-8.980256121069,-27.,8.980256121069));
#619 = DIRECTION('',(0.,-1.,0.));
#620 = DIRECTION('',(1.,0.,0.));
#621 = ORIENTED_EDGE('',*,*,#607,.F.);
#622 = ORIENTED_EDGE('',*,*,#507,.F.);
#623 = CYLINDRICAL_SURFACE('',#624,1.75);
#624 = AXIS2_PLACEMENT_3D('',#625,#626,#627);
#625 = CARTESIAN_POINT('',(-8.980256121069,-32.,8.980256121069));
#626 = DIRECTION('',(0.,-1.,2.2E-16));
#627 = DIRECTION('',(1.,0.,0.));
#628 = ADVANCED_FACE('',(#629),#648,.F.);
#629 = FACE_BOUND('',#630,.F.);
#630 = EDGE_LOOP('',(#631,#639,#646,#647));
#631 = ORIENTED_EDGE('',*,*,#632,.T.);
#632 = EDGE_CURVE('',#519,#633,#635,.T.);
#633 = VERTEX_POINT('',#634);
#634 = CARTESIAN_POINT('',(10.730256121069,-27.,-8.980256121069));
#635 = LINE('',#636,#637);
#636 = CARTESIAN_POINT('',(10.730256121069,-32.,-8.980256121069));
#637 = VECTOR('',#638,1.);
#638 = DIRECTION('',(0.,1.,-2.2E-16));
#639 = ORIENTED_EDGE('',*,*,#640,.T.);
#640 = EDGE_CURVE('',#633,#633,#641,.T.);
#641 = CIRCLE('',#642,1.75);
#642 = AXIS2_PLACEMENT_3D('',#643,#644,#645);
#643 = CARTESIAN_POINT('',(8.980256121069,-27.,-8.980256121069));
#644 = DIRECTION('',(0.,-1.,0.));
#645 = DIRECTION('',(1.,0.,0.));
#646 = ORIENTED_EDGE('',*,*,#632,.F.);
#647 = ORIENTED_EDGE('',*,*,#518,.F.);
#648 = CYLINDRICAL_SURFACE('',#649,1.75);
#649 = AXIS2_PLACEMENT_3D('',#650,#651,#652);
#650 = CARTESIAN_POINT('',(8.980256121069,-32.,-8.980256121069));
#651 = DIRECTION('',(0.,-1.,2.2E-16));
#652 = DIRECTION('',(1.,0.,0.));
#653 = ADVANCED_FACE('',(#654),#673,.F.);
#654 = FACE_BOUND('',#655,.F.);
#655 = EDGE_LOOP('',(#656,#664,#671,#672));
#656 = ORIENTED_EDGE('',*,*,#657,.T.);
#657 = EDGE_CURVE('',#530,#658,#660,.T.);
#658 = VERTEX_POINT('',#659);
#659 = CARTESIAN_POINT('',(14.7,-27.,6.E-15));
#660 = LINE('',#661,#662);
#661 = CARTESIAN_POINT('',(14.7,-32.,7.33E-15));
#662 = VECTOR('',#663,1.);
#663 = DIRECTION('',(0.,1.,-2.2E-16));
#664 = ORIENTED_EDGE('',*,*,#665,.T.);
#665 = EDGE_CURVE('',#658,#658,#666,.T.);
#666 = CIRCLE('',#667,2.);
#667 = AXIS2_PLACEMENT_3D('',#668,#669,#670);
#668 = CARTESIAN_POINT('',(12.7,-27.,6.E-15));
#669 = DIRECTION('',(0.,-1.,0.));
#670 = DIRECTION('',(1.,0.,0.));
#671 = ORIENTED_EDGE('',*,*,#657,.F.);
#672 = ORIENTED_EDGE('',*,*,#529,.F.);
#673 = CYLINDRICAL_SURFACE('',#674,2.);
#674 = AXIS2_PLACEMENT_3D('',#675,#676,#677);
#675 = CARTESIAN_POINT('',(12.7,-32.,7.33E-15));
#676 = DIRECTION('',(0.,-1.,2.2E-16));
#677 = DIRECTION('',(1.,0.,0.));
#678 = ADVANCED_FACE('',(#679),#698,.F.);
#679 = FACE_BOUND('',#680,.F.);
#680 = EDGE_LOOP('',(#681,#689,#696,#697));
#681 = ORIENTED_EDGE('',*,*,#682,.T.);
#682 = EDGE_CURVE('',#541,#683,#685,.T.);
#683 = VERTEX_POINT('',#684);
#684 = CARTESIAN_POINT('',(10.730256121069,-27.,8.980256121069));
#685 = LINE('',#686,#687);
#686 = CARTESIAN_POINT('',(10.730256121069,-32.,8.980256121069));
#687 = VECTOR('',#688,1.);
#688 = DIRECTION('',(0.,1.,-2.2E-16));
#689 = ORIENTED_EDGE('',*,*,#690,.T.);
#690 = EDGE_CURVE('',#683,#683,#691,.T.);
#691 = CIRCLE('',#692,1.75);
#692 = AXIS2_PLACEMENT_3D('',#693,#694,#695);
#693 = CARTESIAN_POINT('',(8.980256121069,-27.,8.980256121069));
#694 = DIRECTION('',(0.,-1.,0.));
#695 = DIRECTION('',(1.,0.,0.));
#696 = ORIENTED_EDGE('',*,*,#682,.F.);
#697 = ORIENTED_EDGE('',*,*,#540,.F.);
#698 = CYLINDRICAL_SURFACE('',#699,1.75);
#699 = AXIS2_PLACEMENT_3D('',#700,#701,#702);
#700 = CARTESIAN_POINT('',(8.980256121069,-32.,8.980256121069));
#701 = DIRECTION('',(0.,-1.,2.2E-16));
#702 = DIRECTION('',(1.,0.,0.));
#703 = ADVANCED_FACE('',(#704),#707,.F.);
#704 = FACE_BOUND('',#705,.T.);
#705 = EDGE_LOOP('',(#706));
#706 = ORIENTED_EDGE('',*,*,#565,.T.);
#707 = PLANE('',#708);
#708 = AXIS2_PLACEMENT_3D('',#709,#710,#711);
#709 = CARTESIAN_POINT('',(-4.4E-16,-27.,6.42E-15));
#710 = DIRECTION('',(0.,1.,0.));
#711 = DIRECTION('',(0.,0.,1.));
#712 = ADVANCED_FACE('',(#713),#716,.F.);
#713 = FACE_BOUND('',#714,.T.);
#714 = EDGE_LOOP('',(#715));
#715 = ORIENTED_EDGE('',*,*,#590,.T.);
#716 = PLANE('',#717);
#717 = AXIS2_PLACEMENT_3D('',#718,#719,#720);
#718 = CARTESIAN_POINT('',(-4.4E-16,-27.,6.42E-15));
#719 = DIRECTION('',(0.,1.,0.));
#720 = DIRECTION('',(0.,0.,1.));
#721 = ADVANCED_FACE('',(#722),#725,.F.);
#722 = FACE_BOUND('',#723,.T.);
#723 = EDGE_LOOP('',(#724));
#724 = ORIENTED_EDGE('',*,*,#615,.T.);
#725 = PLANE('',#726);
#726 = AXIS2_PLACEMENT_3D('',#727,#728,#729);
#727 = CARTESIAN_POINT('',(-4.4E-16,-27.,6.42E-15));
#728 = DIRECTION('',(0.,1.,0.));
#729 = DIRECTION('',(0.,0.,1.));
#730 = ADVANCED_FACE('',(#731),#734,.F.);
#731 = FACE_BOUND('',#732,.T.);
#732 = EDGE_LOOP('',(#733));
#733 = ORIENTED_EDGE('',*,*,#640,.T.);
#734 = PLANE('',#735);
#735 = AXIS2_PLACEMENT_3D('',#736,#737,#738);
#736 = CARTESIAN_POINT('',(-4.4E-16,-27.,6.42E-15));
#737 = DIRECTION('',(0.,1.,0.));
#738 = DIRECTION('',(0.,0.,1.));
#739 = ADVANCED_FACE('',(#740),#743,.F.);
#740 = FACE_BOUND('',#741,.T.);
#741 = EDGE_LOOP('',(#742));
#742 = ORIENTED_EDGE('',*,*,#665,.T.);
#743 = PLANE('',#744);
#744 = AXIS2_PLACEMENT_3D('',#745,#746,#747);
#745 = CARTESIAN_POINT('',(-4.4E-16,-27.,6.42E-15));
#746 = DIRECTION('',(0.,1.,0.));
#747 = DIRECTION('',(0.,0.,1.));
#748 = ADVANCED_FACE('',(#749),#752,.F.);
#749 = FACE_BOUND('',#750,.T.);
#750 = EDGE_LOOP('',(#751));
#751 = ORIENTED_EDGE('',*,*,#690,.T.);
#752 = PLANE('',#753);
#753 = AXIS2_PLACEMENT_3D('',#754,#755,#756);
#754 = CARTESIAN_POINT('',(-4.4E-16,-27.,6.42E-15));
#755 = DIRECTION('',(0.,1.,0.));
#756 = DIRECTION('',(0.,0.,1.));
#757 = ( GEOMETRIC_REPRESENTATION_CONTEXT(3) 
GLOBAL_UNCERTAINTY_ASSIGNED_CONTEXT((#761)) GLOBAL_UNIT_ASSIGNED_CONTEXT
((#758,#759,#760)) REPRESENTATION_CONTEXT('Context #1',
  '3D Context with UNIT and UNCERTAINTY') );
#758 = ( LENGTH_UNIT() NAMED_UNIT(*) SI_UNIT(.MILLI.,.METRE.) );
#759 = ( NAMED_UNIT(*) PLANE_ANGLE_UNIT() SI_UNIT($,.RADIAN.) );
#760 = ( NAMED_UNIT(*) SI_UNIT($,.STERADIAN.) SOLID_ANGLE_UNIT() );
#761 = UNCERTAINTY_MEASURE_WITH_UNIT(LENGTH_MEASURE(1.E-07),#758,
  'distance_accuracy_value','confusion accuracy');
#762 = PRODUCT_RELATED_PRODUCT_CATEGORY('part',$,(#7));
#763 = MECHANICAL_DESIGN_GEOMETRIC_PRESENTATION_REPRESENTATION('',(#764)
  ,#757);
#764 = STYLED_ITEM('color',(#765),#15);
#765 = PRESENTATION_STYLE_ASSIGNMENT((#766,#772));
#766 = SURFACE_STYLE_USAGE(.BOTH.,#767);
#767 = SURFACE_SIDE_STYLE('',(#768));
#768 = SURFACE_STYLE_FILL_AREA(#769);
#769 = FILL_AREA_STYLE('',(#770));
#770 = FILL_AREA_STYLE_COLOUR('',#771);
#771 = COLOUR_RGB('',0.447058818107,0.474509808674,0.501960817233);
#772 = CURVE_STYLE('',#773,POSITIVE_LENGTH_MEASURE(0.1),#774);
#773 = DRAUGHTING_PRE_DEFINED_CURVE_FONT('continuous');
#774 = COLOUR_RGB('',9.803921802644E-02,9.803921802644E-02,
  9.803921802644E-02);
ENDSEC;
END-ISO-10303-21;
